Symbols-Medium.sfdir
StartChar: uF02B2
Encoding: 983730 983730 407
Width: 1000
VWidth: 940
Flags: W
LayerCount: 2
Fore
SplineSet
610 -155 m 1
 610 755 l 1
 903 755 l 1
 839.666992188 695.666992188 790.5 626.166992188 755.5 546.5 c 128
 720.5 466.833007812 703 384.666992188 703 300 c 128
 703 215.333007812 720.5 133.166992188 755.5 53.5 c 128
 790.5 -26.1669921875 839.666992188 -95.6669921875 903 -155 c 1
 610 -155 l 1
EndSplineSet
Colour: ff
EndChar
StartChar: uF02B3
Encoding: 983731 983731 394
Width: 1000
VWidth: 940
Flags: W
LayerCount: 2
Fore
SplineSet
390 -155 m 1
 97 -155 l 1
 160.333007812 -95.6669921875 209.5 -26.1669921875 244.5 53.5 c 128
 279.5 133.166992188 297 215.333007812 297 300 c 128
 297 384.666992188 279.5 466.833007812 244.5 546.5 c 128
 209.5 626.166992188 160.333007812 695.666992188 97 755 c 1
 390 755 l 1
 390 -155 l 1
EndSplineSet
Colour: ff
EndChar
StartChar: uF02BF
Encoding: 983743 983743 234
Width: 1000
VWidth: 1000
Flags: MW
LayerCount: 2
Fore
SplineSet
944 216 m 0
 944 157 926 105 892 61 c 0
 855 13 808 -11 750 -11 c 0
 707 -11 665 1 622 26 c 0
 583 49 550 79 522 117 c 2
 492 157 l 1
 423 45 340 -11 246 -11 c 0
 189 -11 143 13 106 62 c 0
 73 106 56 157 56 216 c 0
 56 275 74 326 108 370 c 0
 145 418 193 442 250 442 c 0
 293 442 335 429 378 404 c 0
 418 381 451 351 478 314 c 2
 508 274 l 1
 578 386 661 442 754 442 c 0
 811 442 857 418 894 370 c 0
 927 326 944 275 944 216 c 0
918 216 m 0
 918 265 905 308 878 345 c 0
 849 386 811 407 764 407 c 0
 679 407 603 350 536 237 c 1
 569 195 569 195 602 153 c 0
 629 120 653 94 674 75 c 0
 701 52 731 41 766 41 c 0
 810 41 847 59 876 96 c 0
 903 131 918 171 918 216 c 0
464 194 m 1
 442 222 419 250 398 278 c 0
 371 311 348 337 326 356 c 0
 299 379 269 390 234 390 c 0
 189 390 153 372 124 335 c 0
 97 300 82 260 82 215 c 0
 82 167 95 124 122 86 c 0
 152 45 190 24 236 24 c 0
 321 24 397 81 464 194 c 1
EndSplineSet
Colour: ff
EndChar
StartChar: uF02C0
Encoding: 983744 983744 235
Width: 1000
VWidth: 1000
Flags: MW
LayerCount: 2
Fore
SplineSet
555 488 m 0
 555 473 549 461 538 450 c 0
 527 439 515 433 500 433 c 0
 485 433 473 439 462 450 c 0
 451 461 445 473 445 488 c 0
 445 503 450 516 461 527 c 0
 472 538 485 543 500 543 c 0
 515 543 527 537 538 526 c 0
 549 515 555 503 555 488 c 0
805 55 m 0
 805 40 800 27 789 16 c 0
 778 5 765 0 750 0 c 256
 735 0 722 5 711 16 c 0
 700 27 695 40 695 55 c 256
 695 70 700 83 711 94 c 0
 722 105 735 110 750 110 c 0
 765 110 777 105 788 94 c 0
 799 83 805 70 805 55 c 0
305 55 m 0
 305 40 300 27 289 16 c 0
 278 5 265 0 250 0 c 256
 235 0 222 5 211 16 c 0
 200 27 195 40 195 55 c 256
 195 70 200 83 211 94 c 0
 222 105 235 110 250 110 c 0
 265 110 277 105 288 94 c 0
 299 83 305 70 305 55 c 0
EndSplineSet
Colour: ff
EndChar
StartChar: uF02C1
Encoding: 983745 983745 234
Width: 1000
VWidth: 940
Flags: MW
LayerCount: 2
Fore
SplineSet
130 170 m 0
 130 236 153 293 200 340 c 0
 247 387 304 410 370 410 c 0
 427 410 478 392 522 355 c 1
 790 623 l 1
 503 623 l 1
 503 670 l 1
 870 670 l 1
 870 303 l 1
 823 303 l 1
 823 590 l 1
 555 322 l 1
 592 278 610 227 610 170 c 0
 610 104 587 47 540 0 c 0
 493 -47 436 -70 370 -70 c 0
 304 -70 247 -47 200 0 c 0
 153 47 130 104 130 170 c 0
177 170 m 0
 177 117 196 72 234 34 c 0
 272 -4 317 -23 370 -23 c 0
 423 -23 468 -4 506 34 c 0
 544 72 563 117 563 170 c 0
 563 223 544 268 506 306 c 0
 468 344 423 363 370 363 c 0
 317 363 272 344 234 306 c 0
 196 268 177 223 177 170 c 0
EndSplineSet
Colour: ff
EndChar
StartChar: uF02C2
Encoding: 983746 983746 237
Width: 1000
VWidth: 1000
Flags: MW
LayerCount: 2
Fore
SplineSet
821 456 m 0
 821 373 793 300 738 240 c 0
 683 180 614 146 531 137 c 1
 531 0 l 1
 675 0 l 1
 675 -61 l 1
 531 -61 l 1
 531 -200 l 1
 470 -200 l 1
 470 -61 l 1
 325 -61 l 1
 325 0 l 1
 470 0 l 1
 470 137 l 1
 387 146 317 181 262 241 c 0
 207 301 179 373 179 456 c 0
 179 545 210 622 272 684 c 0
 334 746 411 777 500 777 c 256
 589 777 666 746 728 684 c 0
 790 622 821 545 821 456 c 0
760 456 m 256
 760 528 735 589 684 640 c 0
 633 691 572 716 500 716 c 256
 428 716 367 691 316 640 c 0
 265 589 240 528 240 456 c 256
 240 384 266 323 316 272 c 0
 366 221 427 196 500 196 c 256
 572 196 633 221 684 272 c 0
 735 323 760 384 760 456 c 256
EndSplineSet
Colour: ff
EndChar
StartChar: uF02D3
Encoding: 983763 983763 202
Width: 1000
Flags: MW
LayerCount: 2
Fore
SplineSet
500 -90 m 0
 391 -90 297 -51 220 26 c 0
 143 103 105 196 105 305 c 0
 105 414 143 507 220 584 c 0
 297 661 391 700 500 700 c 0
 609 700 703 661 780 584 c 0
 857 507 895 414 895 305 c 0
 895 196 857 103 780 26 c 0
 703 -51 609 -90 500 -90 c 0
500 -43 m 4
 596 -43 678 -9 746 59 c 0
 814 127 848 209 848 305 c 0
 848 401 814 483 746 551 c 0
 678 619 596 653 500 653 c 0
 404 653 322 619 254 551 c 0
 186 483 152 401 152 305 c 0
 152 209 186 127 254 59 c 0
 322 -9 404 -43 500 -43 c 4
EndSplineSet
Colour: ff
EndChar
StartChar: uF02D5
Encoding: 983765 983765 204
Width: 1000
VWidth: 940
Flags: MW
LayerCount: 2
Fore
SplineSet
500 107 m 0
 555 107 601 126 640 165 c 0
 679 204 698 250 698 305 c 0
 698 360 679 406 640 445 c 0
 601 484 555 503 500 503 c 0
 445 503 399 484 360 445 c 0
 321 406 302 360 302 305 c 0
 302 250 321 204 360 165 c 0
 399 126 445 107 500 107 c 0
500 60 m 0
 433 60 375 84 327 132 c 0
 279 180 255 238 255 305 c 0
 255 372 279 430 327 478 c 0
 375 526 433 550 500 550 c 0
 567 550 625 526 673 478 c 0
 721 430 745 372 745 305 c 0
 745 238 721 180 673 132 c 0
 625 84 567 60 500 60 c 0
500 -90 m 0
 391 -90 297 -51 220 26 c 0
 143 103 105 196 105 305 c 0
 105 414 143 507 220 584 c 0
 297 661 391 700 500 700 c 0
 609 700 703 661 780 584 c 0
 857 507 895 414 895 305 c 0
 895 196 857 103 780 26 c 0
 703 -51 609 -90 500 -90 c 0
500 -43 m 0
 596 -43 678 -9 746 59 c 0
 814 127 848 209 848 305 c 0
 848 401 814 483 746 551 c 0
 678 619 596 653 500 653 c 0
 404 653 322 619 254 551 c 0
 186 483 152 401 152 305 c 0
 152 209 186 127 254 59 c 0
 322 -9 404 -43 500 -43 c 0
EndSplineSet
Colour: ff
EndChar
StartChar: uF02D6
Encoding: 983766 983766 205
Width: 1000
Flags: MW
LayerCount: 2
Fore
SplineSet
500 709 m 1
 96 305 l 1
 500 -99 l 1
 904 305 l 1
 500 709 l 1
500 -165 m 1
 30 305 l 1
 500 775 l 1
 970 305 l 1
 500 -165 l 1
EndSplineSet
Colour: ff
EndChar
StartChar: uF02D7
Encoding: 983767 983767 206
Width: 1000
VWidth: 1000
Flags: MW
LayerCount: 2
Fore
SplineSet
957 284 m 1
 499 -172 l 1
 43 284 l 1
 499 741 l 1
 957 284 l 1
EndSplineSet
Colour: ff
EndChar
StartChar: uF02D8
Encoding: 983768 983768 207
Width: 1000
Flags: MW
LayerCount: 2
Fore
SplineSet
182 623 m 1
 182 -13 l 1
 818 -13 l 1
 818 623 l 1
 182 623 l 1
865 -60 m 1
 135 -60 l 1
 135 670 l 1
 865 670 l 1
 865 -60 l 1
EndSplineSet
Colour: ff
EndChar
StartChar: uF02DA
Encoding: 983770 983770 209
Width: 1000
Flags: MW
LayerCount: 2
Fore
SplineSet
950 -60 m 1
 50 -60 l 1
 500 720 l 1
 950 -60 l 1
500 627 m 1
 131 -13 l 1
 869 -13 l 1
 500 627 l 1
EndSplineSet
Colour: ff
EndChar
StartChar: uF02DB
Encoding: 983771 983771 210
Width: 1000
Flags: MW
LayerCount: 2
Fore
SplineSet
950 -60 m 1
 50 -60 l 1
 500 720 l 1
 950 -60 l 1
EndSplineSet
Colour: ff
EndChar
StartChar: uF02DC
Encoding: 983772 983772 211
Width: 1000
VWidth: 940
Flags: MW
LayerCount: 2
Fore
SplineSet
500 -7 m 1
 869 633 l 1
 131 633 l 1
 500 -7 l 1
500 -100 m 1
 50 680 l 1
 950 680 l 1
 500 -100 l 1
EndSplineSet
Colour: ff
EndChar
StartChar: uF02DD
Encoding: 983773 983773 212
Width: 1000
VWidth: 1000
Flags: MW
LayerCount: 2
Fore
SplineSet
934 648 m 1
 500 -49 l 1
 66 648 l 1
 934 648 l 1
EndSplineSet
Colour: ff
EndChar
StartChar: uF02E4
Encoding: 983780 983780 389
Width: 1000
Flags: W
LayerCount: 2
Fore
SplineSet
120 -100 m 1
 120 200 l 1
 880 200 l 1
 880 -100 l 1
 120 -100 l 1
120 400 m 1
 120 700 l 1
 880 700 l 1
 880 400 l 1
 120 400 l 1
EndSplineSet
Colour: ff
EndChar
StartChar: uF02E5
Encoding: 983781 983781 243
Width: 1000
VWidth: 1000
Flags: MW
LayerCount: 2
Fore
SplineSet
750 20 m 256
 750 7 744 0 732 0 c 2
 554 0 l 2
 471 0 401 27 342 80 c 0
 281 135 250 203 250 284 c 256
 250 365 281 434 342 489 c 0
 401 542 472 569 554 568 c 2
 732 568 l 2
 744 568 750 561 750 548 c 256
 750 535 744 528 732 528 c 2
 557 528 l 2
 492 528 432 507 378 466 c 0
 320 421 291 367 291 304 c 1
 732 304 l 2
 744 304 750 297 750 284 c 256
 750 271 744 264 732 264 c 2
 291 264 l 1
 291 201 320 147 378 102 c 0
 432 61 492 40 557 40 c 2
 732 40 l 2
 744 40 750 33 750 20 c 256
EndSplineSet
Colour: ff
EndChar
StartChar: uF02E8
Encoding: 983784 983784 246
Width: 1000
Flags: MW
LayerCount: 2
Fore
SplineSet
205 -20 m 2
 205 -14 211 -10 215 -10 c 2
 775 -10 l 2
 781 -10 785 -16 785 -20 c 2
 785 -40 l 2
 785 -46 779 -50 775 -50 c 2
 215 -50 l 2
 209 -50 205 -44 205 -40 c 2
 205 -20 l 2
205 140 m 2
 205 160 l 2
 205 166 211 170 215 170 c 2
 515 170 l 2
 584 170 641 191 687 231 c 0
 733 271 755 320 755 380 c 0
 755 440 733 489 687 529 c 0
 641 569 584 590 515 590 c 2
 215 590 l 2
 209 590 205 596 205 600 c 2
 205 620 l 2
 205 626 211 630 215 630 c 2
 515 630 l 2
 594 630 662 605 715 557 c 0
 768 509 795 450 795 380 c 0
 795 310 768 251 715 203 c 0
 662 155 594 130 515 130 c 2
 215 130 l 2
 209 130 205 136 205 140 c 2
EndSplineSet
Colour: ff
EndChar
StartChar: uF02E9
Encoding: 983785 983785 247
Width: 1000
VWidth: 1000
Flags: MW
LayerCount: 2
Fore
SplineSet
806 20 m 256
 806 7 799 0 786 0 c 2
 498 0 l 2
 417 0 348 27 288 81 c 0
 226 136 194 204 194 284 c 256
 194 364 226 432 288 487 c 0
 348 541 417 568 498 568 c 2
 786 568 l 2
 799 568 806 561 806 548 c 256
 806 535 799 528 786 528 c 2
 502 528 l 2
 432 528 369 505 316 460 c 0
 261 412 234 353 234 284 c 256
 234 215 261 156 316 108 c 0
 369 63 431 40 502 40 c 2
 786 40 l 2
 799 40 806 33 806 20 c 256
EndSplineSet
Colour: ff
EndChar
StartChar: uF02EA
Encoding: 983786 983786 248
Width: 1000
Flags: MW
LayerCount: 2
Fore
SplineSet
205 20 m 2
 205 40 l 2
 205 46 211 50 215 50 c 2
 515 50 l 2
 584 50 641 71 687 111 c 0
 733 151 755 200 755 260 c 0
 755 320 733 369 687 409 c 0
 641 449 584 470 515 470 c 2
 215 470 l 2
 209 470 205 476 205 480 c 2
 205 500 l 2
 205 506 211 510 215 510 c 2
 515 510 l 2
 594 510 662 485 715 437 c 0
 768 389 795 330 795 260 c 0
 795 190 768 131 715 83 c 0
 662 35 594 10 515 10 c 2
 215 10 l 2
 209 10 205 16 205 20 c 2
EndSplineSet
Colour: ff
EndChar
StartChar: uF02ED
Encoding: 983789 983789 251
Width: 1000
VWidth: 1000
Flags: MW
LayerCount: 2
Fore
SplineSet
777 -2 m 0
 777 -15 770 -22 757 -22 c 0
 748 -22 742 -18 739 -10 c 2
 500 529 l 1
 261 -10 l 2
 258 -18 252 -22 243 -22 c 0
 230 -22 223 -15 223 -2 c 0
 223 1 223 4 224 6 c 2
 481 586 l 2
 484 594 491 598 500 598 c 256
 509 598 516 594 519 586 c 2
 776 6 l 2
 777 4 777 1 777 -2 c 0
EndSplineSet
Colour: ff
EndChar
StartChar: uF02EE
Encoding: 983790 983790 252
Width: 1000
Flags: MW
LayerCount: 2
Fore
SplineSet
261 556 m 2
 259 561 261 568 267 570 c 0
 268 570 269 570 270 570 c 2
 292 570 l 2
 296 570 300 568 301 564 c 2
 500 41 l 1
 699 564 l 2
 700 568 704 570 708 570 c 2
 730 570 l 2
 736 570 740 565 740 559 c 0
 740 558 739 557 739 556 c 2
 524 -4 l 2
 523 -8 519 -10 515 -10 c 2
 500 -10 l 1
 485 -10 l 2
 481 -10 477 -8 476 -4 c 2
 261 556 l 2
EndSplineSet
Colour: ff
EndChar
StartChar: uF02F1
Encoding: 983793 983793 254
Width: 1000
VWidth: 1000
Flags: MW
LayerCount: 2
Fore
SplineSet
975 284 m 0
 975 279 973 276 968 274 c 0
 903 245 850 212 811 173 c 0
 774 136 744 95 721 50 c 0
 718 42 712 31 705 16 c 0
 703 11 693 9 676 9 c 0
 669 9 666 13 666 20 c 0
 666 33 678 58 702 95 c 0
 722 126 739 150 754 167 c 1
 246 167 l 1
 260 152 277 128 298 95 c 0
 322 57 334 32 333 20 c 0
 333 13 323 9 304 9 c 0
 301 9 298 11 295 16 c 0
 292 23 287 35 280 50 c 0
 251 107 212 157 162 198 c 0
 124 229 81 255 33 274 c 0
 28 276 25 279 25 284 c 0
 25 289 28 292 33 295 c 0
 43 299 58 306 78 315 c 0
 168 360 235 428 280 519 c 0
 285 530 285 530 295 552 c 0
 297 557 307 559 324 559 c 0
 331 559 334 555 333 548 c 0
 333 535 321 511 298 474 c 0
 277 442 260 418 246 401 c 1
 754 401 l 1
 739 420 721 444 702 474 c 0
 678 511 666 536 666 548 c 0
 666 555 676 559 696 559 c 0
 699 559 702 557 705 552 c 0
 719 523 728 504 733 496 c 0
 743 478 755 460 768 443 c 0
 812 386 866 343 930 312 c 0
 939 309 952 303 968 295 c 0
 973 292 975 289 975 284 c 0
900 284 m 1
 860 305 824 331 793 361 c 1
 207 361 l 1
 176 331 140 305 100 284 c 1
 140 263 176 237 207 207 c 1
 793 207 l 1
 824 237 860 263 900 284 c 1
EndSplineSet
Colour: ff
EndChar
StartChar: uF02F3
Encoding: 983795 983795 256
Width: 1000
VWidth: 1000
Flags: MW
LayerCount: 2
Fore
SplineSet
722 19 m 2
 722 6 716 0 704 0 c 2
 298 0 l 2
 285 0 278 7 278 20 c 256
 278 33 285 40 298 40 c 2
 682 40 l 1
 682 327 l 1
 310 327 l 2
 298 327 292 334 292 347 c 256
 292 360 298 367 310 367 c 2
 682 367 l 1
 682 654 l 1
 298 654 l 2
 285 654 278 661 278 674 c 256
 278 687 285 694 298 694 c 2
 704 694 l 2
 716 694 722 688 722 676 c 2
 722 19 l 2
EndSplineSet
Colour: ff
EndChar
StartChar: uF02F4
Encoding: 983796 983796 257
Width: 1000
VWidth: 1000
Flags: MW
LayerCount: 2
Fore
SplineSet
804 20 m 256
 804 7 798 0 786 0 c 2
 214 0 l 2
 201 0 196 7 196 20 c 0
 196 26 197 31 200 34 c 2
 770 688 l 2
 773 692 777 694 784 694 c 0
 797 694 804 687 804 674 c 0
 804 669 803 665 800 661 c 2
 260 40 l 1
 786 40 l 2
 798 40 804 33 804 20 c 256
EndSplineSet
Colour: ff
EndChar
StartChar: uF02F6
Encoding: 983798 983798 259
Width: 1000
VWidth: 1000
Flags: MW
LayerCount: 2
Fore
SplineSet
846 284 m 0
 846 262 840 251 829 251 c 0
 817 251 811 262 812 284 c 0
 812 371 782 444 721 505 c 0
 660 566 587 596 500 596 c 256
 413 596 340 566 280 505 c 0
 220 444 189 371 189 284 c 0
 189 262 183 251 172 251 c 0
 160 251 154 262 154 284 c 0
 154 381 188 463 255 530 c 0
 322 597 404 630 500 630 c 256
 597 630 679 597 746 530 c 0
 813 463 846 381 846 284 c 0
EndSplineSet
Colour: ff
EndChar
StartChar: uF02F8
Encoding: 983800 983800 261
Width: 1000
Flags: MW
LayerCount: 2
Fore
SplineSet
132 706 m 0
 132 715 140 716 150 716 c 2
 842 716 l 2
 862 716 868 714 868 706 c 0
 868 704 867 703 864 696 c 0
 858 683 840 649 792 552 c 2
 528 22 l 2
 522 11 516 0 500 0 c 0
 487 0 481 3 470 26 c 2
 138 690 l 2
 136 695 132 701 132 706 c 0
264 640 m 1
 532 100 l 5
 802 640 l 1
 264 640 l 1
EndSplineSet
EndChar
StartChar: uF02FC
Encoding: 983804 983804 263
Width: 1000
Flags: MW
LayerCount: 2
Fore
SplineSet
105 -10 m 2
 105 14 l 2
 105 17 107 20 109 22 c 2
 501 290 l 1
 109 558 l 2
 106 560 105 563 105 566 c 2
 105 590 l 2
 105 596 110 600 116 600 c 0
 118 600 120 599 121 598 c 2
 541 311 l 2
 544 309 545 306 545 303 c 2
 545 290 l 1
 545 277 l 2
 545 274 543 271 541 269 c 2
 121 -18 l 2
 116 -21 109 -20 106 -15 c 0
 105 -13 105 -11 105 -10 c 2
455 -10 m 2
 455 14 l 2
 455 17 457 20 459 22 c 2
 851 290 l 1
 459 558 l 2
 456 560 455 563 455 566 c 2
 455 590 l 2
 455 596 460 600 466 600 c 0
 468 600 470 599 471 598 c 2
 891 311 l 2
 894 309 895 306 895 303 c 2
 895 290 l 1
 895 277 l 2
 895 274 893 271 891 269 c 2
 471 -18 l 2
 466 -21 459 -20 456 -15 c 0
 455 -13 455 -11 455 -10 c 2
EndSplineSet
Colour: ff
EndChar
StartChar: uF02FE
Encoding: 983806 983806 244
Width: 1000
Flags: MW
LayerCount: 2
Fore
SplineSet
700 90 m 0
 750 90 784 107 809 136 c 0
 834 169 850 203 850 260 c 0
 850 308 839 343 819 372 c 0
 793 407 758 430 700 430 c 0
 656 430 618 415 587 385 c 0
 556 355 534 313 520 256 c 0
 504 191 477 140 439 104 c 0
 401 68 354 50 300 50 c 0
 237 50 196 72 162 108 c 0
 130 148 110 193 110 260 c 0
 110 317 122 359 149 396 c 0
 184 440 227 470 300 470 c 0
 306 470 310 464 310 460 c 2
 310 440 l 2
 310 434 304 430 300 430 c 0
 243 430 208 408 182 373 c 0
 161 344 150 308 150 260 c 0
 150 207 163 164 191 136 c 0
 216 107 250 90 300 90 c 0
 344 90 382 105 413 135 c 0
 444 165 466 207 480 264 c 0
 496 329 523 380 561 416 c 0
 599 452 646 470 700 470 c 0
 773 470 815 441 850 397 c 0
 877 360 890 317 890 260 c 0
 890 196 873 143 838 108 c 0
 804 72 764 50 700 50 c 0
 694 50 690 56 690 60 c 2
 690 80 l 2
 690 86 696 90 700 90 c 0
EndSplineSet
Colour: ff
EndChar
StartChar: uF02FF
Encoding: 983807 983807 266
Width: 1000
VWidth: 1000
Flags: MW
LayerCount: 2
Fore
SplineSet
833 -6 m 1
 817 -9 804 -11 795 -11 c 0
 715 -11 645 34 586 124 c 2
 564 157 l 1
 507 45 432 -11 340 -11 c 0
 285 -11 242 14 210 64 c 0
 182 107 168 158 167 216 c 256
 167 273 182 324 211 368 c 0
 244 417 288 442 343 442 c 0
 394 442 439 425 480 390 c 0
 507 367 539 328 574 274 c 1
 631 386 705 442 798 442 c 0
 811 442 822 441 832 438 c 1
 833 407 l 1
 824 409 815 410 807 410 c 0
 761 410 718 391 679 354 c 0
 646 323 620 284 599 235 c 1
 645 164 l 2
 672 124 694 95 713 78 c 0
 743 49 775 35 809 34 c 0
 814 34 822 35 833 36 c 1
 833 -6 l 1
539 196 m 1
 520 225 502 253 484 282 c 1
 461 315 440 342 419 361 c 0
 392 385 362 397 329 397 c 0
 286 397 252 377 226 336 c 0
 204 301 193 260 193 215 c 0
 193 167 204 124 226 87 c 0
 252 43 287 21 331 21 c 0
 419 21 488 79 539 196 c 1
EndSplineSet
Colour: ff
EndChar
StartChar: uF0300
Encoding: 983808 983808 267
Width: 1000
Flags: MW
LayerCount: 2
Fore
SplineSet
739 450 m 27
 739 414 711 385 675 385 c 27
 640 385 612 415 612 450 c 27
 612 485 640 515 675 515 c 27
 711 515 739 486 739 450 c 27
389 450 m 3
 389 410 365 385 325 385 c 3
 285 385 262 410 262 450 c 3
 262 490 286 515 325 515 c 3
 364 515 389 490 389 450 c 3
564 150 m 31
 564 114 536 85 500 85 c 31
 465 85 436 115 436 150 c 31
 436 185 465 215 500 215 c 31
 536 215 564 186 564 150 c 31
EndSplineSet
Colour: 8080ff
EndChar
StartChar: uF0301
Encoding: 983809 983809 268
Width: 1000
VWidth: 1000
Flags: MW
LayerCount: 2
Fore
SplineSet
749 708 m 0
 749 683 736 671 711 671 c 0
 686 671 674 683 674 708 c 0
 674 731 685 743 707 746 c 1
 692 759 672 765 648 764 c 0
 620 764 600 745 587 707 c 0
 577 678 570 635 565 576 c 0
 562 531 559 485 556 439 c 0
 548 316 532 166 507 -12 c 0
 500 -66 485 -111 463 -146 c 0
 434 -193 397 -216 351 -216 c 0
 326 -216 303 -210 284 -197 c 0
 262 -183 251 -164 251 -139 c 0
 251 -114 263 -102 288 -103 c 0
 313 -103 326 -115 326 -139 c 0
 326 -162 315 -174 292 -177 c 1
 307 -190 327 -196 351 -196 c 0
 383 -196 406 -177 421 -139 c 0
 434 -106 444 -39 451 61 c 0
 461 206 473 331 486 436 c 0
 491 477 498 525 505 579 c 0
 513 637 527 683 546 717 c 0
 571 762 605 784 648 784 c 0
 673 784 696 778 715 765 c 0
 738 751 749 732 749 708 c 0
EndSplineSet
Colour: ff
EndChar
StartChar: uF0302
Encoding: 983810 983810 269
Width: 1000
Flags: MW
LayerCount: 2
Fore
SplineSet
139 -66 m 0
 144 -36 171 -19 194 -19 c 0
 217 -19 237 -37 232 -65 c 0
 227 -94 202 -105 186 -111 c 1
 203 -119 218 -122 230 -122 c 0
 281 -122 301 -61 315 18 c 0
 317 31 319 44 321 57 c 2
 418 604 l 2
 440 728 523 765 573 765 c 0
 630 765 668 732 661 690 c 0
 656 662 631 643 606 643 c 0
 578 643 565 665 569 689 c 0
 574 718 597 729 609 734 c 1
 595 739 582 743 571 743 c 0
 522 743 500 687 485 603 c 2
 382 16 l 2
 362 -97 288 -145 226 -145 c 0
 176 -145 131 -114 139 -66 c 0
339 -66 m 0
 344 -36 371 -19 394 -19 c 0
 417 -19 437 -37 432 -65 c 0
 427 -94 402 -105 386 -111 c 1
 403 -119 418 -122 430 -122 c 0
 481 -122 501 -61 515 18 c 0
 517 31 519 44 521 57 c 2
 618 604 l 2
 640 728 723 765 773 765 c 0
 830 765 868 732 861 690 c 0
 856 662 831 643 806 643 c 0
 778 643 765 665 769 689 c 0
 774 718 797 729 809 734 c 1
 795 739 782 743 771 743 c 0
 722 743 700 687 685 603 c 2
 582 16 l 2
 562 -97 488 -145 426 -145 c 0
 376 -145 331 -114 339 -66 c 0
EndSplineSet
EndChar
StartChar: uF0305
Encoding: 983813 983813 240
Width: 1000
Flags: MW
LayerCount: 2
Fore
SplineSet
244 67 m 1
 244 154 l 1
 366 185 l 1
 366 377 l 1
 244 346 l 1
 244 433 l 1
 366 465 l 1
 366 650 l 1
 410 650 l 1
 410 476 l 1
 590 521 l 1
 590 690 l 1
 634 690 l 1
 634 532 l 1
 756 563 l 1
 756 476 l 1
 634 445 l 1
 634 253 l 1
 756 284 l 1
 756 197 l 1
 634 165 l 1
 634 -40 l 1
 590 -40 l 1
 590 154 l 1
 410 109 l 1
 410 -80 l 1
 366 -80 l 1
 366 98 l 1
 244 67 l 1
410 196 m 1
 590 242 l 1
 590 434 l 1
 410 388 l 1
 410 196 l 1
EndSplineSet
Colour: ff
EndChar
StartChar: uF0307
Encoding: 983815 983815 244
Width: 1000
Flags: MW
LayerCount: 2
Fore
SplineSet
242 20 m 0
 242 53 256 80 282 102 c 0
 308 124 341 135 382 135 c 0
 409 135 435 128 458 115 c 1
 460 117 l 1
 460 690 l 1
 502 690 l 1
 505 680 520 662 548 638 c 0
 576 614 605 589 636 563 c 0
 667 537 695 504 720 465 c 0
 745 426 758 387 758 350 c 0
 758 316 747 284 726 255 c 0
 705 226 669 196 620 167 c 1
 600 195 l 1
 641 224 670 249 684 269 c 0
 698 289 704 313 704 340 c 0
 704 372 686 407 650 445 c 0
 614 483 565 515 502 542 c 1
 502 80 l 2
 502 33 489 -4 462 -30 c 0
 435 -56 399 -70 352 -70 c 0
 320 -70 295 -61 274 -44 c 0
 253 -27 242 -6 242 20 c 0
EndSplineSet
Colour: ff
EndChar
StartChar: uF1D36
Encoding: 990518 990518 274
Width: 1000
VWidth: 1000
Flags: MW
LayerCount: 2
Fore
SplineSet
721 598 m 1
 678 556 l 1
 531 703 l 1
 530 461 l 1
 606 454 673 422 727 368 c 0
 790 305 821 229 822 141 c 0
 823 53 790 -24 727 -87 c 256
 664 -150 588 -182 500 -181 c 0
 412 -180 336 -149 273 -86 c 256
 210 -23 178 53 178 141 c 0
 178 229 209 305 272 368 c 0
 326 422 394 455 470 462 c 1
 470 702 l 1
 323 555 l 1
 279 599 l 1
 478 798 l 1
 522 797 l 1
 721 598 l 1
683 324 m 256
 632 375 571 401 499 401 c 0
 427 401 366 375 315 324 c 256
 264 273 239 213 239 141 c 0
 239 69 264 8 315 -43 c 256
 366 -94 429 -119 500 -120 c 0
 571 -121 632 -96 684 -44 c 256
 735 7 760 68 760 140 c 0
 760 212 734 273 683 324 c 256
EndSplineSet
Colour: ff
EndChar
StartChar: uF1DC8
Encoding: 990664 990664 251
Width: 1000
Flags: MW
LayerCount: 2
Fore
SplineSet
239 -66 m 0
 244 -36 271 -19 294 -19 c 0
 317 -19 337 -37 332 -65 c 0
 327 -94 302 -105 286 -111 c 1
 303 -119 318 -122 330 -122 c 0
 392 -122 406 -27 421 57 c 6
 437 147 l 1
 411 157 387 172 366 193 c 0
 328 231 308 278 308 332 c 0
 308 386 328 434 366 472 c 0
 404 510 451 530 505 530 c 1
 518 604 l 2
 540 728 623 765 673 765 c 0
 730 765 768 732 761 690 c 0
 756 662 731 643 706 643 c 0
 678 643 665 665 669 689 c 0
 674 718 697 729 709 734 c 1
 695 739 682 743 671 743 c 0
 622 743 600 687 585 603 c 2
 570 520 l 1
 598 511 624 494 646 472 c 0
 684 434 704 386 704 332 c 0
 704 278 684 231 646 193 c 0
 607 154 560 134 503 135 c 1
 482 16 l 2
 462 -97 388 -145 326 -145 c 0
 276 -145 231 -114 239 -66 c 0
442 177 m 1
 499 499 l 1
 456 498 419 481 388 450 c 0
 355 417 339 378 339 332 c 0
 339 286 355 247 388 214 c 0
 404 198 422 185 442 177 c 1
565 489 m 1
 508 165 l 1
 553 166 592 182 624 214 c 0
 657 247 673 286 673 332 c 0
 673 378 657 417 624 450 c 0
 606 468 587 481 565 489 c 1
EndSplineSet
Colour: ff
EndChar
StartChar: uF1DCA
Encoding: 990666 990666 248
Width: 1000
Flags: MW
LayerCount: 2
Fore
SplineSet
21 136 m 1
 136 314 l 1
 192 35 l 1
 362 684 l 2
 373 724 373 734 403 734 c 2
 969 734 l 2
 996 734 1000 722 1000 714 c 0
 1000 695 980 694 970 694 c 2
 406 694 l 1
 204 -77 l 2
 200 -92 198 -105 171 -105 c 2
 161 -105 l 1
 97 213 l 1
 37 120 l 1
 21 136 l 1
EndSplineSet
EndChar
StartChar: uF1DCB
Encoding: 990667 990667 251
Width: 1000
Flags: MW
LayerCount: 2
Fore
SplineSet
169 -39 m 0
 171 -27 180 -27 189 -27 c 2
 488 -27 l 17
 488 517 l 2
 488 526 490 537 500 537 c 0
 505 537 512 535 512 517 c 2
 512 -27 l 9
 802 -27 l 2
 815 -27 831 -26 831 -38 c 0
 831 -50 815 -50 804 -50 c 0
 196 -50 l 0
 185 -50 169 -49 169 -39 c 0
EndSplineSet
EndChar
StartChar: uF1DCC
Encoding: 990668 990668 255
Width: 1000
Flags: MW
LayerCount: 2
Fore
SplineSet
230 30 m 1
 825 30 l 2
 831 30 835 24 835 20 c 2
 835 0 l 2
 835 -6 829 -10 825 -10 c 2
 175 -10 l 2
 169 -10 165 -5 165 1 c 0
 165 3 167 4 167 5 c 2
 587 655 l 2
 590 660 596 660 600 658 c 2
 617 647 l 2
 622 644 623 638 620 634 c 2
 230 30 l 1
EndSplineSet
Colour: ff
EndChar
StartChar: uF1DCD
Encoding: 990669 990669 280
Width: 1000
VWidth: 1000
Flags: MW
LayerCount: 2
Fore
SplineSet
811 20 m 256
 811 7 800 0 778 0 c 2
 222 0 l 2
 202 0 191 6 190 17 c 0
 189 20 189 26 189 33 c 2
 189 653 l 2
 189 675 196 686 209 686 c 256
 222 686 229 675 229 653 c 2
 229 40 l 1
 778 40 l 2
 800 40 811 33 811 20 c 256
EndSplineSet
Colour: ff
EndChar
StartChar: uF1DCE
Encoding: 990670 990670 281
Width: 1000
Flags: MW
LayerCount: 2
Fore
SplineSet
150 1 m 0
 150 4 152 6 153 7 c 2
 833 687 l 2
 837 691 844 690 848 686 c 0
 850 684 850 681 850 680 c 2
 850 0 l 2
 850 -6 844 -10 840 -10 c 2
 160 -10 l 2
 154 -10 150 -5 150 1 c 0
232 30 m 1
 810 30 l 1
 810 608 l 1
 232 30 l 1
EndSplineSet
Colour: ff
EndChar
StartChar: uF1DCF
Encoding: 990671 990671 282
Width: 1000
Flags: MW
LayerCount: 2
Fore
SplineSet
250 0 m 2
 250 330 l 2
 250 406 273 469 320 517 c 0
 349 547 383 567 422 579 c 0
 446 586 472 590 500 590 c 0
 528 590 554 586 578 579 c 0
 617 567 651 547 680 517 c 0
 727 469 750 406 750 330 c 2
 750 0 l 2
 750 -6 744 -10 740 -10 c 2
 720 -10 l 2
 714 -10 710 -4 710 0 c 2
 710 330 l 2
 710 395 690 448 651 489 c 0
 627 514 599 531 566 541 c 0
 546 547 524 550 500 550 c 0
 476 550 454 547 434 541 c 0
 401 531 373 514 349 489 c 0
 310 448 290 395 290 330 c 2
 290 0 l 2
 290 -6 284 -10 280 -10 c 2
 260 -10 l 2
 254 -10 250 -4 250 0 c 2
EndSplineSet
Colour: ff
EndChar
StartChar: uF1DD0
Encoding: 990672 990672 283
Width: 1000
Flags: MW
LayerCount: 2
Fore
SplineSet
250 230 m 2
 250 560 l 2
 250 566 256 570 260 570 c 2
 280 570 l 2
 286 570 290 564 290 560 c 2
 290 230 l 2
 290 165 310 112 349 71 c 0
 373 46 401 29 434 19 c 0
 454 13 476 10 500 10 c 0
 524 10 546 13 566 19 c 0
 599 29 627 46 651 71 c 0
 690 112 710 165 710 230 c 2
 710 560 l 2
 710 566 716 570 720 570 c 2
 740 570 l 2
 746 570 750 564 750 560 c 2
 750 230 l 2
 750 154 727 91 680 43 c 0
 651 13 617 -7 578 -19 c 0
 554 -26 528 -30 500 -30 c 0
 472 -30 446 -26 422 -19 c 0
 383 -7 349 13 320 43 c 0
 273 91 250 154 250 230 c 2
EndSplineSet
Colour: ff
EndChar
StartChar: uF1EEB
Encoding: 990955 990955 400
Width: 1000
VWidth: 940
Flags: W
LayerCount: 2
Fore
SplineSet
45 190 m 1
 955 190 l 1
 955 -103 l 1
 896 -40 826 9 746 44 c 128
 666 79 585 97 500 97 c 128
 415 97 334 79 254 44 c 128
 174 9 104 -40 45 -103 c 1
 45 190 l 1
EndSplineSet
Colour: ff
EndChar
StartChar: uF1EED
Encoding: 990957 990957 389
Width: 1000
Flags: W
LayerCount: 2
Fore
SplineSet
352 631 m 1
 364 629 364 620 364 611 c 2
 364 -2 l 2
 364 -15 365 -31 353 -31 c 0
 341 -31 341 -15 341 -4 c 2
 341 604 l 2
 341 615 342 631 352 631 c 1
547 631 m 0
 552 631 559 628 559 610 c 2
 559 -1 l 1
 558 -14 559 -31 547 -31 c 0
 536 -31 536 -17 536 -6 c 2
 536 611 l 2
 536 620 537 631 547 631 c 0
EndSplineSet
EndChar
StartChar: uF1F48
Encoding: 991048 991048 284
Width: 1000
Flags: MW
LayerCount: 2
Fore
SplineSet
250 390 m 2
 250 410 l 2
 250 416 256 420 260 420 c 2
 740 420 l 2
 746 420 750 414 750 410 c 2
 750 160 l 2
 750 154 744 150 740 150 c 2
 720 150 l 2
 714 150 710 156 710 160 c 2
 710 380 l 1
 260 380 l 2
 254 380 250 386 250 390 c 2
EndSplineSet
Colour: ff
EndChar
StartChar: uF1F49
Encoding: 991049 991049 285
Width: 1000
VWidth: 1000
Flags: MW
LayerCount: 2
Fore
SplineSet
791 -78 m 1
 209 284 l 1
 791 646 l 1
 791 -78 l 1
742 10 m 1
 742 558 l 1
 302 284 l 1
 742 10 l 1
EndSplineSet
Colour: ff
EndChar
StartChar: uF1F4C
Encoding: 991052 991052 288
Width: 1000
VWidth: 1000
Flags: MW
LayerCount: 2
Fore
SplineSet
776 377 m 0
 776 365 772 359 764 360 c 2
 630 360 l 2
 621 360 617 356 617 347 c 2
 617 -135 l 2
 617 -148 611 -155 599 -155 c 2
 402 -155 l 2
 390 -155 384 -148 383 -135 c 2
 383 347 l 2
 383 356 379 360 371 360 c 2
 236 360 l 2
 228 360 224 366 224 377 c 0
 224 378 224 381 225 384 c 0
 225 388 225 388 225 391 c 0
 225 393 227 395 231 398 c 0
 303 439 358 483 395 529 c 0
 432 574 459 623 477 676 c 0
 479 685 483 698 489 715 c 0
 491 721 495 724 500 724 c 256
 505 724 509 721 511 715 c 0
 515 702 515 702 523 676 c 0
 541 623 568 574 605 529 c 0
 642 484 697 440 769 398 c 0
 773 395 776 394 776 392 c 0
 776 390 776 387 776 384 c 0
 776 379 776 379 776 377 c 0
693 400 m 1
 660 424 635 444 617 461 c 0
 565 512 526 569 500 634 c 1
 474 569 435 512 383 461 c 0
 366 444 341 424 308 400 c 1
 404 400 l 2
 417 400 423 393 424 380 c 2
 424 -103 l 2
 424 -112 428 -116 435 -116 c 2
 565 -116 l 2
 573 -116 577 -112 577 -103 c 2
 577 380 l 2
 577 393 583 400 596 400 c 2
 693 400 l 1
EndSplineSet
Colour: ff
EndChar
StartChar: uF1F4D
Encoding: 991053 991053 289
Width: 1000
VWidth: 940
Flags: MW
LayerCount: 2
Fore
SplineSet
490 620 m 1
 136 305 l 1
 490 -10 l 1
 490 165 l 2
 490 171 496 175 500 175 c 2
 830 175 l 1
 830 435 l 1
 500 435 l 2
 494 435 490 441 490 445 c 2
 490 620 l 1
870 165 m 1
 870 145 l 2
 870 139 864 135 860 135 c 2
 530 135 l 1
 530 -75 l 2
 530 -81 525 -85 519 -85 c 0
 517 -85 514 -83 513 -82 c 2
 83 298 l 2
 78 302 79 308 83 312 c 2
 513 692 l 2
 517 696 525 696 528 691 c 0
 529 689 530 686 530 685 c 2
 530 475 l 1
 860 475 l 2
 866 475 870 469 870 465 c 2
 870 165 l 1
EndSplineSet
Colour: ff
EndChar
StartChar: uF1F50
Encoding: 991056 991056 260
Width: 1000
VWidth: 940
Flags: MW
LayerCount: 2
Fore
SplineSet
500 700 m 0
 551 700 595 682 632 645 c 0
 669 608 687 564 687 513 c 0
 687 493 682 471 673 446 c 1
 682 446 l 2
 733 445 777 426 812 390 c 0
 847 354 865 311 865 260 c 0
 865 209 847 165 810 128 c 0
 773 91 729 73 678 73 c 0
 635 73 601 86 575 112 c 1
 573 112 l 1
 575 82 578 58 582 42 c 0
 586 26 595 14 607 6 c 0
 619 -2 632 -8 646 -10 c 0
 660 -12 683 -13 713 -13 c 1
 713 -60 l 1
 287 -60 l 1
 287 -13 l 1
 317 -13 340 -12 354 -10 c 0
 368 -8 381 -2 393 6 c 0
 405 14 414 26 418 42 c 0
 422 58 425 82 427 112 c 1
 425 112 l 1
 399 86 365 73 322 73 c 0
 271 73 227 91 190 128 c 0
 153 165 135 209 135 260 c 0
 135 311 153 354 188 390 c 0
 223 426 267 445 318 446 c 2
 327 446 l 1
 318 471 313 493 313 513 c 0
 313 564 331 608 368 645 c 0
 405 682 449 700 500 700 c 0
562 -15 m 1
 562 -13 l 1
 547 2 537 26 532 56 c 0
 527 86 523 136 522 207 c 1
 568 207 l 1
 579 149 616 120 678 120 c 0
 717 120 750 134 777 161 c 0
 804 188 818 221 818 260 c 0
 818 299 804 332 777 359 c 0
 750 386 717 400 678 400 c 0
 659 400 642 396 625 389 c 1
 602 419 l 1
 627 446 640 478 640 513 c 0
 640 552 626 585 599 612 c 0
 572 639 539 653 500 653 c 0
 461 653 428 639 401 612 c 0
 374 585 360 552 360 513 c 0
 360 478 373 446 398 419 c 1
 375 389 l 1
 358 396 341 400 322 400 c 0
 283 400 250 386 223 359 c 0
 196 332 182 299 182 260 c 0
 182 221 196 188 223 161 c 0
 250 134 283 120 322 120 c 0
 384 120 421 149 432 207 c 1
 478 207 l 1
 477 136 473 86 468 56 c 0
 463 26 453 2 438 -13 c 1
 438 -15 l 1
 562 -15 l 1
EndSplineSet
Colour: ff
EndChar
StartChar: uF1F52
Encoding: 991058 991058 293
Width: 1000
VWidth: 1000
Flags: MW
LayerCount: 2
Fore
SplineSet
796 227 m 0
 796 190 784 158 758 132 c 0
 732 106 699 93 662 93 c 0
 628 93 598 104 570 127 c 0
 545 148 523 175 508 208 c 1
 506 208 l 1
 506 196 l 2
 506 36 584 -47 738 -52 c 1
 742 -75 l 1
 258 -75 l 1
 262 -52 l 1
 415 -47 492 35 492 196 c 2
 492 208 l 1
 490 208 l 1
 475 175 455 148 430 127 c 0
 401 104 370 93 336 93 c 0
 299 93 268 106 242 132 c 0
 216 158 204 190 204 227 c 0
 204 266 217 305 246 342 c 0
 261 362 291 392 336 432 c 0
 383 475 417 511 438 540 c 0
 469 581 489 626 500 675 c 1
 511 626 531 581 562 540 c 0
 583 511 617 475 664 432 c 0
 708 392 737 362 752 342 c 0
 781 305 796 266 796 227 c 0
756 227 m 0
 756 257 744 287 720 318 c 0
 703 341 665 380 606 435 c 0
 556 482 521 524 500 562 c 1
 479 524 443 482 394 435 c 0
 335 380 295 341 278 318 c 0
 255 287 244 257 244 227 c 0
 244 201 252 178 270 160 c 0
 288 142 310 133 336 133 c 0
 378 133 430 171 492 248 c 2
 500 257 l 1
 506 248 l 2
 568 171 620 133 662 133 c 0
 688 133 711 142 729 160 c 0
 747 178 756 201 756 227 c 0
560 -35 m 1
 534 -15 515 10 500 40 c 1
 485 11 464 -14 438 -35 c 1
 560 -35 l 1
EndSplineSet
Colour: ff
EndChar
StartChar: uF1F53
Encoding: 991059 991059 294
Width: 1000
VWidth: 1000
Flags: MW
LayerCount: 2
Fore
SplineSet
780 293 m 1
 673 172 579 45 500 -89 c 1
 420 45 327 172 220 293 c 1
 327 414 420 541 500 675 c 1
 579 541 673 414 780 293 c 1
726 293 m 1
 643 390 567 492 500 599 c 1
 432 492 357 390 274 293 c 1
 357 196 432 94 500 -13 c 1
 567 94 643 196 726 293 c 1
EndSplineSet
Colour: ff
EndChar
StartChar: uF1FE8
Encoding: 991208 991208 2
Width: 1000
Flags: MW
LayerCount: 2
Fore
SplineSet
0 164 m 1
 0 234 l 1
 654 234 l 2
 680 234 722 235 758 186 c 0
 791 142 800 83 800 46 c 0
 800 44 800 42 800 41 c 0
 800 25 793 23 789 23 c 0
 773 23 780 47 770 79 c 0
 751 137 713 155 686 161 c 0
 676 163 667 164 661 164 c 2
 0 164 l 1
EndSplineSet
EndChar
StartChar: uF1FF1
Encoding: 991217 991217 11
Width: 1000
Flags: MW
LayerCount: 2
Fore
SplineSet
223 361 m 0
 223 377 247 370 279 380 c 0
 337 399 355 437 361 464 c 0
 363 474 364 483 364 489 c 2
 364 800 l 1
 434 800 l 1
 434 496 l 2
 434 470 435 428 386 392 c 0
 342 359 283 350 246 350 c 0
 244 350 242 350 241 350 c 0
 225 350 223 357 223 361 c 0
364 -200 m 1
 364 101 l 2
 364 113 364 125 362 137 c 0
 353 180 310 219 247 226 c 0
 240 227 223 227 223 238 c 0
 223 248 231 250 241 250 c 2
 242 250 l 2
 322 250 424 215 433 131 c 0
 434 121 434 112 434 102 c 2
 434 -200 l 1
 364 -200 l 1
EndSplineSet
EndChar
StartChar: uF1FF2
Encoding: 991218 991218 12
Width: 1000
Flags: MW
LayerCount: 2
Fore
SplineSet
564 -200 m 1
 564 454 l 2
 564 480 564 522 612 558 c 0
 634 574 686 600 757 600 c 0
 772 600 775 593 775 589 c 0
 775 574 751 580 719 570 c 0
 639 544 634 484 634 461 c 2
 634 -200 l 1
 564 -200 l 1
EndSplineSet
EndChar
StartChar: uF1FF4
Encoding: 991220 991220 14
Width: 1000
Flags: MW
LayerCount: 2
Fore
SplineSet
564 148 m 2
 564 800 l 1
 634 800 l 1
 634 149 l 2
 634 137 634 125 636 113 c 0
 645 70 688 31 751 24 c 0
 758 23 775 23 775 12 c 0
 775 2 767 0 757 0 c 2
 756 0 l 2
 676 0 575 36 565 119 c 0
 564 129 564 138 564 148 c 2
EndSplineSet
EndChar
StartChar: uF1FF5
Encoding: 991221 991221 15
Width: 1000
Flags: MW
LayerCount: 2
Fore
SplineSet
564 498 m 2
 564 800 l 1
 634 800 l 1
 634 499 l 2
 634 487 634 475 636 463 c 0
 645 420 688 381 751 374 c 0
 758 373 775 373 775 362 c 0
 775 352 767 350 757 350 c 2
 756 350 l 2
 676 350 575 386 565 469 c 0
 564 479 564 488 564 498 c 2
564 -200 m 1
 564 104 l 2
 564 130 564 172 612 208 c 0
 634 224 686 250 757 250 c 0
 772 250 775 243 775 239 c 0
 775 224 751 230 719 220 c 0
 639 194 634 134 634 111 c 2
 634 -200 l 1
 564 -200 l 1
EndSplineSet
EndChar
StartChar: uF1FF8
Encoding: 991224 991224 147
Width: 1000
Flags: MW
LayerCount: 2
Fore
SplineSet
107 -136 m 0
 107 -133 108 -129 116 -120 c 2
 851 723 l 2
 856 729 871 748 882 748 c 0
 886 748 892 744 892 736 c 0
 892 732 887 726 884 723 c 2
 148 -121 l 2
 133 -139 124 -148 116 -148 c 0
 110 -148 107 -142 107 -136 c 0
600 -153 m 1
 600 -107 l 2
 600 -87 607 -85 624 -74 c 0
 777 25 852 60 852 136 c 0
 852 198 805 241 741 241 c 0
 706 241 681 231 660 217 c 1
 683 213 705 196 705 165 c 0
 705 135 681 113 653 113 c 0
 625 113 600 133 600 167 c 0
 600 184 605 200 614 213 c 0
 626 231 644 245 668 255 c 0
 694 266 725 272 760 272 c 0
 866 272 944 218 944 137 c 0
 944 42 834 14 763 -22 c 1
 668 -75 l 1
 795 -75 l 2
 827 -75 859 -74 875 -73 c 0
 890 -72 897 -70 903 -54 c 0
 908 -41 912 -18 919 22 c 1
 944 22 l 1
 916 -153 l 1
 600 -153 l 1
69 666 m 1
 69 697 l 1
 203 700 231 771 253 771 c 0
 268 771 267 755 267 740 c 2
 267 424 l 1
 268 404 270 393 283 386 c 0
 295 380 317 378 355 378 c 2
 374 378 l 1
 374 347 l 1
 323 347 l 1
 362 348 l 1
 284 349 l 1
 160 349 l 1
 95 347 l 1
 83 347 l 1
 83 378 l 1
 102 378 l 2
 143 378 166 379 178 387 c 0
 189 394 192 406 192 425 c 2
 192 696 l 1
 160 680 126 667 69 666 c 1
EndSplineSet
EndChar
StartChar: uF1FF9
Encoding: 991225 991225 148
Width: 1000
Flags: MW
LayerCount: 2
Fore
SplineSet
107 -136 m 0
 107 -133 108 -129 116 -120 c 2
 851 723 l 2
 856 729 871 748 882 748 c 0
 886 748 892 744 892 736 c 0
 892 732 887 726 884 723 c 2
 148 -121 l 2
 133 -139 124 -148 116 -148 c 0
 110 -148 107 -142 107 -136 c 0
633 -18 m 1
 806 -18 l 1
 806 183 l 1
 633 -18 l 1
596 -49 m 1
 596 -18 l 1
 841 266 l 2
 849 276 849 276 864 276 c 0
 884 276 886 274 886 256 c 2
 886 -18 l 1
 953 -18 l 1
 953 -49 l 1
 886 -49 l 1
 886 -119 l 1
 953 -119 l 1
 953 -119 l 1
 953 -150 l 1
 929 -148 868 -148 840 -148 c 0
 810 -148 747 -148 720 -150 c 1
 720 -119 l 1
 720 -119 l 1
 798 -119 l 1
 798 -49 l 1
 596 -49 l 1
69 666 m 1
 69 697 l 1
 203 700 231 771 253 771 c 0
 268 771 267 755 267 740 c 2
 267 424 l 1
 268 404 270 393 283 386 c 0
 295 380 317 378 355 378 c 2
 374 378 l 1
 374 347 l 1
 323 347 l 1
 362 348 l 1
 284 349 l 1
 160 349 l 1
 95 347 l 1
 83 347 l 1
 83 378 l 1
 102 378 l 2
 143 378 166 379 178 387 c 0
 189 394 192 406 192 425 c 2
 192 696 l 1
 160 680 126 667 69 666 c 1
EndSplineSet
EndChar
StartChar: uF2003
Encoding: 991235 991235 296
Width: 1000
VWidth: 1000
Flags: MW
LayerCount: 2
Fore
SplineSet
1012 708 m 0
 1012 683 999 671 974 671 c 0
 949 671 938 683 938 708 c 0
 938 731 948 743 970 746 c 1
 955 759 935 765 912 764 c 0
 884 764 863 745 850 707 c 0
 840 678 833 635 828 576 c 0
 825 531 823 485 820 439 c 0
 812 316 797 166 772 -12 c 0
 765 -66 750 -111 728 -146 c 0
 699 -193 661 -216 614 -216 c 0
 589 -216 567 -210 548 -197 c 0
 526 -183 514 -164 514 -139 c 0
 514 -114 527 -102 552 -103 c 0
 577 -103 590 -115 590 -139 c 0
 590 -162 579 -174 556 -177 c 1
 571 -190 590 -196 614 -196 c 0
 646 -196 669 -177 684 -139 c 0
 697 -107 707 -40 714 61 c 0
 723 200 736 325 750 436 c 0
 755 478 761 526 768 579 c 0
 776 637 791 683 810 717 c 0
 835 762 869 784 912 784 c 0
 937 784 961 778 980 765 c 0
 1002 751 1012 732 1012 708 c 0
748 708 m 0
 748 683 737 671 712 671 c 0
 687 671 674 683 674 708 c 0
 674 731 686 743 708 746 c 1
 693 759 672 765 648 764 c 0
 620 764 601 745 588 707 c 0
 578 678 571 635 566 576 c 0
 563 531 559 485 556 439 c 0
 548 316 533 166 508 -12 c 0
 501 -66 486 -111 464 -146 c 0
 435 -193 397 -216 350 -216 c 0
 325 -216 303 -210 284 -197 c 0
 262 -183 251 -164 252 -139 c 0
 252 -114 264 -102 288 -103 c 0
 313 -103 326 -115 326 -139 c 0
 326 -162 315 -174 292 -177 c 1
 307 -190 326 -196 350 -196 c 0
 382 -196 407 -177 422 -139 c 0
 435 -107 443 -40 450 61 c 0
 459 200 471 325 486 436 c 0
 491 478 499 526 506 579 c 0
 514 637 527 683 546 717 c 0
 571 762 605 784 648 784 c 0
 673 784 697 778 716 765 c 0
 738 751 748 732 748 708 c 0
486 708 m 0
 486 683 473 671 448 671 c 0
 423 671 410 683 410 708 c 0
 410 731 422 743 444 746 c 1
 429 759 408 765 384 764 c 0
 356 764 337 745 324 707 c 0
 314 678 307 635 302 576 c 0
 299 531 295 485 292 439 c 0
 284 316 269 166 244 -12 c 0
 237 -66 222 -111 200 -146 c 0
 171 -193 134 -216 88 -216 c 0
 63 -216 39 -210 20 -197 c 0
 -2 -183 -12 -164 -12 -139 c 0
 -12 -114 -1 -102 24 -103 c 0
 49 -103 62 -115 62 -139 c 0
 62 -162 51 -174 28 -177 c 1
 43 -190 64 -196 88 -196 c 0
 120 -196 143 -177 158 -139 c 0
 171 -106 181 -39 188 61 c 0
 198 206 209 331 222 436 c 0
 227 477 235 525 242 579 c 0
 250 637 263 683 282 717 c 0
 307 762 341 784 384 784 c 0
 409 784 433 778 452 765 c 0
 475 751 486 732 486 708 c 0
EndSplineSet
Colour: ff
EndChar
StartChar: uF2010
Encoding: 991248 991248 215
Width: 1000
Flags: MW
LayerCount: 2
Fore
SplineSet
110 281 m 0
 110 283 112 286 113 287 c 2
 493 717 l 2
 497 722 503 721 507 717 c 2
 887 287 l 2
 891 283 891 275 886 272 c 0
 884 271 881 270 880 270 c 2
 670 270 l 1
 670 -60 l 2
 670 -66 664 -70 660 -70 c 2
 360 -70 l 1
 340 -70 l 2
 334 -70 330 -64 330 -60 c 2
 330 270 l 1
 120 270 l 2
 114 270 110 275 110 281 c 0
EndSplineSet
Colour: ff
EndChar
StartChar: uF2015
Encoding: 991253 991253 220
Width: 1000
Flags: MW
LayerCount: 2
Fore
SplineSet
690 -60 m 1
 310 -60 l 1
 310 0 l 1
 375 0 417 9 434 28 c 0
 451 47 460 91 460 160 c 1
 450 160 l 1
 435 137 415 118 390 105 c 0
 365 92 339 85 310 85 c 0
 261 85 220 102 186 136 c 0
 152 170 135 211 135 260 c 0
 135 309 152 350 186 384 c 0
 220 418 261 435 310 435 c 0
 325 435 340 433 354 429 c 1
 335 459 325 491 325 525 c 0
 325 574 342 615 376 649 c 0
 410 683 451 700 500 700 c 0
 549 700 590 683 624 649 c 0
 658 615 675 574 675 525 c 0
 675 491 665 459 646 429 c 1
 660 433 675 435 690 435 c 0
 739 435 780 418 814 384 c 0
 848 350 865 309 865 260 c 0
 865 211 848 170 814 136 c 0
 780 102 739 85 690 85 c 0
 661 85 635 92 610 105 c 0
 585 118 565 137 550 160 c 1
 540 160 l 1
 540 91 549 47 566 28 c 0
 583 9 625 0 690 0 c 1
 690 -60 l 1
EndSplineSet
Colour: ff
EndChar
StartChar: uF2017
Encoding: 991255 991255 321
Width: 1000
VWidth: 0
LayerCount: 2
Fore
SplineSet
530 -145 m 1
 470 -145 l 1
 470 10 l 1
 530 10 l 1
 530 -145 l 1
290 53 m 1
 186 -46 l 1
 144 -4 l 1
 250 98 l 1
 290 53 l 1
866 2 m 1
 824 -41 l 1
 724 53 l 1
 765 98 l 1
 866 2 l 1
278 300 m 27
 278 426 374 522 500 522 c 27
 629 522 721 427 721 300 c 27
 721 171 629 79 500 79 c 27
 373 79 278 171 278 300 c 27
940 260 m 1
 775 260 l 1
 775 320 l 1
 940 320 l 1
 940 260 l 1
230 270 m 1
 60 270 l 1
 60 330 l 1
 230 330 l 1
 230 270 l 1
860 608 m 1
 756 509 l 1
 714 552 l 1
 820 652 l 1
 860 608 l 1
291 556 m 1
 248 514 l 1
 150 608 l 1
 190 652 l 1
 291 556 l 1
530 585 m 1
 470 585 l 1
 470 740 l 1
 530 740 l 1
 530 585 l 1
EndSplineSet
Colour: 8080ff
EndChar
StartChar: uF201C
Encoding: 991260 991260 223
Width: 1000
Flags: MW
LayerCount: 2
Fore
SplineSet
504 503 m 1
 530 525 557 534 582 534 c 0
 619 534 654 514 688 484 c 8
 713 462 740 430 782 428 c 1
 782 465 l 1
 915 465 l 1
 915 50 l 1
 855 50 l 1
 855 82 l 1
 782 85 l 1
 782 143 l 1
 782 143 778 144 773 144 c 0
 737 144 711 121 687 106 c 24
 641 81 591 63 519 63 c 0
 505 63 493 63 493 63 c 1
 483 40 464 29 432 29 c 24
 409 29 389 34 370 40 c 24
 352 46 334 51 319 60 c 24
 292 74 259 97 259 137 c 0
 259 161 275 183 296 187 c 1
 284 199 275 216 275 238 c 0
 275 267 299 294 326 294 c 2
 326 294 l 1
 315 304 305 318 303 336 c 24
 303 352 309 366 319 373 c 1
 305 373 268 371 243 371 c 0
 196 371 148 373 110 384 c 16
 76 392 61 413 61 435 c 0
 61 457 76 480 104 492 c 8
 149 513 217 513 280 513 c 24
 345 513 451 507 504 503 c 1
339 150 m 24
 329 156 315 168 315 168 c 1
 300 164 284 156 284 136 c 0
 284 109 311 91 330 82 c 24
 345 75 362 69 378 64 c 24
 395 60 412 54 433 54 c 24
 453 54 471 58 471 79 c 0
 471 90 464 104 461 110 c 1
 441 113 424 116 406 122 c 24
 381 129 358 137 339 150 c 24
672 464 m 16
 643 491 613 509 583 509 c 0
 560 509 536 499 511 476 c 8
 483 449 460 415 442 378 c 16
 438 369 433 359 433 350 c 0
 433 334 450 324 466 324 c 0
 487 324 510 338 523 345 c 8
 543 357 572 381 587 394 c 1
 604 376 l 1
 594 368 565 342 551 333 c 1
 564 324 576 314 590 306 c 24
 607 297 625 290 651 290 c 24
 667 290 684 298 694 302 c 1
 706 279 l 1
 694 274 672 265 652 265 c 24
 641 265 620 268 615 269 c 1
 615 266 622 246 622 237 c 0
 622 203 594 188 560 188 c 0
 556 188 553 188 553 188 c 1
 553 187 559 168 559 159 c 0
 559 146 554 137 547 129 c 24
 535 115 515 108 490 108 c 0
 490 108 l 1
 492 101 495 95 496 88 c 1
 496 88 503 87 513 87 c 0
 582 87 629 104 674 128 c 24
 701 144 730 169 771 169 c 0
 776 169 782 168 782 168 c 1
 782 403 l 1
 731 405 700 437 672 464 c 16
855 108 m 1
 855 443 l 1
 808 442 l 1
 808 108 l 1
 855 108 l 1
400 240 m 24
 385 248 362 264 350 273 c 1
 329 268 299 266 299 239 c 0
 299 216 317 199 330 188 c 24
 352 168 382 156 414 146 c 24
 437 138 460 132 489 132 c 0
 505 132 520 137 528 145 c 24
 532 149 534 155 534 161 c 0
 534 172 527 186 523 192 c 1
 504 195 492 199 476 205 c 24
 448 215 425 227 400 240 c 24
464 300 m 0
 434 300 409 321 409 349 c 0
 409 358 410 367 414 377 c 0
 414 377 l 0
 414 377 l 0
 412 377 379 375 369 375 c 1
 356 367 328 360 328 338 c 24
 328 304 390 277 413 262 c 24
 435 250 459 237 484 228 c 24
 506 219 530 212 559 212 c 0
 580 212 597 218 597 240 c 0
 597 254 583 277 580 283 c 1
 562 292 544 307 529 320 c 1
 512 311 487 300 464 300 c 0
481 479 m 1
 425 480 342 488 280 488 c 24
 220 488 157 487 115 468 c 16
 96 459 85 448 85 436 c 0
 85 425 95 414 116 408 c 8
 157 399 206 396 256 396 c 0
 313 396 376 400 426 402 c 1
 440 430 461 457 481 479 c 1
EndSplineSet
Colour: 8080ff
EndChar
StartChar: uF201D
Encoding: 991261 991261 224
Width: 1000
Flags: MW
LayerCount: 2
Fore
SplineSet
297 296 m 1
 293 349 287 455 287 520 c 24
 287 583 287 651 308 696 c 16
 320 724 343 739 365 739 c 0
 387 739 408 724 416 690 c 8
 427 652 429 604 429 557 c 0
 429 532 427 495 427 481 c 1
 434 491 448 497 464 497 c 24
 482 495 496 485 506 474 c 1
 506 474 l 2
 506 501 533 525 562 525 c 0
 584 525 601 516 613 504 c 1
 617 525 639 541 663 541 c 0
 703 541 726 508 740 481 c 24
 749 466 754 448 760 430 c 24
 766 411 771 391 771 368 c 24
 771 336 760 317 737 307 c 1
 737 307 737 295 737 281 c 0
 737 209 719 159 694 113 c 24
 679 89 656 63 656 27 c 0
 656 22 657 18 657 18 c 1
 715 18 l 1
 718 -55 l 1
 750 -55 l 1
 750 -115 l 1
 335 -115 l 1
 335 18 l 1
 372 18 l 1
 370 60 338 87 316 112 c 16
 286 146 266 181 266 218 c 0
 266 243 275 270 297 296 c 1
650 461 m 24
 663 442 671 419 678 394 c 24
 684 376 687 359 690 339 c 1
 696 336 710 329 721 329 c 0
 742 329 746 347 746 367 c 24
 746 388 740 405 736 422 c 24
 731 438 725 455 718 470 c 24
 709 489 691 516 664 516 c 0
 644 516 636 500 632 485 c 1
 632 485 644 471 650 461 c 24
336 128 m 8
 363 100 395 69 397 18 c 1
 632 18 l 1
 632 18 631 24 631 29 c 0
 631 70 656 99 672 126 c 24
 696 171 713 218 713 287 c 0
 713 297 712 304 712 304 c 1
 705 305 699 308 692 310 c 1
 692 310 l 0
 692 285 685 265 671 253 c 24
 663 246 654 241 641 241 c 0
 632 241 613 247 612 247 c 1
 612 247 612 244 612 240 c 0
 612 206 597 178 563 178 c 0
 554 178 534 185 531 185 c 1
 532 180 535 159 535 148 c 24
 535 128 526 106 521 94 c 1
 498 106 l 1
 502 116 510 133 510 149 c 24
 510 175 503 193 494 210 c 24
 486 224 476 236 467 249 c 1
 458 235 432 206 424 196 c 1
 406 213 l 1
 419 228 443 257 455 277 c 16
 462 290 476 313 476 334 c 0
 476 350 466 367 450 367 c 0
 441 367 431 362 422 358 c 8
 385 340 351 317 324 289 c 16
 301 264 291 240 291 217 c 0
 291 187 309 157 336 128 c 8
692 -55 m 1
 692 -8 l 1
 358 -8 l 1
 357 -55 l 1
 692 -55 l 1
560 400 m 24
 573 375 585 352 595 324 c 24
 601 308 605 296 608 277 c 1
 614 273 628 266 639 266 c 0
 645 266 651 268 655 272 c 24
 663 280 668 295 668 311 c 0
 668 340 662 363 654 386 c 24
 644 418 632 448 612 470 c 24
 601 483 584 501 561 501 c 0
 534 501 532 471 527 450 c 1
 536 438 552 415 560 400 c 24
500 336 m 0
 500 313 489 288 480 271 c 1
 493 256 508 238 517 220 c 1
 523 217 546 203 560 203 c 0
 582 203 588 220 588 241 c 0
 588 270 581 294 572 316 c 24
 563 341 550 365 538 387 c 24
 523 410 496 472 462 472 c 24
 440 472 433 444 425 431 c 1
 425 421 423 388 423 386 c 0
 423 386 l 0
 423 386 l 0
 433 390 442 391 451 391 c 0
 479 391 500 366 500 336 c 0
321 319 m 1
 343 339 370 360 398 374 c 1
 400 424 404 487 404 544 c 0
 404 594 401 643 392 684 c 16
 386 705 375 715 364 715 c 0
 352 715 341 704 332 685 c 8
 313 643 312 580 312 520 c 24
 312 458 320 375 321 319 c 1
EndSplineSet
Colour: 8080ff
EndChar
StartChar: uF201E
Encoding: 991262 991262 225
Width: 1000
Flags: MW
LayerCount: 2
Fore
SplineSet
297 304 m 1
 275 330 266 357 266 382 c 0
 266 419 286 454 316 488 c 8
 338 513 370 540 372 582 c 1
 335 582 l 1
 335 715 l 1
 750 715 l 1
 750 655 l 1
 718 655 l 1
 715 582 l 1
 657 582 l 1
 657 582 656 578 656 573 c 0
 656 537 679 511 694 487 c 24
 719 441 737 391 737 319 c 0
 737 305 737 293 737 293 c 1
 760 283 771 264 771 232 c 24
 771 209 766 189 760 170 c 24
 754 152 749 134 740 119 c 24
 726 92 703 59 663 59 c 0
 639 59 617 75 613 96 c 1
 601 84 584 75 562 75 c 0
 533 75 506 99 506 126 c 2
 506 126 l 1
 496 115 482 105 464 103 c 24
 448 103 434 109 427 119 c 1
 427 105 429 68 429 43 c 0
 429 -4 427 -52 416 -90 c 16
 408 -124 387 -139 365 -139 c 0
 343 -139 320 -124 308 -96 c 8
 287 -51 287 17 287 80 c 24
 287 145 293 251 297 304 c 1
650 139 m 24
 644 129 632 115 632 115 c 1
 636 100 644 84 664 84 c 0
 691 84 709 111 718 130 c 24
 725 145 731 162 736 178 c 24
 740 195 746 212 746 233 c 24
 746 253 742 271 721 271 c 0
 710 271 696 264 690 261 c 1
 687 241 684 224 678 206 c 24
 671 181 663 158 650 139 c 24
336 472 m 16
 309 443 291 413 291 383 c 0
 291 360 301 336 324 311 c 8
 351 283 385 260 422 242 c 16
 431 238 441 233 450 233 c 0
 466 233 476 250 476 266 c 0
 476 287 462 310 455 323 c 8
 443 343 419 372 406 387 c 1
 424 404 l 1
 432 394 458 365 467 351 c 1
 476 364 486 376 494 390 c 24
 503 407 510 425 510 451 c 24
 510 467 502 484 498 494 c 1
 521 506 l 1
 526 494 535 472 535 452 c 24
 535 441 532 420 531 415 c 1
 534 415 554 422 563 422 c 0
 597 422 612 394 612 360 c 0
 612 356 612 353 612 353 c 1
 613 353 632 359 641 359 c 0
 654 359 663 354 671 347 c 24
 685 335 692 315 692 290 c 0
 692 290 l 1
 699 292 705 295 712 296 c 1
 712 296 713 303 713 313 c 0
 713 382 696 429 672 474 c 24
 656 501 631 530 631 571 c 0
 631 576 632 582 632 582 c 1
 397 582 l 1
 395 531 363 500 336 472 c 16
692 655 m 1
 357 655 l 1
 358 608 l 1
 692 608 l 1
 692 655 l 1
560 200 m 24
 552 185 536 162 527 150 c 1
 532 129 534 99 561 99 c 0
 584 99 601 117 612 130 c 24
 632 152 644 182 654 214 c 24
 662 237 668 260 668 289 c 0
 668 305 663 320 655 328 c 24
 651 332 645 334 639 334 c 0
 628 334 614 327 608 323 c 1
 605 304 601 292 595 276 c 24
 585 248 573 225 560 200 c 24
500 264 m 0
 500 234 479 209 451 209 c 0
 442 209 433 210 423 214 c 0
 423 214 l 0
 423 214 l 0
 423 212 425 179 425 169 c 1
 433 156 440 128 462 128 c 24
 496 128 523 190 538 213 c 24
 550 235 563 259 572 284 c 24
 581 306 588 330 588 359 c 0
 588 380 582 397 560 397 c 0
 546 397 523 383 517 380 c 1
 508 362 493 344 480 329 c 1
 489 312 500 287 500 264 c 0
321 281 m 1
 320 225 312 142 312 80 c 24
 312 20 313 -43 332 -85 c 16
 341 -104 352 -115 364 -115 c 0
 375 -115 386 -105 392 -84 c 8
 401 -43 404 6 404 56 c 0
 404 113 400 176 398 226 c 1
 370 240 343 261 321 281 c 1
EndSplineSet
Colour: 8080ff
EndChar
StartChar: uF2027
Encoding: 991271 991271 362
Width: 1000
VWidth: 940
Flags: W
LayerCount: 2
Fore
SplineSet
0 50 m 1
 1000 50 l 1
 1000 -200 l 1
 0 -200 l 1
 0 50 l 1
EndSplineSet
Colour: ff
EndChar
StartChar: uF203A
Encoding: 991290 991290 381
Width: 1000
VWidth: 940
Flags: W
LayerCount: 2
Fore
SplineSet
0 277 m 1
 0 323 l 1
 263.4471 323 477 536.5529 477 800 c 1
 523 800 l 5
 523 511.15 288.85 277 0 277 c 1
EndSplineSet
Colour: ff
EndChar
StartChar: uF203D
Encoding: 991293 991293 426
Width: 1000
VWidth: 940
Flags: W
LayerCount: 2
Fore
SplineSet
0 147 m 1
 0 193 l 1
 477 193 l 1
 477 407 l 1
 0 407 l 1
 0 453 l 1
 477 453 l 1
 477 800 l 1
 523 800 l 1
 523 453 l 1
 1000 453 l 1
 1000 407 l 1
 523 407 l 1
 523 193 l 1
 1000 193 l 1
 1000 147 l 1
 523 147 l 1
 523 -200 l 1
 477 -200 l 1
 477 147 l 1
 0 147 l 1
EndSplineSet
Colour: ff
EndChar
StartChar: uF203E
Encoding: 991294 991294 396
Width: 1000
VWidth: 940
Flags: W
LayerCount: 2
Fore
SplineSet
0 147 m 1
 0 193 l 1
 477 193 l 1
 477 407 l 1
 0 407 l 1
 0 453 l 1
 477 453 l 1
 477 800 l 1
 523 800 l 1
 523 -200 l 1
 477 -200 l 1
 477 147 l 1
 0 147 l 1
EndSplineSet
Colour: ff
EndChar
StartChar: uF2041
Encoding: 991297 991297 391
Width: 1000
VWidth: 940
Flags: W
LayerCount: 2
Fore
SplineSet
0 800 m 5
 1000 800 l 1
 1000 -200 l 5
 0 800 l 5
EndSplineSet
Colour: ff
EndChar
StartChar: uF2045
Encoding: 991301 991301 386
Width: 1000
VWidth: 940
Flags: W
LayerCount: 2
Fore
SplineSet
-16.2626953125 -183.736328125 m 1
 983.736328125 816.262695312 l 1
 1016.26269531 783.736328125 l 1
 16.263671875 -216.262695312 l 1
 -16.2626953125 -183.736328125 l 1
EndSplineSet
Colour: ff
EndChar
StartChar: uF2046
Encoding: 991302 991302 385
Width: 1000
Flags: W
LayerCount: 2
Fore
SplineSet
-16.2626953125 783.736328125 m 1
 16.263671875 816.262695312 l 1
 1016.26269531 -183.736328125 l 1
 983.736328125 -216.262695312 l 1
 -16.2626953125 783.736328125 l 1
EndSplineSet
Colour: ff
EndChar
StartChar: uF2075
Encoding: 991349 991349 263
Width: 1000
Flags: MW
LayerCount: 2
Fore
SplineSet
160 135 m 2
 160 155 l 2
 160 161 166 165 170 165 c 2
 803 165 l 1
 590 353 l 2
 586 357 586 363 589 367 c 2
 602 382 l 2
 606 387 614 385 617 382 c 2
 877 152 l 2
 882 148 881 142 877 138 c 2
 617 -92 l 2
 612 -96 605 -95 602 -92 c 2
 589 -77 l 2
 585 -73 586 -66 590 -63 c 2
 803 125 l 1
 170 125 l 2
 164 125 160 131 160 135 c 2
197 445 m 1
 410 257 l 2
 414 253 414 247 411 243 c 2
 398 228 l 2
 394 223 386 225 383 228 c 2
 123 458 l 2
 118 462 119 468 123 472 c 2
 383 702 l 2
 388 706 395 705 398 702 c 2
 411 687 l 2
 415 683 414 676 410 673 c 2
 197 485 l 1
 830 485 l 2
 836 485 840 479 840 475 c 2
 840 455 l 2
 840 449 834 445 830 445 c 2
 197 445 l 1
EndSplineSet
Colour: ff
EndChar
StartChar: uF2076
Encoding: 991350 991350 266
Width: 1000
Flags: MW
LayerCount: 2
Fore
SplineSet
160 455 m 2
 160 475 l 2
 160 481 166 485 170 485 c 2
 803 485 l 1
 590 673 l 2
 586 677 586 683 589 687 c 2
 602 702 l 2
 606 707 614 705 617 702 c 2
 877 472 l 2
 882 468 881 462 877 458 c 2
 617 228 l 2
 612 224 605 225 602 228 c 2
 589 243 l 2
 585 247 586 254 590 257 c 2
 803 445 l 1
 170 445 l 2
 164 445 160 451 160 455 c 2
197 125 m 1
 410 -63 l 2
 414 -67 414 -73 411 -77 c 2
 398 -92 l 2
 394 -97 386 -95 383 -92 c 2
 123 138 l 2
 118 142 119 148 123 152 c 2
 383 382 l 2
 388 386 395 385 398 382 c 2
 411 367 l 2
 415 363 414 356 410 353 c 2
 197 165 l 1
 830 165 l 2
 836 165 840 159 840 155 c 2
 840 135 l 2
 840 129 834 125 830 125 c 2
 197 125 l 1
EndSplineSet
Colour: ff
EndChar
StartChar: uF2077
Encoding: 991351 991351 299
Width: 1000
Flags: MW
LayerCount: 2
Fore
SplineSet
118 394 m 2
 103 407 l 2
 98 411 100 419 103 422 c 2
 333 682 l 2
 337 687 343 686 347 682 c 2
 577 422 l 2
 581 417 580 410 577 407 c 2
 562 394 l 2
 558 390 551 391 548 395 c 2
 360 608 l 1
 360 -25 l 2
 360 -31 354 -35 350 -35 c 2
 330 -35 l 2
 324 -35 320 -29 320 -25 c 2
 320 608 l 1
 132 395 l 2
 128 391 122 391 118 394 c 2
680 2 m 1
 868 215 l 2
 872 219 878 219 882 216 c 2
 897 203 l 2
 902 199 900 191 897 188 c 2
 667 -72 l 2
 663 -77 657 -76 653 -72 c 2
 423 188 l 2
 419 193 420 200 423 203 c 2
 438 216 l 2
 442 220 449 219 452 215 c 2
 640 2 l 1
 640 635 l 2
 640 641 646 645 650 645 c 2
 670 645 l 2
 676 645 680 639 680 635 c 2
 680 2 l 1
EndSplineSet
Colour: ff
EndChar
StartChar: uF2078
Encoding: 991352 991352 300
Width: 1000
VWidth: 1000
Flags: MW
LayerCount: 2
Fore
SplineSet
101 117 m 0
 101 123 105 126 112 125 c 0
 114 125 114 125 115 125 c 0
 148 116 174 106 193 96 c 0
 244 68 285 30 314 -18 c 1
 314 706 l 2
 314 718 321 724 334 724 c 256
 347 724 354 718 354 706 c 2
 354 -18 l 1
 383 31 424 69 475 96 c 0
 493 106 519 116 553 125 c 0
 556 125 l 1
 563 125 566 121 567 114 c 13
 567 107 567 102 567 95 c 16
 567 90 565 87 560 85 c 0
 546 81 535 78 528 76 c 0
 485 61 448 36 416 2 c 0
 384 -32 363 -71 352 -114 c 0
 349 -128 346 -139 345 -146 c 0
 343 -152 339 -155 334 -155 c 0
 328 -155 324 -152 323 -146 c 0
 320 -132 317 -121 316 -114 c 0
 305 -70 284 -31 252 3 c 0
 220 37 183 61 140 76 c 0
 126 80 115 83 108 85 c 0
 103 87 101 98 101 117 c 0
433 452 m 0
 433 471 435 482 440 483 c 0
 454 487 465 490 472 492 c 0
 515 507 552 532 584 566 c 0
 616 600 637 639 648 683 c 0
 651 697 654 708 655 715 c 0
 656 721 660 724 666 724 c 0
 671 724 675 721 677 715 c 0
 681 700 683 689 684 682 c 0
 695 639 716 600 748 566 c 0
 780 532 817 507 860 492 c 0
 874 488 885 485 892 483 c 0
 897 481 899 478 899 474 c 8
 899 466 899 462 899 454 c 17
 898 447 895 443 888 443 c 8
 887 443 886 444 885 444 c 0
 852 453 826 463 807 473 c 0
 756 500 715 537 686 586 c 1
 686 -137 l 2
 686 -149 679 -155 666 -155 c 256
 653 -155 646 -149 646 -137 c 2
 646 586 l 1
 617 538 576 500 525 473 c 0
 506 463 480 453 447 444 c 0
 444 443 l 1
 437 443 433 446 433 452 c 0
EndSplineSet
Colour: ff
EndChar
StartChar: uF2634
Encoding: 992820 992820 55
Width: 1000
Flags: MW
LayerCount: 2
Fore
SplineSet
56 557 m 0
 56 598 55 677 101 728 c 0
 126 756 165 776 225 776 c 0
 278 776 315 760 340 737 c 0
 395 687 394 600 394 557 c 0
 394 513 393 433 343 384 c 0
 318 359 281 343 225 343 c 0
 169 343 132 359 107 384 c 0
 57 433 56 514 56 557 c 0
145 565 m 0
 145 529 145 462 151 428 c 0
 160 381 200 366 225 366 c 0
 246 366 290 376 300 436 c 0
 305 470 305 529 305 565 c 0
 305 618 305 687 293 711 c 0
 280 740 251 752 225 752 c 0
 208 752 159 746 151 688 c 0
 145 654 145 612 145 565 c 0
591 -68 m 0
 591 -32 617 -11 647 -11 c 0
 677 -11 703 -34 703 -67 c 0
 703 -99 681 -113 664 -120 c 1
 673 -123 702 -135 759 -135 c 0
 830 -135 848 -89 848 -46 c 0
 848 30 801 48 759 48 c 2
 738 48 l 2
 727 48 717 51 717 60 c 0
 717 65 721 68 728 70 c 0
 742 74 766 73 780 79 c 0
 811 92 831 132 831 178 c 0
 831 233 795 247 764 247 c 0
 737 247 685 235 655 173 c 1
 663 174 665 175 669 175 c 0
 697 175 720 154 720 124 c 0
 720 94 698 73 670 73 c 0
 652 73 619 84 619 127 c 0
 619 141 621 156 626 170 c 0
 644 224 694 272 769 272 c 0
 849 272 923 233 923 175 c 0
 923 130 893 90 821 63 c 1
 873 54 951 20 951 -44 c 0
 951 -99 886 -164 765 -164 c 0
 620 -164 591 -106 591 -68 c 0
107 -136 m 0
 107 -133 108 -129 116 -120 c 2
 851 723 l 2
 856 729 871 748 882 748 c 0
 886 748 892 744 892 736 c 0
 892 732 887 726 884 723 c 2
 148 -121 l 2
 133 -139 124 -148 116 -148 c 0
 110 -148 107 -142 107 -136 c 0
EndSplineSet
EndChar
StartChar: uF2635
Encoding: 992821 992821 56
Width: 1000
Flags: MW
LayerCount: 2
Fore
SplineSet
69 666 m 1
 69 697 l 1
 203 700 231 771 253 771 c 0
 268 771 267 755 267 740 c 2
 267 424 l 1
 268 404 270 393 283 386 c 0
 295 380 317 378 355 378 c 2
 374 378 l 1
 374 347 l 1
 323 347 l 1
 362 348 l 1
 284 349 l 1
 160 349 l 1
 95 347 l 1
 83 347 l 1
 83 378 l 1
 102 378 l 2
 143 378 166 379 178 387 c 0
 189 394 192 406 192 425 c 2
 192 696 l 1
 160 680 126 667 69 666 c 1
591 -68 m 0
 591 -32 617 -11 647 -11 c 0
 677 -11 703 -34 703 -67 c 0
 703 -99 681 -113 664 -120 c 1
 673 -123 702 -135 759 -135 c 0
 830 -135 848 -89 848 -46 c 0
 848 30 801 48 759 48 c 2
 738 48 l 2
 727 48 717 51 717 60 c 0
 717 65 721 68 728 70 c 0
 742 74 766 73 780 79 c 0
 811 92 831 132 831 178 c 0
 831 233 795 247 764 247 c 0
 737 247 685 235 655 173 c 1
 663 174 665 175 669 175 c 0
 697 175 720 154 720 124 c 0
 720 94 698 73 670 73 c 0
 652 73 619 84 619 127 c 0
 619 141 621 156 626 170 c 0
 644 224 694 272 769 272 c 0
 849 272 923 233 923 175 c 0
 923 130 893 90 821 63 c 1
 873 54 951 20 951 -44 c 0
 951 -99 886 -164 765 -164 c 0
 620 -164 591 -106 591 -68 c 0
107 -136 m 4
 107 -133 108 -129 116 -120 c 6
 851 723 l 6
 856 729 871 748 882 748 c 4
 886 748 892 744 892 736 c 4
 892 732 887 726 884 723 c 6
 148 -121 l 6
 133 -139 124 -148 116 -148 c 4
 110 -148 107 -142 107 -136 c 4
EndSplineSet
EndChar
StartChar: uF2636
Encoding: 992822 992822 57
Width: 1000
Flags: MW
LayerCount: 2
Fore
SplineSet
50 347 m 1
 50 393 l 2
 50 413 57 415 74 426 c 0
 227 525 302 560 302 636 c 0
 302 698 255 741 191 741 c 0
 156 741 131 731 110 717 c 1
 133 713 155 696 155 665 c 0
 155 635 131 613 103 613 c 0
 75 613 50 633 50 667 c 0
 50 684 55 700 64 713 c 0
 76 731 94 745 118 755 c 0
 144 766 175 772 210 772 c 0
 316 772 394 718 394 637 c 0
 394 542 284 514 213 478 c 1
 118 425 l 1
 245 425 l 2
 277 425 309 426 325 427 c 0
 340 428 347 430 353 446 c 0
 358 459 362 482 369 522 c 1
 394 522 l 1
 366 347 l 1
 50 347 l 1
591 -68 m 0
 591 -32 617 -11 647 -11 c 0
 677 -11 703 -34 703 -67 c 0
 703 -99 681 -113 664 -120 c 1
 673 -123 702 -135 759 -135 c 0
 830 -135 848 -89 848 -46 c 0
 848 30 801 48 759 48 c 2
 738 48 l 2
 727 48 717 51 717 60 c 0
 717 65 721 68 728 70 c 0
 742 74 766 73 780 79 c 0
 811 92 831 132 831 178 c 0
 831 233 795 247 764 247 c 0
 737 247 685 235 655 173 c 1
 663 174 665 175 669 175 c 0
 697 175 720 154 720 124 c 0
 720 94 698 73 670 73 c 0
 652 73 619 84 619 127 c 0
 619 141 621 156 626 170 c 0
 644 224 694 272 769 272 c 0
 849 272 923 233 923 175 c 0
 923 130 893 90 821 63 c 1
 873 54 951 20 951 -44 c 0
 951 -99 886 -164 765 -164 c 0
 620 -164 591 -106 591 -68 c 0
107 -136 m 4
 107 -133 108 -129 116 -120 c 6
 851 723 l 6
 856 729 871 748 882 748 c 4
 886 748 892 744 892 736 c 4
 892 732 887 726 884 723 c 6
 148 -121 l 6
 133 -139 124 -148 116 -148 c 4
 110 -148 107 -142 107 -136 c 4
EndSplineSet
EndChar
StartChar: uF2637
Encoding: 992823 992823 58
Width: 1000
Flags: MW
LayerCount: 2
Fore
SplineSet
41 432 m 0
 41 468 67 489 97 489 c 0
 127 489 153 466 153 433 c 0
 153 401 131 387 114 380 c 1
 123 377 152 365 209 365 c 0
 280 365 298 411 298 454 c 0
 298 530 251 548 209 548 c 2
 188 548 l 2
 177 548 167 551 167 560 c 0
 167 565 171 568 178 570 c 0
 192 574 216 573 230 579 c 0
 261 592 281 632 281 678 c 0
 281 733 245 747 214 747 c 0
 187 747 135 735 105 673 c 1
 113 674 115 675 119 675 c 0
 147 675 170 654 170 624 c 0
 170 594 148 573 120 573 c 0
 102 573 69 584 69 627 c 0
 69 641 71 656 76 670 c 0
 94 724 144 772 219 772 c 0
 299 772 373 733 373 675 c 0
 373 630 343 590 271 563 c 1
 323 554 401 520 401 456 c 0
 401 401 336 336 215 336 c 0
 70 336 41 394 41 432 c 0
596 -49 m 1
 596 -18 l 1
 841 266 l 2
 849 276 849 276 864 276 c 0
 884 276 886 274 886 256 c 2
 886 -18 l 1
 953 -18 l 1
 953 -49 l 1
 886 -49 l 1
 886 -119 l 1
 953 -119 l 1
 953 -119 l 1
 953 -150 l 1
 929 -148 868 -148 840 -148 c 0
 810 -148 747 -148 720 -150 c 1
 720 -119 l 1
 720 -119 l 1
 798 -119 l 1
 798 -49 l 1
 596 -49 l 1
633 -18 m 1
 806 -18 l 1
 806 183 l 1
 633 -18 l 1
107 -136 m 4
 107 -133 108 -129 116 -120 c 6
 851 723 l 6
 856 729 871 748 882 748 c 4
 886 748 892 744 892 736 c 4
 892 732 887 726 884 723 c 6
 148 -121 l 6
 133 -139 124 -148 116 -148 c 4
 110 -148 107 -142 107 -136 c 4
EndSplineSet
EndChar
StartChar: uF2638
Encoding: 992824 992824 59
Width: 1000
Flags: MW
LayerCount: 2
Fore
SplineSet
69 666 m 1
 69 697 l 1
 203 700 231 771 253 771 c 0
 268 771 267 755 267 740 c 2
 267 424 l 1
 268 404 270 393 283 386 c 0
 295 380 317 378 355 378 c 2
 374 378 l 1
 374 347 l 1
 323 347 l 1
 362 348 l 1
 284 349 l 1
 160 349 l 1
 95 347 l 1
 83 347 l 1
 83 378 l 1
 102 378 l 2
 143 378 166 379 178 387 c 0
 189 394 192 406 192 425 c 2
 192 696 l 1
 160 680 126 667 69 666 c 1
614 -47 m 0
 614 -7 651 -1 661 -1 c 0
 678 -1 708 -11 708 -45 c 0
 708 -68 692 -83 672 -88 c 0
 669 -89 666 -89 662 -89 c 1
 691 -126 735 -129 752 -129 c 0
 781 -129 801 -121 814 -108 c 1
 836 -85 836 -48 836 -17 c 0
 836 15 837 50 822 71 c 0
 813 84 798 92 774 92 c 0
 745 92 707 86 680 56 c 0
 675 51 674 48 665 48 c 0
 650 48 650 56 650 68 c 2
 650 258 l 2
 650 268 649 276 659 276 c 0
 661 276 662 275 668 273 c 0
 686 267 724 255 777 255 c 0
 807 255 844 259 884 273 c 0
 892 276 893 276 895 276 c 0
 903 276 904 269 904 264 c 0
 904 248 840 174 738 174 c 0
 714 174 707 176 687 179 c 1
 687 93 l 1
 720 114 757 116 777 116 c 0
 881 116 936 56 936 -19 c 0
 936 -98 867 -157 755 -157 c 0
 668 -157 614 -102 614 -47 c 0
107 -136 m 4
 107 -133 108 -129 116 -120 c 6
 851 723 l 6
 856 729 871 748 882 748 c 4
 886 748 892 744 892 736 c 4
 892 732 887 726 884 723 c 6
 148 -121 l 6
 133 -139 124 -148 116 -148 c 4
 110 -148 107 -142 107 -136 c 4
EndSplineSet
EndChar
StartChar: uF2639
Encoding: 992825 992825 60
Width: 1000
Flags: MW
LayerCount: 2
Fore
SplineSet
50 347 m 1
 50 393 l 2
 50 413 57 415 74 426 c 0
 227 525 302 560 302 636 c 0
 302 698 255 741 191 741 c 0
 156 741 131 731 110 717 c 1
 133 713 155 696 155 665 c 0
 155 635 131 613 103 613 c 0
 75 613 50 633 50 667 c 0
 50 684 55 700 64 713 c 0
 76 731 94 745 118 755 c 0
 144 766 175 772 210 772 c 0
 316 772 394 718 394 637 c 0
 394 542 284 514 213 478 c 1
 118 425 l 1
 245 425 l 2
 277 425 309 426 325 427 c 0
 340 428 347 430 353 446 c 0
 358 459 362 482 369 522 c 1
 394 522 l 1
 366 347 l 1
 50 347 l 1
614 -47 m 0
 614 -7 651 -1 661 -1 c 0
 678 -1 708 -11 708 -45 c 0
 708 -68 692 -83 672 -88 c 0
 669 -89 666 -89 662 -89 c 1
 691 -126 735 -129 752 -129 c 0
 781 -129 801 -121 814 -108 c 1
 836 -85 836 -48 836 -17 c 0
 836 15 837 50 822 71 c 0
 813 84 798 92 774 92 c 0
 745 92 707 86 680 56 c 0
 675 51 674 48 665 48 c 0
 650 48 650 56 650 68 c 2
 650 258 l 2
 650 268 649 276 659 276 c 0
 661 276 662 275 668 273 c 0
 686 267 724 255 777 255 c 0
 807 255 844 259 884 273 c 0
 892 276 893 276 895 276 c 0
 903 276 904 269 904 264 c 0
 904 248 840 174 738 174 c 0
 714 174 707 176 687 179 c 1
 687 93 l 1
 720 114 757 116 777 116 c 0
 881 116 936 56 936 -19 c 0
 936 -98 867 -157 755 -157 c 0
 668 -157 614 -102 614 -47 c 0
107 -136 m 4
 107 -133 108 -129 116 -120 c 6
 851 723 l 6
 856 729 871 748 882 748 c 4
 886 748 892 744 892 736 c 4
 892 732 887 726 884 723 c 6
 148 -121 l 6
 133 -139 124 -148 116 -148 c 4
 110 -148 107 -142 107 -136 c 4
EndSplineSet
EndChar
StartChar: uF263A
Encoding: 992826 992826 61
Width: 1000
Flags: MW
LayerCount: 2
Fore
SplineSet
41 432 m 0
 41 468 67 489 97 489 c 0
 127 489 153 466 153 433 c 0
 153 401 131 387 114 380 c 1
 123 377 152 365 209 365 c 0
 280 365 298 411 298 454 c 0
 298 530 251 548 209 548 c 2
 188 548 l 2
 177 548 167 551 167 560 c 0
 167 565 171 568 178 570 c 0
 192 574 216 573 230 579 c 0
 261 592 281 632 281 678 c 0
 281 733 245 747 214 747 c 0
 187 747 135 735 105 673 c 1
 113 674 115 675 119 675 c 0
 147 675 170 654 170 624 c 0
 170 594 148 573 120 573 c 0
 102 573 69 584 69 627 c 0
 69 641 71 656 76 670 c 0
 94 724 144 772 219 772 c 0
 299 772 373 733 373 675 c 0
 373 630 343 590 271 563 c 1
 323 554 401 520 401 456 c 0
 401 401 336 336 215 336 c 0
 70 336 41 394 41 432 c 0
614 -47 m 0
 614 -7 651 -1 661 -1 c 0
 678 -1 708 -11 708 -45 c 0
 708 -68 692 -83 672 -88 c 0
 669 -89 666 -89 662 -89 c 1
 691 -126 735 -129 752 -129 c 0
 781 -129 801 -121 814 -108 c 1
 836 -85 836 -48 836 -17 c 0
 836 15 837 50 822 71 c 0
 813 84 798 92 774 92 c 0
 745 92 707 86 680 56 c 0
 675 51 674 48 665 48 c 0
 650 48 650 56 650 68 c 2
 650 258 l 2
 650 268 649 276 659 276 c 0
 661 276 662 275 668 273 c 0
 686 267 724 255 777 255 c 0
 807 255 844 259 884 273 c 0
 892 276 893 276 895 276 c 0
 903 276 904 269 904 264 c 0
 904 248 840 174 738 174 c 0
 714 174 707 176 687 179 c 1
 687 93 l 1
 720 114 757 116 777 116 c 0
 881 116 936 56 936 -19 c 0
 936 -98 867 -157 755 -157 c 0
 668 -157 614 -102 614 -47 c 0
107 -136 m 4
 107 -133 108 -129 116 -120 c 6
 851 723 l 6
 856 729 871 748 882 748 c 4
 886 748 892 744 892 736 c 4
 892 732 887 726 884 723 c 6
 148 -121 l 6
 133 -139 124 -148 116 -148 c 4
 110 -148 107 -142 107 -136 c 4
EndSplineSet
EndChar
StartChar: uF263B
Encoding: 992827 992827 62
Width: 1000
Flags: MW
LayerCount: 2
Fore
SplineSet
46 451 m 1
 46 482 l 1
 291 766 l 2
 299 776 299 776 314 776 c 0
 334 776 336 774 336 756 c 2
 336 482 l 1
 403 482 l 1
 403 451 l 1
 336 451 l 1
 336 381 l 1
 403 381 l 1
 403 381 l 1
 403 350 l 1
 379 352 318 352 290 352 c 0
 260 352 197 352 170 350 c 1
 170 381 l 1
 170 381 l 1
 248 381 l 1
 248 451 l 1
 46 451 l 1
83 482 m 1
 256 482 l 1
 256 683 l 1
 83 482 l 1
614 -47 m 0
 614 -7 651 -1 661 -1 c 0
 678 -1 708 -11 708 -45 c 0
 708 -68 692 -83 672 -88 c 0
 669 -89 666 -89 662 -89 c 1
 691 -126 735 -129 752 -129 c 0
 781 -129 801 -121 814 -108 c 1
 836 -85 836 -48 836 -17 c 0
 836 15 837 50 822 71 c 0
 813 84 798 92 774 92 c 0
 745 92 707 86 680 56 c 0
 675 51 674 48 665 48 c 0
 650 48 650 56 650 68 c 2
 650 258 l 2
 650 268 649 276 659 276 c 0
 661 276 662 275 668 273 c 0
 686 267 724 255 777 255 c 0
 807 255 844 259 884 273 c 0
 892 276 893 276 895 276 c 0
 903 276 904 269 904 264 c 0
 904 248 840 174 738 174 c 0
 714 174 707 176 687 179 c 1
 687 93 l 1
 720 114 757 116 777 116 c 0
 881 116 936 56 936 -19 c 0
 936 -98 867 -157 755 -157 c 0
 668 -157 614 -102 614 -47 c 0
107 -136 m 4
 107 -133 108 -129 116 -120 c 6
 851 723 l 6
 856 729 871 748 882 748 c 4
 886 748 892 744 892 736 c 4
 892 732 887 726 884 723 c 6
 148 -121 l 6
 133 -139 124 -148 116 -148 c 4
 110 -148 107 -142 107 -136 c 4
EndSplineSet
EndChar
StartChar: uF263C
Encoding: 992828 992828 63
Width: 1000
Flags: MW
LayerCount: 2
Fore
SplineSet
69 666 m 1
 69 697 l 1
 203 700 231 771 253 771 c 0
 268 771 267 755 267 740 c 2
 267 424 l 1
 268 404 270 393 283 386 c 0
 295 380 317 378 355 378 c 2
 374 378 l 1
 374 347 l 1
 323 347 l 1
 362 348 l 1
 284 349 l 1
 160 349 l 1
 95 347 l 1
 83 347 l 1
 83 378 l 1
 102 378 l 2
 143 378 166 379 178 387 c 0
 189 394 192 406 192 425 c 2
 192 696 l 1
 160 680 126 667 69 666 c 1
608 56 m 0
 608 220 723 276 818 276 c 0
 892 276 922 234 922 194 c 0
 922 169 905 153 878 153 c 0
 851 153 834 171 834 193 c 0
 834 213 847 231 872 234 c 1
 856 249 833 250 820 250 c 0
 777 250 739 227 722 196 c 0
 717 186 703 159 703 85 c 2
 703 72 l 1
 732 121 772 122 787 122 c 0
 872 122 942 74 942 -17 c 0
 942 -104 875 -157 778 -157 c 0
 729 -157 676 -141 643 -92 c 1
 614 -47 608 5 608 56 c 0
704 -14 m 0
 704 -26 704 -72 715 -93 c 0
 721 -103 740 -129 776 -129 c 0
 812 -129 831 -116 839 -95 c 0
 847 -75 847 -47 847 -15 c 0
 847 19 847 48 837 68 c 0
 829 87 812 98 780 98 c 0
 742 98 704 67 704 -14 c 0
107 -136 m 4
 107 -133 108 -129 116 -120 c 6
 851 723 l 6
 856 729 871 748 882 748 c 4
 886 748 892 744 892 736 c 4
 892 732 887 726 884 723 c 6
 148 -121 l 6
 133 -139 124 -148 116 -148 c 4
 110 -148 107 -142 107 -136 c 4
EndSplineSet
EndChar
StartChar: uF263D
Encoding: 992829 992829 64
Width: 1000
Flags: MW
LayerCount: 2
Fore
SplineSet
64 453 m 0
 64 493 101 499 111 499 c 0
 128 499 158 489 158 455 c 0
 158 432 142 417 122 412 c 0
 119 411 116 411 112 411 c 1
 141 374 185 371 202 371 c 0
 231 371 251 379 264 392 c 1
 286 415 286 452 286 483 c 0
 286 515 287 550 272 571 c 0
 263 584 248 592 224 592 c 0
 195 592 157 586 130 556 c 0
 125 551 124 548 115 548 c 0
 100 548 100 556 100 568 c 2
 100 758 l 2
 100 768 99 776 109 776 c 0
 111 776 112 775 118 773 c 0
 136 767 174 755 227 755 c 0
 257 755 294 759 334 773 c 0
 342 776 343 776 345 776 c 0
 353 776 354 769 354 764 c 0
 354 748 290 674 188 674 c 0
 164 674 157 676 137 679 c 1
 137 593 l 1
 170 614 207 616 227 616 c 0
 331 616 386 556 386 481 c 0
 386 402 317 343 205 343 c 0
 118 343 64 398 64 453 c 0
608 56 m 0
 608 220 723 276 818 276 c 0
 892 276 922 234 922 194 c 0
 922 169 905 153 878 153 c 0
 851 153 834 171 834 193 c 0
 834 213 847 231 872 234 c 1
 856 249 833 250 820 250 c 0
 777 250 739 227 722 196 c 0
 717 186 703 159 703 85 c 2
 703 72 l 1
 732 121 772 122 787 122 c 0
 872 122 942 74 942 -17 c 0
 942 -104 875 -157 778 -157 c 0
 729 -157 676 -141 643 -92 c 1
 614 -47 608 5 608 56 c 0
704 -14 m 0
 704 -26 704 -72 715 -93 c 0
 721 -103 740 -129 776 -129 c 0
 812 -129 831 -116 839 -95 c 0
 847 -75 847 -47 847 -15 c 0
 847 19 847 48 837 68 c 0
 829 87 812 98 780 98 c 0
 742 98 704 67 704 -14 c 0
107 -136 m 4
 107 -133 108 -129 116 -120 c 6
 851 723 l 6
 856 729 871 748 882 748 c 4
 886 748 892 744 892 736 c 4
 892 732 887 726 884 723 c 6
 148 -121 l 6
 133 -139 124 -148 116 -148 c 4
 110 -148 107 -142 107 -136 c 4
EndSplineSet
EndChar
StartChar: uF263E
Encoding: 992830 992830 65
Width: 1000
Flags: MW
LayerCount: 2
Fore
SplineSet
69 666 m 1
 69 697 l 1
 203 700 231 771 253 771 c 0
 268 771 267 755 267 740 c 2
 267 424 l 1
 268 404 270 393 283 386 c 0
 295 380 317 378 355 378 c 2
 374 378 l 1
 374 347 l 1
 323 347 l 1
 362 348 l 1
 284 349 l 1
 160 349 l 1
 95 347 l 1
 83 347 l 1
 83 378 l 1
 102 378 l 2
 143 378 166 379 178 387 c 0
 189 394 192 406 192 425 c 2
 192 696 l 1
 160 680 126 667 69 666 c 1
619 124 m 1
 643 289 l 1
 676 289 l 1
 677 283 678 277 693 274 c 1
 703 271 806 269 822 269 c 2
 965 269 l 1
 965 246 965 244 958 237 c 2
 849 120 l 2
 825 93 810 56 804 12 c 0
 799 -19 797 -50 797 -81 c 2
 797 -111 l 2
 797 -154 763 -157 752 -157 c 0
 748 -157 709 -158 709 -112 c 0
 709 -16 760 72 827 145 c 2
 865 187 l 1
 747 187 l 2
 735 187 679 187 671 183 c 0
 668 182 659 173 652 124 c 1
 619 124 l 1
107 -136 m 4
 107 -133 108 -129 116 -120 c 6
 851 723 l 6
 856 729 871 748 882 748 c 4
 886 748 892 744 892 736 c 4
 892 732 887 726 884 723 c 6
 148 -121 l 6
 133 -139 124 -148 116 -148 c 4
 110 -148 107 -142 107 -136 c 4
EndSplineSet
EndChar
StartChar: uF263F
Encoding: 992831 992831 66
Width: 1000
Flags: MW
LayerCount: 2
Fore
SplineSet
50 347 m 1
 50 393 l 2
 50 413 57 415 74 426 c 0
 227 525 302 560 302 636 c 0
 302 698 255 741 191 741 c 0
 156 741 131 731 110 717 c 1
 133 713 155 696 155 665 c 0
 155 635 131 613 103 613 c 0
 75 613 50 633 50 667 c 0
 50 684 55 700 64 713 c 0
 76 731 94 745 118 755 c 0
 144 766 175 772 210 772 c 0
 316 772 394 718 394 637 c 0
 394 542 284 514 213 478 c 1
 118 425 l 1
 245 425 l 2
 277 425 309 426 325 427 c 0
 340 428 347 430 353 446 c 0
 358 459 362 482 369 522 c 1
 394 522 l 1
 366 347 l 1
 50 347 l 1
619 124 m 1
 643 289 l 1
 676 289 l 1
 677 283 678 277 693 274 c 1
 703 271 806 269 822 269 c 2
 965 269 l 1
 965 246 965 244 958 237 c 2
 849 120 l 2
 825 93 810 56 804 12 c 0
 799 -19 797 -50 797 -81 c 2
 797 -111 l 2
 797 -154 763 -157 752 -157 c 0
 748 -157 709 -158 709 -112 c 0
 709 -16 760 72 827 145 c 2
 865 187 l 1
 747 187 l 2
 735 187 679 187 671 183 c 0
 668 182 659 173 652 124 c 1
 619 124 l 1
107 -136 m 4
 107 -133 108 -129 116 -120 c 6
 851 723 l 6
 856 729 871 748 882 748 c 4
 886 748 892 744 892 736 c 4
 892 732 887 726 884 723 c 6
 148 -121 l 6
 133 -139 124 -148 116 -148 c 4
 110 -148 107 -142 107 -136 c 4
EndSplineSet
EndChar
StartChar: uF2640
Encoding: 992832 992832 67
Width: 1000
Flags: MW
LayerCount: 2
Fore
SplineSet
41 432 m 0
 41 468 67 489 97 489 c 0
 127 489 153 466 153 433 c 0
 153 401 131 387 114 380 c 1
 123 377 152 365 209 365 c 0
 280 365 298 411 298 454 c 0
 298 530 251 548 209 548 c 2
 188 548 l 2
 177 548 167 551 167 560 c 0
 167 565 171 568 178 570 c 0
 192 574 216 573 230 579 c 0
 261 592 281 632 281 678 c 0
 281 733 245 747 214 747 c 0
 187 747 135 735 105 673 c 1
 113 674 115 675 119 675 c 0
 147 675 170 654 170 624 c 0
 170 594 148 573 120 573 c 0
 102 573 69 584 69 627 c 0
 69 641 71 656 76 670 c 0
 94 724 144 772 219 772 c 0
 299 772 373 733 373 675 c 0
 373 630 343 590 271 563 c 1
 323 554 401 520 401 456 c 0
 401 401 336 336 215 336 c 0
 70 336 41 394 41 432 c 0
619 124 m 1
 643 289 l 1
 676 289 l 1
 677 283 678 277 693 274 c 1
 703 271 806 269 822 269 c 2
 965 269 l 1
 965 246 965 244 958 237 c 2
 849 120 l 2
 825 93 810 56 804 12 c 0
 799 -19 797 -50 797 -81 c 2
 797 -111 l 2
 797 -154 763 -157 752 -157 c 0
 748 -157 709 -158 709 -112 c 0
 709 -16 760 72 827 145 c 2
 865 187 l 1
 747 187 l 2
 735 187 679 187 671 183 c 0
 668 182 659 173 652 124 c 1
 619 124 l 1
107 -136 m 4
 107 -133 108 -129 116 -120 c 6
 851 723 l 6
 856 729 871 748 882 748 c 4
 886 748 892 744 892 736 c 4
 892 732 887 726 884 723 c 6
 148 -121 l 6
 133 -139 124 -148 116 -148 c 4
 110 -148 107 -142 107 -136 c 4
EndSplineSet
EndChar
StartChar: uF2641
Encoding: 992833 992833 68
Width: 1000
Flags: MW
LayerCount: 2
Fore
SplineSet
46 451 m 1
 46 482 l 1
 291 766 l 2
 299 776 299 776 314 776 c 0
 334 776 336 774 336 756 c 2
 336 482 l 1
 403 482 l 1
 403 451 l 1
 336 451 l 1
 336 381 l 1
 403 381 l 1
 403 381 l 1
 403 350 l 1
 379 352 318 352 290 352 c 0
 260 352 197 352 170 350 c 1
 170 381 l 1
 170 381 l 1
 248 381 l 1
 248 451 l 1
 46 451 l 1
83 482 m 1
 256 482 l 1
 256 683 l 1
 83 482 l 1
619 124 m 1
 643 289 l 1
 676 289 l 1
 677 283 678 277 693 274 c 1
 703 271 806 269 822 269 c 2
 965 269 l 1
 965 246 965 244 958 237 c 2
 849 120 l 2
 825 93 810 56 804 12 c 0
 799 -19 797 -50 797 -81 c 2
 797 -111 l 2
 797 -154 763 -157 752 -157 c 0
 748 -157 709 -158 709 -112 c 0
 709 -16 760 72 827 145 c 2
 865 187 l 1
 747 187 l 2
 735 187 679 187 671 183 c 0
 668 182 659 173 652 124 c 1
 619 124 l 1
107 -136 m 4
 107 -133 108 -129 116 -120 c 6
 851 723 l 6
 856 729 871 748 882 748 c 4
 886 748 892 744 892 736 c 4
 892 732 887 726 884 723 c 6
 148 -121 l 6
 133 -139 124 -148 116 -148 c 4
 110 -148 107 -142 107 -136 c 4
EndSplineSet
EndChar
StartChar: uF2642
Encoding: 992834 992834 69
Width: 1000
Flags: MW
LayerCount: 2
Fore
SplineSet
64 453 m 0
 64 493 101 499 111 499 c 0
 128 499 158 489 158 455 c 0
 158 432 142 417 122 412 c 0
 119 411 116 411 112 411 c 1
 141 374 185 371 202 371 c 0
 231 371 251 379 264 392 c 1
 286 415 286 452 286 483 c 0
 286 515 287 550 272 571 c 0
 263 584 248 592 224 592 c 0
 195 592 157 586 130 556 c 0
 125 551 124 548 115 548 c 0
 100 548 100 556 100 568 c 2
 100 758 l 2
 100 768 99 776 109 776 c 0
 111 776 112 775 118 773 c 0
 136 767 174 755 227 755 c 0
 257 755 294 759 334 773 c 0
 342 776 343 776 345 776 c 0
 353 776 354 769 354 764 c 0
 354 748 290 674 188 674 c 0
 164 674 157 676 137 679 c 1
 137 593 l 1
 170 614 207 616 227 616 c 0
 331 616 386 556 386 481 c 0
 386 402 317 343 205 343 c 0
 118 343 64 398 64 453 c 0
619 124 m 1
 643 289 l 1
 676 289 l 1
 677 283 678 277 693 274 c 1
 703 271 806 269 822 269 c 2
 965 269 l 1
 965 246 965 244 958 237 c 2
 849 120 l 2
 825 93 810 56 804 12 c 0
 799 -19 797 -50 797 -81 c 2
 797 -111 l 2
 797 -154 763 -157 752 -157 c 0
 748 -157 709 -158 709 -112 c 0
 709 -16 760 72 827 145 c 2
 865 187 l 1
 747 187 l 2
 735 187 679 187 671 183 c 0
 668 182 659 173 652 124 c 1
 619 124 l 1
107 -136 m 4
 107 -133 108 -129 116 -120 c 6
 851 723 l 6
 856 729 871 748 882 748 c 4
 886 748 892 744 892 736 c 4
 892 732 887 726 884 723 c 6
 148 -121 l 6
 133 -139 124 -148 116 -148 c 4
 110 -148 107 -142 107 -136 c 4
EndSplineSet
EndChar
StartChar: uF2643
Encoding: 992835 992835 70
Width: 1000
Flags: MW
LayerCount: 2
Fore
SplineSet
58 556 m 0
 58 720 173 776 268 776 c 0
 342 776 372 734 372 694 c 0
 372 669 355 653 328 653 c 0
 301 653 284 671 284 693 c 0
 284 713 297 731 322 734 c 1
 306 749 283 750 270 750 c 0
 227 750 189 727 172 696 c 0
 167 686 153 659 153 585 c 2
 153 572 l 1
 182 621 222 622 237 622 c 0
 322 622 392 574 392 483 c 0
 392 396 325 343 228 343 c 0
 179 343 126 359 93 408 c 1
 64 453 58 505 58 556 c 0
154 486 m 0
 154 474 154 428 165 407 c 0
 171 397 190 371 226 371 c 0
 262 371 281 384 289 405 c 0
 297 425 297 453 297 485 c 0
 297 519 297 548 287 568 c 0
 279 587 262 598 230 598 c 0
 192 598 154 567 154 486 c 0
619 124 m 1
 643 289 l 1
 676 289 l 1
 677 283 678 277 693 274 c 1
 703 271 806 269 822 269 c 2
 965 269 l 1
 965 246 965 244 958 237 c 2
 849 120 l 2
 825 93 810 56 804 12 c 0
 799 -19 797 -50 797 -81 c 2
 797 -111 l 2
 797 -154 763 -157 752 -157 c 0
 748 -157 709 -158 709 -112 c 0
 709 -16 760 72 827 145 c 2
 865 187 l 1
 747 187 l 2
 735 187 679 187 671 183 c 0
 668 182 659 173 652 124 c 1
 619 124 l 1
107 -136 m 4
 107 -133 108 -129 116 -120 c 6
 851 723 l 6
 856 729 871 748 882 748 c 4
 886 748 892 744 892 736 c 4
 892 732 887 726 884 723 c 6
 148 -121 l 6
 133 -139 124 -148 116 -148 c 4
 110 -148 107 -142 107 -136 c 4
EndSplineSet
EndChar
StartChar: uF2645
Encoding: 992837 992837 72
Width: 1000
Flags: MW
LayerCount: 2
Fore
SplineSet
41 432 m 0
 41 468 67 489 97 489 c 0
 127 489 153 466 153 433 c 0
 153 401 131 387 114 380 c 1
 123 377 152 365 209 365 c 0
 280 365 298 411 298 454 c 0
 298 530 251 548 209 548 c 2
 188 548 l 2
 177 548 167 551 167 560 c 0
 167 565 171 568 178 570 c 0
 192 574 216 573 230 579 c 0
 261 592 281 632 281 678 c 0
 281 733 245 747 214 747 c 0
 187 747 135 735 105 673 c 1
 113 674 115 675 119 675 c 0
 147 675 170 654 170 624 c 0
 170 594 148 573 120 573 c 0
 102 573 69 584 69 627 c 0
 69 641 71 656 76 670 c 0
 94 724 144 772 219 772 c 0
 299 772 373 733 373 675 c 0
 373 630 343 590 271 563 c 1
 323 554 401 520 401 456 c 0
 401 401 336 336 215 336 c 0
 70 336 41 394 41 432 c 0
608 -45 m 0
 608 3 638 40 697 64 c 1
 679 73 667 83 657 94 c 0
 636 117 630 142 630 162 c 0
 630 224 679 276 776 276 c 0
 856 276 920 246 920 180 c 0
 920 142 898 113 849 90 c 1
 865 82 887 71 905 54 c 0
 926 35 942 10 942 -28 c 0
 942 -100 886 -157 774 -157 c 0
 684 -157 608 -124 608 -45 c 0
668 -45 m 0
 668 -96 707 -129 776 -129 c 0
 816 -129 882 -119 882 -64 c 0
 882 -33 856 -19 825 -3 c 0
 787 17 753 34 729 46 c 1
 705 33 668 6 668 -45 c 0
682 200 m 0
 682 178 702 167 713 161 c 2
 818 107 l 1
 849 126 867 148 867 180 c 0
 867 224 833 250 774 250 c 0
 746 250 682 246 682 200 c 0
107 -136 m 4
 107 -133 108 -129 116 -120 c 6
 851 723 l 6
 856 729 871 748 882 748 c 4
 886 748 892 744 892 736 c 4
 892 732 887 726 884 723 c 6
 148 -121 l 6
 133 -139 124 -148 116 -148 c 4
 110 -148 107 -142 107 -136 c 4
EndSplineSet
EndChar
StartChar: uF2647
Encoding: 992839 992839 74
Width: 1000
Flags: MW
LayerCount: 2
Fore
SplineSet
69 624 m 1
 93 789 l 1
 126 789 l 1
 127 783 128 777 143 774 c 1
 153 771 256 769 272 769 c 2
 415 769 l 1
 415 746 415 744 408 737 c 2
 299 620 l 2
 275 593 260 556 254 512 c 0
 249 481 247 450 247 419 c 2
 247 389 l 2
 247 346 213 343 202 343 c 0
 198 343 159 342 159 388 c 0
 159 484 210 572 277 645 c 2
 315 687 l 1
 197 687 l 2
 185 687 129 687 121 683 c 0
 118 682 109 673 102 624 c 1
 69 624 l 1
608 -45 m 0
 608 3 638 40 697 64 c 1
 679 73 667 83 657 94 c 0
 636 117 630 142 630 162 c 0
 630 224 679 276 776 276 c 0
 856 276 920 246 920 180 c 0
 920 142 898 113 849 90 c 1
 865 82 887 71 905 54 c 0
 926 35 942 10 942 -28 c 0
 942 -100 886 -157 774 -157 c 0
 684 -157 608 -124 608 -45 c 0
668 -45 m 0
 668 -96 707 -129 776 -129 c 0
 816 -129 882 -119 882 -64 c 0
 882 -33 856 -19 825 -3 c 0
 787 17 753 34 729 46 c 1
 705 33 668 6 668 -45 c 0
682 200 m 0
 682 178 702 167 713 161 c 2
 818 107 l 1
 849 126 867 148 867 180 c 0
 867 224 833 250 774 250 c 0
 746 250 682 246 682 200 c 0
107 -136 m 4
 107 -133 108 -129 116 -120 c 6
 851 723 l 6
 856 729 871 748 882 748 c 4
 886 748 892 744 892 736 c 4
 892 732 887 726 884 723 c 6
 148 -121 l 6
 133 -139 124 -148 116 -148 c 4
 110 -148 107 -142 107 -136 c 4
EndSplineSet
EndChar
StartChar: uF2648
Encoding: 992840 992840 75
Width: 1000
Flags: MW
LayerCount: 2
Fore
SplineSet
69 666 m 1
 69 697 l 1
 203 700 231 771 253 771 c 0
 268 771 267 755 267 740 c 2
 267 424 l 1
 268 404 270 393 283 386 c 0
 295 380 317 378 355 378 c 2
 374 378 l 1
 374 347 l 1
 323 347 l 1
 362 348 l 1
 284 349 l 1
 160 349 l 1
 95 347 l 1
 83 347 l 1
 83 378 l 1
 102 378 l 2
 143 378 166 379 178 387 c 0
 189 394 192 406 192 425 c 2
 192 696 l 1
 160 680 126 667 69 666 c 1
608 136 m 0
 608 182 627 219 659 243 c 1
 688 264 729 276 776 276 c 0
 942 276 942 108 942 64 c 0
 942 -102 832 -157 741 -157 c 0
 663 -157 628 -120 628 -76 c 0
 628 -51 645 -34 672 -34 c 0
 699 -34 715 -53 715 -75 c 0
 715 -104 689 -113 681 -115 c 1
 702 -128 727 -129 740 -129 c 0
 788 -129 818 -100 830 -75 c 0
 840 -53 847 -14 847 33 c 2
 847 48 l 1
 820 2 787 -2 763 -2 c 0
 677 -2 608 46 608 136 c 0
703 135 m 0
 703 100 703 70 713 49 c 0
 722 31 738 21 769 21 c 0
 828 21 846 87 846 128 c 0
 846 150 846 188 838 209 c 0
 835 215 819 250 778 250 c 0
 744 250 725 240 715 222 c 0
 703 201 703 169 703 135 c 0
107 -136 m 4
 107 -133 108 -129 116 -120 c 6
 851 723 l 6
 856 729 871 748 882 748 c 4
 886 748 892 744 892 736 c 4
 892 732 887 726 884 723 c 6
 148 -121 l 6
 133 -139 124 -148 116 -148 c 4
 110 -148 107 -142 107 -136 c 4
EndSplineSet
EndChar
StartChar: uF2649
Encoding: 992841 992841 76
Width: 1000
Flags: MW
LayerCount: 2
Fore
SplineSet
50 347 m 1
 50 393 l 2
 50 413 57 415 74 426 c 0
 227 525 302 560 302 636 c 0
 302 698 255 741 191 741 c 0
 156 741 131 731 110 717 c 1
 133 713 155 696 155 665 c 0
 155 635 131 613 103 613 c 0
 75 613 50 633 50 667 c 0
 50 684 55 700 64 713 c 0
 76 731 94 745 118 755 c 0
 144 766 175 772 210 772 c 0
 316 772 394 718 394 637 c 0
 394 542 284 514 213 478 c 1
 118 425 l 1
 245 425 l 2
 277 425 309 426 325 427 c 0
 340 428 347 430 353 446 c 0
 358 459 362 482 369 522 c 1
 394 522 l 1
 366 347 l 1
 50 347 l 1
608 136 m 0
 608 182 627 219 659 243 c 1
 688 264 729 276 776 276 c 0
 942 276 942 108 942 64 c 0
 942 -102 832 -157 741 -157 c 0
 663 -157 628 -120 628 -76 c 0
 628 -51 645 -34 672 -34 c 0
 699 -34 715 -53 715 -75 c 0
 715 -104 689 -113 681 -115 c 1
 702 -128 727 -129 740 -129 c 0
 788 -129 818 -100 830 -75 c 0
 840 -53 847 -14 847 33 c 2
 847 48 l 1
 820 2 787 -2 763 -2 c 0
 677 -2 608 46 608 136 c 0
703 135 m 0
 703 100 703 70 713 49 c 0
 722 31 738 21 769 21 c 0
 828 21 846 87 846 128 c 0
 846 150 846 188 838 209 c 0
 835 215 819 250 778 250 c 0
 744 250 725 240 715 222 c 0
 703 201 703 169 703 135 c 0
107 -136 m 4
 107 -133 108 -129 116 -120 c 6
 851 723 l 6
 856 729 871 748 882 748 c 4
 886 748 892 744 892 736 c 4
 892 732 887 726 884 723 c 6
 148 -121 l 6
 133 -139 124 -148 116 -148 c 4
 110 -148 107 -142 107 -136 c 4
EndSplineSet
EndChar
StartChar: uF264A
Encoding: 992842 992842 77
Width: 1000
Flags: MW
LayerCount: 2
Fore
SplineSet
46 451 m 1
 46 482 l 1
 291 766 l 2
 299 776 299 776 314 776 c 0
 334 776 336 774 336 756 c 2
 336 482 l 1
 403 482 l 1
 403 451 l 1
 336 451 l 1
 336 381 l 1
 403 381 l 1
 403 381 l 1
 403 350 l 1
 379 352 318 352 290 352 c 0
 260 352 197 352 170 350 c 1
 170 381 l 1
 170 381 l 1
 248 381 l 1
 248 451 l 1
 46 451 l 1
83 482 m 1
 256 482 l 1
 256 683 l 1
 83 482 l 1
608 136 m 0
 608 182 627 219 659 243 c 1
 688 264 729 276 776 276 c 0
 942 276 942 108 942 64 c 0
 942 -102 832 -157 741 -157 c 0
 663 -157 628 -120 628 -76 c 0
 628 -51 645 -34 672 -34 c 0
 699 -34 715 -53 715 -75 c 0
 715 -104 689 -113 681 -115 c 1
 702 -128 727 -129 740 -129 c 0
 788 -129 818 -100 830 -75 c 0
 840 -53 847 -14 847 33 c 2
 847 48 l 1
 820 2 787 -2 763 -2 c 0
 677 -2 608 46 608 136 c 0
703 135 m 0
 703 100 703 70 713 49 c 0
 722 31 738 21 769 21 c 0
 828 21 846 87 846 128 c 0
 846 150 846 188 838 209 c 0
 835 215 819 250 778 250 c 0
 744 250 725 240 715 222 c 0
 703 201 703 169 703 135 c 0
107 -136 m 4
 107 -133 108 -129 116 -120 c 6
 851 723 l 6
 856 729 871 748 882 748 c 4
 886 748 892 744 892 736 c 4
 892 732 887 726 884 723 c 6
 148 -121 l 6
 133 -139 124 -148 116 -148 c 4
 110 -148 107 -142 107 -136 c 4
EndSplineSet
EndChar
StartChar: uF264B
Encoding: 992843 992843 78
Width: 1000
Flags: MW
LayerCount: 2
Fore
SplineSet
64 453 m 0
 64 493 101 499 111 499 c 0
 128 499 158 489 158 455 c 0
 158 432 142 417 122 412 c 0
 119 411 116 411 112 411 c 1
 141 374 185 371 202 371 c 0
 231 371 251 379 264 392 c 1
 286 415 286 452 286 483 c 0
 286 515 287 550 272 571 c 0
 263 584 248 592 224 592 c 0
 195 592 157 586 130 556 c 0
 125 551 124 548 115 548 c 0
 100 548 100 556 100 568 c 2
 100 758 l 2
 100 768 99 776 109 776 c 0
 111 776 112 775 118 773 c 0
 136 767 174 755 227 755 c 0
 257 755 294 759 334 773 c 0
 342 776 343 776 345 776 c 0
 353 776 354 769 354 764 c 0
 354 748 290 674 188 674 c 0
 164 674 157 676 137 679 c 1
 137 593 l 1
 170 614 207 616 227 616 c 0
 331 616 386 556 386 481 c 0
 386 402 317 343 205 343 c 0
 118 343 64 398 64 453 c 0
608 136 m 0
 608 182 627 219 659 243 c 1
 688 264 729 276 776 276 c 0
 942 276 942 108 942 64 c 0
 942 -102 832 -157 741 -157 c 0
 663 -157 628 -120 628 -76 c 0
 628 -51 645 -34 672 -34 c 0
 699 -34 715 -53 715 -75 c 0
 715 -104 689 -113 681 -115 c 1
 702 -128 727 -129 740 -129 c 0
 788 -129 818 -100 830 -75 c 0
 840 -53 847 -14 847 33 c 2
 847 48 l 1
 820 2 787 -2 763 -2 c 0
 677 -2 608 46 608 136 c 0
703 135 m 0
 703 100 703 70 713 49 c 0
 722 31 738 21 769 21 c 0
 828 21 846 87 846 128 c 0
 846 150 846 188 838 209 c 0
 835 215 819 250 778 250 c 0
 744 250 725 240 715 222 c 0
 703 201 703 169 703 135 c 0
107 -136 m 4
 107 -133 108 -129 116 -120 c 6
 851 723 l 6
 856 729 871 748 882 748 c 4
 886 748 892 744 892 736 c 4
 892 732 887 726 884 723 c 6
 148 -121 l 6
 133 -139 124 -148 116 -148 c 4
 110 -148 107 -142 107 -136 c 4
EndSplineSet
EndChar
StartChar: uF264C
Encoding: 992844 992844 79
Width: 1000
Flags: MW
LayerCount: 2
Fore
SplineSet
69 624 m 1
 93 789 l 1
 126 789 l 1
 127 783 128 777 143 774 c 1
 153 771 256 769 272 769 c 2
 415 769 l 1
 415 746 415 744 408 737 c 2
 299 620 l 2
 275 593 260 556 254 512 c 0
 249 481 247 450 247 419 c 2
 247 389 l 2
 247 346 213 343 202 343 c 0
 198 343 159 342 159 388 c 0
 159 484 210 572 277 645 c 2
 315 687 l 1
 197 687 l 2
 185 687 129 687 121 683 c 0
 118 682 109 673 102 624 c 1
 69 624 l 1
608 136 m 0
 608 182 627 219 659 243 c 1
 688 264 729 276 776 276 c 0
 942 276 942 108 942 64 c 0
 942 -102 832 -157 741 -157 c 0
 663 -157 628 -120 628 -76 c 0
 628 -51 645 -34 672 -34 c 0
 699 -34 715 -53 715 -75 c 0
 715 -104 689 -113 681 -115 c 1
 702 -128 727 -129 740 -129 c 0
 788 -129 818 -100 830 -75 c 0
 840 -53 847 -14 847 33 c 2
 847 48 l 1
 820 2 787 -2 763 -2 c 0
 677 -2 608 46 608 136 c 0
703 135 m 0
 703 100 703 70 713 49 c 0
 722 31 738 21 769 21 c 0
 828 21 846 87 846 128 c 0
 846 150 846 188 838 209 c 0
 835 215 819 250 778 250 c 0
 744 250 725 240 715 222 c 0
 703 201 703 169 703 135 c 0
107 -136 m 4
 107 -133 108 -129 116 -120 c 6
 851 723 l 6
 856 729 871 748 882 748 c 4
 886 748 892 744 892 736 c 4
 892 732 887 726 884 723 c 6
 148 -121 l 6
 133 -139 124 -148 116 -148 c 4
 110 -148 107 -142 107 -136 c 4
EndSplineSet
EndChar
StartChar: uF264D
Encoding: 992845 992845 80
Width: 1000
Flags: MW
LayerCount: 2
Fore
SplineSet
58 455 m 0
 58 503 88 540 147 564 c 1
 129 573 117 583 107 594 c 0
 86 617 80 642 80 662 c 0
 80 724 129 776 226 776 c 0
 306 776 370 746 370 680 c 0
 370 642 348 613 299 590 c 1
 315 582 337 571 355 554 c 0
 376 535 392 510 392 472 c 0
 392 400 336 343 224 343 c 0
 134 343 58 376 58 455 c 0
118 455 m 0
 118 404 157 371 226 371 c 0
 266 371 332 381 332 436 c 0
 332 467 306 481 275 497 c 0
 237 517 203 534 179 546 c 1
 155 533 118 506 118 455 c 0
132 700 m 0
 132 678 152 667 163 661 c 2
 268 607 l 1
 299 626 317 648 317 680 c 0
 317 724 283 750 224 750 c 0
 196 750 132 746 132 700 c 0
608 136 m 0
 608 182 627 219 659 243 c 1
 688 264 729 276 776 276 c 0
 942 276 942 108 942 64 c 0
 942 -102 832 -157 741 -157 c 0
 663 -157 628 -120 628 -76 c 0
 628 -51 645 -34 672 -34 c 0
 699 -34 715 -53 715 -75 c 0
 715 -104 689 -113 681 -115 c 1
 702 -128 727 -129 740 -129 c 0
 788 -129 818 -100 830 -75 c 0
 840 -53 847 -14 847 33 c 2
 847 48 l 1
 820 2 787 -2 763 -2 c 0
 677 -2 608 46 608 136 c 0
703 135 m 0
 703 100 703 70 713 49 c 0
 722 31 738 21 769 21 c 0
 828 21 846 87 846 128 c 0
 846 150 846 188 838 209 c 0
 835 215 819 250 778 250 c 0
 744 250 725 240 715 222 c 0
 703 201 703 169 703 135 c 0
107 -136 m 4
 107 -133 108 -129 116 -120 c 6
 851 723 l 6
 856 729 871 748 882 748 c 4
 886 748 892 744 892 736 c 4
 892 732 887 726 884 723 c 6
 148 -121 l 6
 133 -139 124 -148 116 -148 c 4
 110 -148 107 -142 107 -136 c 4
EndSplineSet
EndChar
StartChar: uF264E
Encoding: 992846 992846 81
Width: 1000
Flags: MW
LayerCount: 2
Fore
SplineSet
107 -136 m 0
 107 -133 108 -129 116 -120 c 2
 851 723 l 2
 856 729 871 748 882 748 c 0
 886 748 892 744 892 736 c 0
 892 732 887 726 884 723 c 2
 148 -121 l 2
 133 -139 124 -148 116 -148 c 0
 110 -148 107 -142 107 -136 c 0
810 65 m 0
 810 29 811 -38 813 -72 c 0
 817 -119 833 -134 843 -134 c 0
 852 -134 871 -124 875 -64 c 0
 877 -30 877 29 877 65 c 0
 877 118 877 187 872 211 c 0
 867 240 854 252 843 252 c 0
 836 252 816 246 813 188 c 0
 811 154 810 112 810 65 c 0
743 57 m 0
 743 98 743 177 770 228 c 0
 785 256 807 276 843 276 c 0
 875 276 897 260 912 237 c 0
 945 187 944 100 944 57 c 0
 944 13 944 -67 914 -116 c 0
 899 -141 876 -157 843 -157 c 0
 810 -157 788 -141 773 -116 c 0
 743 -67 743 14 743 57 c 0
542 166 m 1
 542 197 l 1
 622 200 639 271 657 271 c 0
 669 271 669 255 669 240 c 2
 669 -76 l 1
 670 -96 671 -107 682 -114 c 0
 692 -120 690 -122 713 -122 c 2
 724 -122 l 1
 724 -153 l 1
 694 -153 l 1
 717 -152 l 1
 670 -151 l 1
 597 -151 l 1
 558 -153 l 1
 551 -153 l 1
 551 -122 l 1
 562 -122 l 2
 586 -122 585 -121 595 -113 c 0
 604 -106 606 -94 606 -75 c 2
 606 186 l 1
 579 170 576 167 542 166 c 1
69 666 m 1
 69 697 l 1
 203 700 231 771 253 771 c 0
 268 771 267 755 267 740 c 2
 267 424 l 1
 268 404 270 393 283 386 c 0
 295 380 317 378 355 378 c 2
 374 378 l 1
 374 347 l 1
 323 347 l 1
 362 348 l 1
 284 349 l 1
 160 349 l 1
 95 347 l 1
 83 347 l 1
 83 378 l 1
 102 378 l 2
 143 378 166 379 178 387 c 0
 189 394 192 406 192 425 c 2
 192 696 l 1
 160 680 126 667 69 666 c 1
EndSplineSet
EndChar
StartChar: uF264F
Encoding: 992847 992847 82
Width: 1000
Flags: MW
LayerCount: 2
Fore
SplineSet
107 -136 m 0
 107 -133 108 -129 116 -120 c 2
 851 723 l 2
 856 729 871 748 882 748 c 0
 886 748 892 744 892 736 c 0
 892 732 887 726 884 723 c 2
 148 -121 l 2
 133 -139 124 -148 116 -148 c 0
 110 -148 107 -142 107 -136 c 0
810 65 m 0
 810 29 811 -38 813 -72 c 0
 817 -119 833 -134 843 -134 c 0
 852 -134 871 -124 875 -64 c 0
 877 -30 877 29 877 65 c 0
 877 118 877 187 872 211 c 0
 867 240 854 252 843 252 c 0
 836 252 816 246 813 188 c 0
 811 154 810 112 810 65 c 0
743 57 m 0
 743 98 743 177 770 228 c 0
 785 256 807 276 843 276 c 0
 875 276 897 260 912 237 c 0
 945 187 944 100 944 57 c 0
 944 13 944 -67 914 -116 c 0
 899 -141 876 -157 843 -157 c 0
 810 -157 788 -141 773 -116 c 0
 743 -67 743 14 743 57 c 0
542 166 m 1
 542 197 l 1
 622 200 639 271 657 271 c 0
 669 271 669 255 669 240 c 2
 669 -76 l 1
 670 -96 671 -107 682 -114 c 0
 692 -120 690 -122 713 -122 c 2
 724 -122 l 1
 724 -153 l 1
 694 -153 l 1
 717 -152 l 1
 670 -151 l 1
 597 -151 l 1
 558 -153 l 1
 551 -153 l 1
 551 -122 l 1
 562 -122 l 2
 586 -122 585 -121 595 -113 c 0
 604 -106 606 -94 606 -75 c 2
 606 186 l 1
 579 170 576 167 542 166 c 1
41 432 m 0
 41 468 67 489 97 489 c 0
 127 489 153 466 153 433 c 0
 153 401 131 387 114 380 c 1
 123 377 152 365 209 365 c 0
 280 365 298 411 298 454 c 0
 298 530 251 548 209 548 c 2
 188 548 l 2
 177 548 167 551 167 560 c 0
 167 565 171 568 178 570 c 0
 192 574 216 573 230 579 c 0
 261 592 281 632 281 678 c 0
 281 733 245 747 214 747 c 0
 187 747 135 735 105 673 c 1
 113 674 115 675 119 675 c 0
 147 675 170 654 170 624 c 0
 170 594 148 573 120 573 c 0
 102 573 69 584 69 627 c 0
 69 641 71 656 76 670 c 0
 94 724 144 772 219 772 c 0
 299 772 373 733 373 675 c 0
 373 630 343 590 271 563 c 1
 323 554 401 520 401 456 c 0
 401 401 336 336 215 336 c 0
 70 336 41 394 41 432 c 0
EndSplineSet
EndChar
StartChar: uF2650
Encoding: 992848 992848 83
Width: 1000
Flags: MW
LayerCount: 2
Fore
SplineSet
107 -136 m 0
 107 -133 108 -129 116 -120 c 2
 851 723 l 2
 856 729 871 748 882 748 c 0
 886 748 892 744 892 736 c 0
 892 732 887 726 884 723 c 2
 148 -121 l 2
 133 -139 124 -148 116 -148 c 0
 110 -148 107 -142 107 -136 c 0
810 65 m 0
 810 29 811 -38 813 -72 c 0
 817 -119 833 -134 843 -134 c 0
 852 -134 871 -124 875 -64 c 0
 877 -30 877 29 877 65 c 0
 877 118 877 187 872 211 c 0
 867 240 854 252 843 252 c 0
 836 252 816 246 813 188 c 0
 811 154 810 112 810 65 c 0
743 57 m 0
 743 98 743 177 770 228 c 0
 785 256 807 276 843 276 c 0
 875 276 897 260 912 237 c 0
 945 187 944 100 944 57 c 0
 944 13 944 -67 914 -116 c 0
 899 -141 876 -157 843 -157 c 0
 810 -157 788 -141 773 -116 c 0
 743 -67 743 14 743 57 c 0
542 166 m 1
 542 197 l 1
 622 200 639 271 657 271 c 0
 669 271 669 255 669 240 c 2
 669 -76 l 1
 670 -96 671 -107 682 -114 c 0
 692 -120 690 -122 713 -122 c 2
 724 -122 l 1
 724 -153 l 1
 694 -153 l 1
 717 -152 l 1
 670 -151 l 1
 597 -151 l 1
 558 -153 l 1
 551 -153 l 1
 551 -122 l 1
 562 -122 l 2
 586 -122 585 -121 595 -113 c 0
 604 -106 606 -94 606 -75 c 2
 606 186 l 1
 579 170 576 167 542 166 c 1
69 624 m 1
 93 789 l 1
 126 789 l 1
 127 783 128 777 143 774 c 1
 153 771 256 769 272 769 c 2
 415 769 l 1
 415 746 415 744 408 737 c 2
 299 620 l 2
 275 593 260 556 254 512 c 0
 249 481 247 450 247 419 c 2
 247 389 l 2
 247 346 213 343 202 343 c 0
 198 343 159 342 159 388 c 0
 159 484 210 572 277 645 c 2
 315 687 l 1
 197 687 l 2
 185 687 129 687 121 683 c 0
 118 682 109 673 102 624 c 1
 69 624 l 1
EndSplineSet
EndChar
StartChar: uF2651
Encoding: 992849 992849 84
Width: 1000
Flags: MW
LayerCount: 2
Fore
SplineSet
107 -136 m 0
 107 -133 108 -129 116 -120 c 2
 851 723 l 2
 856 729 871 748 882 748 c 0
 886 748 892 744 892 736 c 0
 892 732 887 726 884 723 c 2
 148 -121 l 2
 133 -139 124 -148 116 -148 c 0
 110 -148 107 -142 107 -136 c 0
810 65 m 0
 810 29 811 -38 813 -72 c 0
 817 -119 833 -134 843 -134 c 0
 852 -134 871 -124 875 -64 c 0
 877 -30 877 29 877 65 c 0
 877 118 877 187 872 211 c 0
 867 240 854 252 843 252 c 0
 836 252 816 246 813 188 c 0
 811 154 810 112 810 65 c 0
743 57 m 0
 743 98 743 177 770 228 c 0
 785 256 807 276 843 276 c 0
 875 276 897 260 912 237 c 0
 945 187 944 100 944 57 c 0
 944 13 944 -67 914 -116 c 0
 899 -141 876 -157 843 -157 c 0
 810 -157 788 -141 773 -116 c 0
 743 -67 743 14 743 57 c 0
542 166 m 1
 542 197 l 1
 622 200 639 271 657 271 c 0
 669 271 669 255 669 240 c 2
 669 -76 l 1
 670 -96 671 -107 682 -114 c 0
 692 -120 690 -122 713 -122 c 2
 724 -122 l 1
 724 -153 l 1
 694 -153 l 1
 717 -152 l 1
 670 -151 l 1
 597 -151 l 1
 558 -153 l 1
 551 -153 l 1
 551 -122 l 1
 562 -122 l 2
 586 -122 585 -121 595 -113 c 0
 604 -106 606 -94 606 -75 c 2
 606 186 l 1
 579 170 576 167 542 166 c 1
153 635 m 0
 153 600 153 570 163 549 c 0
 172 531 188 521 219 521 c 0
 278 521 296 587 296 628 c 0
 296 650 296 688 288 709 c 0
 285 715 269 750 228 750 c 0
 194 750 175 740 165 722 c 0
 153 701 153 669 153 635 c 0
58 636 m 0
 58 682 77 719 109 743 c 1
 138 764 179 776 226 776 c 0
 392 776 392 608 392 564 c 0
 392 398 282 343 191 343 c 0
 113 343 78 380 78 424 c 0
 78 449 95 466 122 466 c 0
 149 466 165 447 165 425 c 0
 165 396 139 387 131 385 c 1
 152 372 177 371 190 371 c 0
 238 371 268 400 280 425 c 0
 290 447 297 486 297 533 c 2
 297 548 l 1
 270 502 237 498 213 498 c 0
 127 498 58 546 58 636 c 0
EndSplineSet
EndChar
StartChar: uF2653
Encoding: 992851 992851 86
Width: 1000
Flags: MW
LayerCount: 2
Fore
SplineSet
50 347 m 1
 50 393 l 2
 50 413 57 415 74 426 c 0
 227 525 302 560 302 636 c 0
 302 698 255 741 191 741 c 0
 156 741 131 731 110 717 c 1
 133 713 155 696 155 665 c 0
 155 635 131 613 103 613 c 0
 75 613 50 633 50 667 c 0
 50 684 55 700 64 713 c 0
 76 731 94 745 118 755 c 0
 144 766 175 772 210 772 c 0
 316 772 394 718 394 637 c 0
 394 542 284 514 213 478 c 1
 118 425 l 1
 245 425 l 2
 277 425 309 426 325 427 c 0
 340 428 347 430 353 446 c 0
 358 459 362 482 369 522 c 1
 394 522 l 1
 366 347 l 1
 50 347 l 1
545 166 m 5
 545 197 l 5
 625 200 642 271 660 271 c 4
 672 271 672 255 672 240 c 6
 672 -76 l 5
 673 -96 674 -107 685 -114 c 4
 695 -120 692 -122 715 -122 c 6
 727 -122 l 5
 727 -153 l 5
 696 -153 l 5
 720 -152 l 5
 673 -151 l 5
 599 -151 l 5
 561 -153 l 5
 554 -153 l 5
 554 -122 l 5
 565 -122 l 6
 589 -122 588 -121 598 -113 c 4
 607 -106 609 -94 609 -75 c 6
 609 186 l 5
 582 170 579 167 545 166 c 5
753 166 m 5
 753 197 l 5
 833 200 850 271 868 271 c 4
 880 271 880 255 880 240 c 6
 880 -76 l 5
 881 -96 882 -107 893 -114 c 4
 903 -120 901 -122 924 -122 c 6
 935 -122 l 5
 935 -153 l 5
 905 -153 l 5
 928 -152 l 5
 881 -151 l 5
 808 -151 l 5
 769 -153 l 5
 762 -153 l 5
 762 -122 l 5
 773 -122 l 6
 797 -122 796 -121 806 -113 c 4
 815 -106 817 -94 817 -75 c 6
 817 186 l 5
 790 170 787 167 753 166 c 5
107 -136 m 4
 107 -133 108 -129 116 -120 c 6
 851 723 l 6
 856 729 871 748 882 748 c 4
 886 748 892 744 892 736 c 4
 892 732 887 726 884 723 c 6
 148 -121 l 6
 133 -139 124 -148 116 -148 c 4
 110 -148 107 -142 107 -136 c 4
EndSplineSet
EndChar
StartChar: uF2654
Encoding: 992852 992852 87
Width: 1000
Flags: MW
LayerCount: 2
Fore
SplineSet
107 -136 m 0
 107 -133 108 -129 116 -120 c 2
 851 723 l 2
 856 729 871 748 882 748 c 0
 886 748 892 744 892 736 c 0
 892 732 887 726 884 723 c 2
 148 -121 l 2
 133 -139 124 -148 116 -148 c 0
 110 -148 107 -142 107 -136 c 0
753 166 m 1
 753 197 l 1
 833 200 850 271 868 271 c 0
 880 271 880 255 880 240 c 2
 880 -76 l 1
 881 -96 882 -107 893 -114 c 0
 903 -120 901 -122 924 -122 c 2
 935 -122 l 1
 935 -153 l 1
 905 -153 l 1
 928 -152 l 1
 881 -151 l 1
 808 -151 l 1
 769 -153 l 1
 762 -153 l 1
 762 -122 l 1
 773 -122 l 2
 797 -122 796 -121 806 -113 c 0
 815 -106 817 -94 817 -75 c 2
 817 186 l 1
 790 170 787 167 753 166 c 1
545 166 m 1
 545 197 l 1
 625 200 642 271 660 271 c 0
 672 271 672 255 672 240 c 2
 672 -76 l 1
 673 -96 674 -107 685 -114 c 0
 695 -120 692 -122 715 -122 c 2
 727 -122 l 1
 727 -153 l 1
 696 -153 l 1
 720 -152 l 1
 673 -151 l 1
 599 -151 l 1
 561 -153 l 1
 554 -153 l 1
 554 -122 l 1
 565 -122 l 2
 589 -122 588 -121 598 -113 c 0
 607 -106 609 -94 609 -75 c 2
 609 186 l 1
 582 170 579 167 545 166 c 1
41 432 m 0
 41 468 67 489 97 489 c 0
 127 489 153 466 153 433 c 0
 153 401 131 387 114 380 c 1
 123 377 152 365 209 365 c 0
 280 365 298 411 298 454 c 0
 298 530 251 548 209 548 c 2
 188 548 l 2
 177 548 167 551 167 560 c 0
 167 565 171 568 178 570 c 0
 192 574 216 573 230 579 c 0
 261 592 281 632 281 678 c 0
 281 733 245 747 214 747 c 0
 187 747 135 735 105 673 c 1
 113 674 115 675 119 675 c 0
 147 675 170 654 170 624 c 0
 170 594 148 573 120 573 c 0
 102 573 69 584 69 627 c 0
 69 641 71 656 76 670 c 0
 94 724 144 772 219 772 c 0
 299 772 373 733 373 675 c 0
 373 630 343 590 271 563 c 1
 323 554 401 520 401 456 c 0
 401 401 336 336 215 336 c 0
 70 336 41 394 41 432 c 0
EndSplineSet
EndChar
StartChar: uF2655
Encoding: 992853 992853 88
Width: 1000
Flags: MW
LayerCount: 2
Fore
SplineSet
107 -136 m 0
 107 -133 108 -129 116 -120 c 2
 851 723 l 2
 856 729 871 748 882 748 c 0
 886 748 892 744 892 736 c 0
 892 732 887 726 884 723 c 2
 148 -121 l 2
 133 -139 124 -148 116 -148 c 0
 110 -148 107 -142 107 -136 c 0
753 166 m 1
 753 197 l 1
 833 200 850 271 868 271 c 0
 880 271 880 255 880 240 c 2
 880 -76 l 1
 881 -96 882 -107 893 -114 c 0
 903 -120 901 -122 924 -122 c 2
 935 -122 l 1
 935 -153 l 1
 905 -153 l 1
 928 -152 l 1
 881 -151 l 1
 808 -151 l 1
 769 -153 l 1
 762 -153 l 1
 762 -122 l 1
 773 -122 l 2
 797 -122 796 -121 806 -113 c 0
 815 -106 817 -94 817 -75 c 2
 817 186 l 1
 790 170 787 167 753 166 c 1
545 166 m 1
 545 197 l 1
 625 200 642 271 660 271 c 0
 672 271 672 255 672 240 c 2
 672 -76 l 1
 673 -96 674 -107 685 -114 c 0
 695 -120 692 -122 715 -122 c 2
 727 -122 l 1
 727 -153 l 1
 696 -153 l 1
 720 -152 l 1
 673 -151 l 1
 599 -151 l 1
 561 -153 l 1
 554 -153 l 1
 554 -122 l 1
 565 -122 l 2
 589 -122 588 -121 598 -113 c 0
 607 -106 609 -94 609 -75 c 2
 609 186 l 1
 582 170 579 167 545 166 c 1
83 482 m 1
 256 482 l 1
 256 683 l 1
 83 482 l 1
46 451 m 1
 46 482 l 1
 291 766 l 2
 299 776 299 776 314 776 c 0
 334 776 336 774 336 756 c 2
 336 482 l 1
 403 482 l 1
 403 451 l 1
 336 451 l 1
 336 381 l 1
 403 381 l 1
 403 381 l 1
 403 350 l 1
 379 352 318 352 290 352 c 0
 260 352 197 352 170 350 c 1
 170 381 l 1
 170 381 l 1
 248 381 l 1
 248 451 l 1
 46 451 l 1
EndSplineSet
EndChar
StartChar: uF2656
Encoding: 992854 992854 89
Width: 1000
Flags: MW
LayerCount: 2
Fore
SplineSet
107 -136 m 0
 107 -133 108 -129 116 -120 c 2
 851 723 l 2
 856 729 871 748 882 748 c 0
 886 748 892 744 892 736 c 0
 892 732 887 726 884 723 c 2
 148 -121 l 2
 133 -139 124 -148 116 -148 c 0
 110 -148 107 -142 107 -136 c 0
753 166 m 1
 753 197 l 1
 833 200 850 271 868 271 c 0
 880 271 880 255 880 240 c 2
 880 -76 l 1
 881 -96 882 -107 893 -114 c 0
 903 -120 901 -122 924 -122 c 2
 935 -122 l 1
 935 -153 l 1
 905 -153 l 1
 928 -152 l 1
 881 -151 l 1
 808 -151 l 1
 769 -153 l 1
 762 -153 l 1
 762 -122 l 1
 773 -122 l 2
 797 -122 796 -121 806 -113 c 0
 815 -106 817 -94 817 -75 c 2
 817 186 l 1
 790 170 787 167 753 166 c 1
545 166 m 1
 545 197 l 1
 625 200 642 271 660 271 c 0
 672 271 672 255 672 240 c 2
 672 -76 l 1
 673 -96 674 -107 685 -114 c 0
 695 -120 692 -122 715 -122 c 2
 727 -122 l 1
 727 -153 l 1
 696 -153 l 1
 720 -152 l 1
 673 -151 l 1
 599 -151 l 1
 561 -153 l 1
 554 -153 l 1
 554 -122 l 1
 565 -122 l 2
 589 -122 588 -121 598 -113 c 0
 607 -106 609 -94 609 -75 c 2
 609 186 l 1
 582 170 579 167 545 166 c 1
64 453 m 0
 64 493 101 499 111 499 c 0
 128 499 158 489 158 455 c 0
 158 432 142 417 122 412 c 0
 119 411 116 411 112 411 c 1
 141 374 185 371 202 371 c 0
 231 371 251 379 264 392 c 1
 286 415 286 452 286 483 c 0
 286 515 287 550 272 571 c 0
 263 584 248 592 224 592 c 0
 195 592 157 586 130 556 c 0
 125 551 124 548 115 548 c 0
 100 548 100 556 100 568 c 2
 100 758 l 2
 100 768 99 776 109 776 c 0
 111 776 112 775 118 773 c 0
 136 767 174 755 227 755 c 0
 257 755 294 759 334 773 c 0
 342 776 343 776 345 776 c 0
 353 776 354 769 354 764 c 0
 354 748 290 674 188 674 c 0
 164 674 157 676 137 679 c 1
 137 593 l 1
 170 614 207 616 227 616 c 0
 331 616 386 556 386 481 c 0
 386 402 317 343 205 343 c 0
 118 343 64 398 64 453 c 0
EndSplineSet
EndChar
StartChar: uF2657
Encoding: 992855 992855 90
Width: 1000
Flags: MW
LayerCount: 2
Fore
SplineSet
107 -136 m 4
 107 -133 108 -129 116 -120 c 6
 851 723 l 6
 856 729 871 748 882 748 c 4
 886 748 892 744 892 736 c 4
 892 732 887 726 884 723 c 6
 148 -121 l 6
 133 -139 124 -148 116 -148 c 4
 110 -148 107 -142 107 -136 c 4
753 166 m 1
 753 197 l 1
 833 200 850 271 868 271 c 0
 880 271 880 255 880 240 c 2
 880 -76 l 1
 881 -96 882 -107 893 -114 c 0
 903 -120 901 -122 924 -122 c 2
 935 -122 l 1
 935 -153 l 1
 905 -153 l 1
 928 -152 l 1
 881 -151 l 1
 808 -151 l 1
 769 -153 l 1
 762 -153 l 1
 762 -122 l 1
 773 -122 l 2
 797 -122 796 -121 806 -113 c 0
 815 -106 817 -94 817 -75 c 2
 817 186 l 1
 790 170 787 167 753 166 c 1
545 166 m 1
 545 197 l 1
 625 200 642 271 660 271 c 0
 672 271 672 255 672 240 c 2
 672 -76 l 1
 673 -96 674 -107 685 -114 c 0
 695 -120 692 -122 715 -122 c 2
 727 -122 l 1
 727 -153 l 1
 696 -153 l 1
 720 -152 l 1
 673 -151 l 1
 599 -151 l 1
 561 -153 l 1
 554 -153 l 1
 554 -122 l 1
 565 -122 l 2
 589 -122 588 -121 598 -113 c 0
 607 -106 609 -94 609 -75 c 2
 609 186 l 1
 582 170 579 167 545 166 c 1
154 486 m 0
 154 474 154 428 165 407 c 0
 171 397 190 371 226 371 c 0
 262 371 281 384 289 405 c 0
 297 425 297 453 297 485 c 0
 297 519 297 548 287 568 c 0
 279 587 262 598 230 598 c 0
 192 598 154 567 154 486 c 0
58 556 m 0
 58 720 173 776 268 776 c 0
 342 776 372 734 372 694 c 0
 372 669 355 653 328 653 c 0
 301 653 284 671 284 693 c 0
 284 713 297 731 322 734 c 1
 306 749 283 750 270 750 c 0
 227 750 189 727 172 696 c 0
 167 686 153 659 153 585 c 2
 153 572 l 1
 182 621 222 622 237 622 c 0
 322 622 392 574 392 483 c 0
 392 396 325 343 228 343 c 0
 179 343 126 359 93 408 c 1
 64 453 58 505 58 556 c 0
EndSplineSet
EndChar
StartChar: uF2658
Encoding: 992856 992856 91
Width: 1000
Flags: MW
LayerCount: 2
Fore
SplineSet
107 -136 m 0
 107 -133 108 -129 116 -120 c 2
 851 723 l 2
 856 729 871 748 882 748 c 0
 886 748 892 744 892 736 c 0
 892 732 887 726 884 723 c 2
 148 -121 l 2
 133 -139 124 -148 116 -148 c 0
 110 -148 107 -142 107 -136 c 0
753 166 m 1
 753 197 l 1
 833 200 850 271 868 271 c 0
 880 271 880 255 880 240 c 2
 880 -76 l 1
 881 -96 882 -107 893 -114 c 0
 903 -120 901 -122 924 -122 c 2
 935 -122 l 1
 935 -153 l 1
 905 -153 l 1
 928 -152 l 1
 881 -151 l 1
 808 -151 l 1
 769 -153 l 1
 762 -153 l 1
 762 -122 l 1
 773 -122 l 2
 797 -122 796 -121 806 -113 c 0
 815 -106 817 -94 817 -75 c 2
 817 186 l 1
 790 170 787 167 753 166 c 1
545 166 m 1
 545 197 l 1
 625 200 642 271 660 271 c 0
 672 271 672 255 672 240 c 2
 672 -76 l 1
 673 -96 674 -107 685 -114 c 0
 695 -120 692 -122 715 -122 c 2
 727 -122 l 1
 727 -153 l 1
 696 -153 l 1
 720 -152 l 1
 673 -151 l 1
 599 -151 l 1
 561 -153 l 1
 554 -153 l 1
 554 -122 l 1
 565 -122 l 2
 589 -122 588 -121 598 -113 c 0
 607 -106 609 -94 609 -75 c 2
 609 186 l 1
 582 170 579 167 545 166 c 1
69 624 m 1
 93 789 l 1
 126 789 l 1
 127 783 128 777 143 774 c 1
 153 771 256 769 272 769 c 2
 415 769 l 1
 415 746 415 744 408 737 c 2
 299 620 l 2
 275 593 260 556 254 512 c 0
 249 481 247 450 247 419 c 2
 247 389 l 2
 247 346 213 343 202 343 c 0
 198 343 159 342 159 388 c 0
 159 484 210 572 277 645 c 2
 315 687 l 1
 197 687 l 2
 185 687 129 687 121 683 c 0
 118 682 109 673 102 624 c 1
 69 624 l 1
EndSplineSet
EndChar
StartChar: uF2659
Encoding: 992857 992857 92
Width: 1000
Flags: MW
LayerCount: 2
Fore
SplineSet
107 -136 m 0
 107 -133 108 -129 116 -120 c 2
 851 723 l 2
 856 729 871 748 882 748 c 0
 886 748 892 744 892 736 c 0
 892 732 887 726 884 723 c 2
 148 -121 l 2
 133 -139 124 -148 116 -148 c 0
 110 -148 107 -142 107 -136 c 0
753 166 m 1
 753 197 l 1
 833 200 850 271 868 271 c 0
 880 271 880 255 880 240 c 2
 880 -76 l 1
 881 -96 882 -107 893 -114 c 0
 903 -120 901 -122 924 -122 c 2
 935 -122 l 1
 935 -153 l 1
 905 -153 l 1
 928 -152 l 1
 881 -151 l 1
 808 -151 l 1
 769 -153 l 1
 762 -153 l 1
 762 -122 l 1
 773 -122 l 2
 797 -122 796 -121 806 -113 c 0
 815 -106 817 -94 817 -75 c 2
 817 186 l 1
 790 170 787 167 753 166 c 1
545 166 m 1
 545 197 l 1
 625 200 642 271 660 271 c 0
 672 271 672 255 672 240 c 2
 672 -76 l 1
 673 -96 674 -107 685 -114 c 0
 695 -120 692 -122 715 -122 c 2
 727 -122 l 1
 727 -153 l 1
 696 -153 l 1
 720 -152 l 1
 673 -151 l 1
 599 -151 l 1
 561 -153 l 1
 554 -153 l 1
 554 -122 l 1
 565 -122 l 2
 589 -122 588 -121 598 -113 c 0
 607 -106 609 -94 609 -75 c 2
 609 186 l 1
 582 170 579 167 545 166 c 1
118 455 m 0
 118 404 157 371 226 371 c 0
 266 371 332 381 332 436 c 0
 332 467 306 481 275 497 c 0
 237 517 203 534 179 546 c 1
 155 533 118 506 118 455 c 0
132 700 m 0
 132 678 152 667 163 661 c 2
 268 607 l 1
 299 626 317 648 317 680 c 0
 317 724 283 750 224 750 c 0
 196 750 132 746 132 700 c 0
58 455 m 0
 58 503 88 540 147 564 c 1
 129 573 117 583 107 594 c 0
 86 617 80 642 80 662 c 0
 80 724 129 776 226 776 c 0
 306 776 370 746 370 680 c 0
 370 642 348 613 299 590 c 1
 315 582 337 571 355 554 c 0
 376 535 392 510 392 472 c 0
 392 400 336 343 224 343 c 0
 134 343 58 376 58 455 c 0
EndSplineSet
EndChar
StartChar: uF265A
Encoding: 992858 992858 93
Width: 1000
Flags: MW
LayerCount: 2
Fore
SplineSet
107 -136 m 0
 107 -133 108 -129 116 -120 c 2
 851 723 l 2
 856 729 871 748 882 748 c 0
 886 748 892 744 892 736 c 0
 892 732 887 726 884 723 c 2
 148 -121 l 2
 133 -139 124 -148 116 -148 c 0
 110 -148 107 -142 107 -136 c 0
753 166 m 1
 753 197 l 1
 833 200 850 271 868 271 c 0
 880 271 880 255 880 240 c 2
 880 -76 l 1
 881 -96 882 -107 893 -114 c 0
 903 -120 901 -122 924 -122 c 2
 935 -122 l 1
 935 -153 l 1
 905 -153 l 1
 928 -152 l 1
 881 -151 l 1
 808 -151 l 1
 769 -153 l 1
 762 -153 l 1
 762 -122 l 1
 773 -122 l 2
 797 -122 796 -121 806 -113 c 0
 815 -106 817 -94 817 -75 c 2
 817 186 l 1
 790 170 787 167 753 166 c 1
545 166 m 1
 545 197 l 1
 625 200 642 271 660 271 c 0
 672 271 672 255 672 240 c 2
 672 -76 l 1
 673 -96 674 -107 685 -114 c 0
 695 -120 692 -122 715 -122 c 2
 727 -122 l 1
 727 -153 l 1
 696 -153 l 1
 720 -152 l 1
 673 -151 l 1
 599 -151 l 1
 561 -153 l 1
 554 -153 l 1
 554 -122 l 1
 565 -122 l 2
 589 -122 588 -121 598 -113 c 0
 607 -106 609 -94 609 -75 c 2
 609 186 l 1
 582 170 579 167 545 166 c 1
153 635 m 0
 153 600 153 570 163 549 c 0
 172 531 188 521 219 521 c 0
 278 521 296 587 296 628 c 0
 296 650 296 688 288 709 c 0
 285 715 269 750 228 750 c 0
 194 750 175 740 165 722 c 0
 153 701 153 669 153 635 c 0
58 636 m 0
 58 682 77 719 109 743 c 1
 138 764 179 776 226 776 c 0
 392 776 392 608 392 564 c 0
 392 398 282 343 191 343 c 0
 113 343 78 380 78 424 c 0
 78 449 95 466 122 466 c 0
 149 466 165 447 165 425 c 0
 165 396 139 387 131 385 c 1
 152 372 177 371 190 371 c 0
 238 371 268 400 280 425 c 0
 290 447 297 486 297 533 c 2
 297 548 l 1
 270 502 237 498 213 498 c 0
 127 498 58 546 58 636 c 0
EndSplineSet
EndChar
StartChar: uF265B
Encoding: 992859 992859 94
Width: 1000
Flags: MW
LayerCount: 2
Fore
SplineSet
107 -136 m 0
 107 -133 108 -129 116 -120 c 2
 851 723 l 2
 856 729 871 748 882 748 c 0
 886 748 892 744 892 736 c 0
 892 732 887 726 884 723 c 2
 148 -121 l 2
 133 -139 124 -148 116 -148 c 0
 110 -148 107 -142 107 -136 c 0
753 166 m 1
 753 197 l 1
 833 200 850 271 868 271 c 0
 880 271 880 255 880 240 c 2
 880 -76 l 1
 881 -96 882 -107 893 -114 c 0
 903 -120 901 -122 924 -122 c 2
 935 -122 l 1
 935 -153 l 1
 905 -153 l 1
 928 -152 l 1
 881 -151 l 1
 808 -151 l 1
 769 -153 l 1
 762 -153 l 1
 762 -122 l 1
 773 -122 l 2
 797 -122 796 -121 806 -113 c 0
 815 -106 817 -94 817 -75 c 2
 817 186 l 1
 790 170 787 167 753 166 c 1
545 166 m 1
 545 197 l 1
 625 200 642 271 660 271 c 0
 672 271 672 255 672 240 c 2
 672 -76 l 1
 673 -96 674 -107 685 -114 c 0
 695 -120 692 -122 715 -122 c 2
 727 -122 l 1
 727 -153 l 1
 696 -153 l 1
 720 -152 l 1
 673 -151 l 1
 599 -151 l 1
 561 -153 l 1
 554 -153 l 1
 554 -122 l 1
 565 -122 l 2
 589 -122 588 -121 598 -113 c 0
 607 -106 609 -94 609 -75 c 2
 609 186 l 1
 582 170 579 167 545 166 c 1
310 565 m 0
 310 529 311 462 313 428 c 0
 317 381 333 366 343 366 c 0
 352 366 371 376 375 436 c 0
 377 470 377 529 377 565 c 0
 377 618 377 687 372 711 c 0
 367 740 354 752 343 752 c 0
 336 752 316 746 313 688 c 0
 311 654 310 612 310 565 c 0
243 557 m 0
 243 598 243 677 270 728 c 0
 285 756 307 776 343 776 c 0
 375 776 397 760 412 737 c 0
 445 687 444 600 444 557 c 0
 444 513 444 433 414 384 c 0
 399 359 376 343 343 343 c 0
 310 343 288 359 273 384 c 0
 243 433 243 514 243 557 c 0
42 666 m 1
 42 697 l 1
 122 700 139 771 157 771 c 0
 169 771 169 755 169 740 c 2
 169 424 l 1
 170 404 171 393 182 386 c 0
 192 380 190 378 213 378 c 2
 224 378 l 1
 224 347 l 1
 194 347 l 1
 217 348 l 1
 170 349 l 1
 97 349 l 1
 58 347 l 1
 51 347 l 1
 51 378 l 1
 62 378 l 2
 86 378 85 379 95 387 c 0
 104 394 106 406 106 425 c 2
 106 696 l 1
 79 680 76 667 42 666 c 1
EndSplineSet
EndChar
StartChar: uF265C
Encoding: 992860 992860 95
Width: 1000
Flags: MW
LayerCount: 2
Fore
SplineSet
107 -136 m 0
 107 -133 108 -129 116 -120 c 2
 851 723 l 2
 856 729 871 748 882 748 c 0
 886 748 892 744 892 736 c 0
 892 732 887 726 884 723 c 2
 148 -121 l 2
 133 -139 124 -148 116 -148 c 0
 110 -148 107 -142 107 -136 c 0
730 -153 m 1
 730 -107 l 2
 730 -87 735 -85 745 -74 c 0
 839 25 874 60 874 136 c 0
 874 198 857 241 817 241 c 0
 795 241 787 231 769 217 c 1
 789 213 808 196 808 165 c 0
 808 135 787 113 763 113 c 0
 739 113 727 133 727 167 c 0
 727 184 731 200 739 213 c 0
 749 231 755 245 776 255 c 0
 798 266 807 272 829 272 c 0
 894 272 944 218 944 137 c 0
 944 42 875 14 831 -22 c 1
 772 -75 l 1
 850 -75 l 2
 870 -75 890 -74 900 -73 c 0
 909 -72 913 -70 917 -54 c 0
 920 -41 923 -18 927 22 c 1
 942 22 l 1
 925 -153 l 1
 730 -153 l 1
526 166 m 1
 526 197 l 1
 609 200 626 271 645 271 c 0
 658 271 657 255 657 240 c 2
 657 -76 l 1
 658 -96 660 -107 671 -114 c 0
 681 -120 679 -122 702 -122 c 2
 714 -122 l 1
 714 -153 l 1
 683 -153 l 1
 707 -152 l 1
 658 -151 l 1
 582 -151 l 1
 542 -153 l 1
 534 -153 l 1
 534 -122 l 1
 546 -122 l 2
 571 -122 570 -121 580 -113 c 0
 590 -106 592 -94 592 -75 c 2
 592 186 l 1
 564 170 561 167 526 166 c 1
69 666 m 1
 69 697 l 1
 203 700 231 771 253 771 c 0
 268 771 267 755 267 740 c 2
 267 424 l 1
 268 404 270 393 283 386 c 0
 295 380 317 378 355 378 c 2
 374 378 l 1
 374 347 l 1
 323 347 l 1
 362 348 l 1
 284 349 l 1
 160 349 l 1
 95 347 l 1
 83 347 l 1
 83 378 l 1
 102 378 l 2
 143 378 166 379 178 387 c 0
 189 394 192 406 192 425 c 2
 192 696 l 1
 160 680 126 667 69 666 c 1
EndSplineSet
EndChar
StartChar: uF265D
Encoding: 992861 992861 96
Width: 1000
Flags: MW
LayerCount: 2
Fore
SplineSet
730 -153 m 1
 730 -107 l 2
 730 -87 735 -85 745 -74 c 0
 839 25 874 60 874 136 c 0
 874 198 857 241 817 241 c 0
 795 241 787 231 769 217 c 1
 789 213 808 196 808 165 c 0
 808 135 787 113 763 113 c 0
 739 113 727 133 727 167 c 0
 727 184 731 200 739 213 c 0
 749 231 755 245 776 255 c 0
 798 266 807 272 829 272 c 0
 894 272 944 218 944 137 c 0
 944 42 875 14 831 -22 c 1
 772 -75 l 1
 850 -75 l 2
 870 -75 890 -74 900 -73 c 0
 909 -72 913 -70 917 -54 c 0
 920 -41 923 -18 927 22 c 1
 942 22 l 1
 925 -153 l 1
 730 -153 l 1
526 166 m 1
 526 197 l 1
 609 200 626 271 645 271 c 0
 658 271 657 255 657 240 c 2
 657 -76 l 1
 658 -96 660 -107 671 -114 c 0
 681 -120 679 -122 702 -122 c 2
 714 -122 l 1
 714 -153 l 1
 683 -153 l 1
 707 -152 l 1
 658 -151 l 1
 582 -151 l 1
 542 -153 l 1
 534 -153 l 1
 534 -122 l 1
 546 -122 l 2
 571 -122 570 -121 580 -113 c 0
 590 -106 592 -94 592 -75 c 2
 592 186 l 1
 564 170 561 167 526 166 c 1
64 453 m 0
 64 493 101 499 111 499 c 0
 128 499 158 489 158 455 c 0
 158 432 142 417 122 412 c 0
 119 411 116 411 112 411 c 1
 141 374 185 371 202 371 c 0
 231 371 251 379 264 392 c 1
 286 415 286 452 286 483 c 0
 286 515 287 550 272 571 c 0
 263 584 248 592 224 592 c 0
 195 592 157 586 130 556 c 0
 125 551 124 548 115 548 c 0
 100 548 100 556 100 568 c 2
 100 758 l 2
 100 768 99 776 109 776 c 0
 111 776 112 775 118 773 c 0
 136 767 174 755 227 755 c 0
 257 755 294 759 334 773 c 0
 342 776 343 776 345 776 c 0
 353 776 354 769 354 764 c 0
 354 748 290 674 188 674 c 0
 164 674 157 676 137 679 c 1
 137 593 l 1
 170 614 207 616 227 616 c 0
 331 616 386 556 386 481 c 0
 386 402 317 343 205 343 c 0
 118 343 64 398 64 453 c 0
107 -136 m 0
 107 -133 108 -129 116 -120 c 2
 851 723 l 2
 856 729 871 748 882 748 c 0
 886 748 892 744 892 736 c 0
 892 732 887 726 884 723 c 2
 148 -121 l 2
 133 -139 124 -148 116 -148 c 0
 110 -148 107 -142 107 -136 c 0
EndSplineSet
EndChar
StartChar: uF265E
Encoding: 992862 992862 97
Width: 1000
Flags: MW
LayerCount: 2
Fore
SplineSet
730 -153 m 1
 730 -107 l 2
 730 -87 735 -85 745 -74 c 0
 839 25 874 60 874 136 c 0
 874 198 857 241 817 241 c 0
 795 241 787 231 769 217 c 1
 789 213 808 196 808 165 c 0
 808 135 787 113 763 113 c 0
 739 113 727 133 727 167 c 0
 727 184 731 200 739 213 c 0
 749 231 755 245 776 255 c 0
 798 266 807 272 829 272 c 0
 894 272 944 218 944 137 c 0
 944 42 875 14 831 -22 c 1
 772 -75 l 1
 850 -75 l 2
 870 -75 890 -74 900 -73 c 0
 909 -72 913 -70 917 -54 c 0
 920 -41 923 -18 927 22 c 1
 942 22 l 1
 925 -153 l 1
 730 -153 l 1
526 166 m 1
 526 197 l 1
 609 200 626 271 645 271 c 0
 658 271 657 255 657 240 c 2
 657 -76 l 1
 658 -96 660 -107 671 -114 c 0
 681 -120 679 -122 702 -122 c 2
 714 -122 l 1
 714 -153 l 1
 683 -153 l 1
 707 -152 l 1
 658 -151 l 1
 582 -151 l 1
 542 -153 l 1
 534 -153 l 1
 534 -122 l 1
 546 -122 l 2
 571 -122 570 -121 580 -113 c 0
 590 -106 592 -94 592 -75 c 2
 592 186 l 1
 564 170 561 167 526 166 c 1
69 624 m 1
 93 789 l 1
 126 789 l 1
 127 783 128 777 143 774 c 1
 153 771 256 769 272 769 c 2
 415 769 l 1
 415 746 415 744 408 737 c 2
 299 620 l 2
 275 593 260 556 254 512 c 0
 249 481 247 450 247 419 c 2
 247 389 l 2
 247 346 213 343 202 343 c 0
 198 343 159 342 159 388 c 0
 159 484 210 572 277 645 c 2
 315 687 l 1
 197 687 l 2
 185 687 129 687 121 683 c 0
 118 682 109 673 102 624 c 1
 69 624 l 1
107 -136 m 0
 107 -133 108 -129 116 -120 c 2
 851 723 l 2
 856 729 871 748 882 748 c 0
 886 748 892 744 892 736 c 0
 892 732 887 726 884 723 c 2
 148 -121 l 2
 133 -139 124 -148 116 -148 c 0
 110 -148 107 -142 107 -136 c 0
EndSplineSet
EndChar
StartChar: uF265F
Encoding: 992863 992863 98
Width: 1000
Flags: MW
LayerCount: 2
Fore
SplineSet
730 -153 m 1
 730 -107 l 2
 730 -87 735 -85 745 -74 c 0
 839 25 874 60 874 136 c 0
 874 198 857 241 817 241 c 0
 795 241 787 231 769 217 c 1
 789 213 808 196 808 165 c 0
 808 135 787 113 763 113 c 0
 739 113 727 133 727 167 c 0
 727 184 731 200 739 213 c 0
 749 231 755 245 776 255 c 0
 798 266 807 272 829 272 c 0
 894 272 944 218 944 137 c 0
 944 42 875 14 831 -22 c 1
 772 -75 l 1
 850 -75 l 2
 870 -75 890 -74 900 -73 c 0
 909 -72 913 -70 917 -54 c 0
 920 -41 923 -18 927 22 c 1
 942 22 l 1
 925 -153 l 1
 730 -153 l 1
526 166 m 1
 526 197 l 1
 609 200 626 271 645 271 c 0
 658 271 657 255 657 240 c 2
 657 -76 l 1
 658 -96 660 -107 671 -114 c 0
 681 -120 679 -122 702 -122 c 2
 714 -122 l 1
 714 -153 l 1
 683 -153 l 1
 707 -152 l 1
 658 -151 l 1
 582 -151 l 1
 542 -153 l 1
 534 -153 l 1
 534 -122 l 1
 546 -122 l 2
 571 -122 570 -121 580 -113 c 0
 590 -106 592 -94 592 -75 c 2
 592 186 l 1
 564 170 561 167 526 166 c 1
45 666 m 1
 45 697 l 1
 125 700 142 771 160 771 c 0
 172 771 172 755 172 740 c 2
 172 424 l 1
 173 404 174 393 185 386 c 0
 195 380 192 378 215 378 c 2
 227 378 l 1
 227 347 l 1
 196 347 l 1
 220 348 l 1
 173 349 l 1
 99 349 l 1
 61 347 l 1
 54 347 l 1
 54 378 l 1
 65 378 l 2
 89 378 88 379 98 387 c 0
 107 394 109 406 109 425 c 2
 109 686 l 1
 82 670 79 667 45 666 c 1
253 666 m 1
 253 697 l 1
 333 700 350 771 368 771 c 0
 380 771 380 755 380 740 c 2
 380 424 l 1
 381 404 382 393 393 386 c 0
 403 380 401 378 424 378 c 2
 435 378 l 1
 435 347 l 1
 405 347 l 1
 428 348 l 1
 381 349 l 1
 308 349 l 1
 269 347 l 1
 262 347 l 1
 262 378 l 1
 273 378 l 2
 297 378 296 379 306 387 c 0
 315 394 317 406 317 425 c 2
 317 686 l 1
 290 670 287 667 253 666 c 1
107 -136 m 0
 107 -133 108 -129 116 -120 c 2
 851 723 l 2
 856 729 871 748 882 748 c 0
 886 748 892 744 892 736 c 0
 892 732 887 726 884 723 c 2
 148 -121 l 2
 133 -139 124 -148 116 -148 c 0
 110 -148 107 -142 107 -136 c 0
EndSplineSet
EndChar
StartChar: uF2660
Encoding: 992864 992864 99
Width: 1000
Flags: MW
LayerCount: 2
Fore
SplineSet
57 -236 m 0
 57 -233 57.7509765625 -230.284179688 64 -220 c 2
 645 723 l 2
 650 729 659 748 670 748 c 0
 674 748 680 744 680 736 c 0
 680 732 677 726 674 723 c 2
 92 -221 l 2
 79.8916015625 -240.9140625 74 -248 66 -248 c 0
 60 -248 57 -242 57 -236 c 0
821 65 m 0
 821 29 821 -38 825 -72 c 0
 830 -119 845 -134 858 -134 c 0
 869 -134 885 -124 891 -64 c 0
 894 -30 894 29 894 65 c 0
 894 118 894 187 887 211 c 0
 879 240 871 252 858 252 c 0
 849 252 830 246 825 188 c 0
 821 154 821 112 821 65 c 0
768 57 m 0
 768 98 767 177 795 228 c 0
 810 256 828 276 858 276 c 0
 885 276 900 260 915 237 c 0
 948 187 948 100 948 57 c 0
 948 13 947 -67 917 -116 c 0
 902 -141 886 -157 858 -157 c 0
 830 -157 813 -141 798 -116 c 0
 768 -67 768 14 768 57 c 0
619 65 m 0
 619 29 619 -38 623 -72 c 0
 628 -119 643 -134 656 -134 c 0
 667 -134 683 -124 689 -64 c 0
 692 -30 692 29 692 65 c 0
 692 118 692 187 685 211 c 0
 677 240 669 252 656 252 c 0
 647 252 628 246 623 188 c 0
 619 154 619 112 619 65 c 0
566 57 m 0
 566 98 565 177 593 228 c 0
 608 256 626 276 656 276 c 0
 683 276 698 260 713 237 c 0
 746 187 746 100 746 57 c 0
 746 13 745 -67 715 -116 c 0
 700 -141 684 -157 656 -157 c 0
 628 -157 611 -141 596 -116 c 0
 566 -67 566 14 566 57 c 0
400 166 m 1
 400 197 l 1
 468 200 482 271 495 271 c 0
 504 271 504 255 504 240 c 2
 504 -76 l 1
 505 -96 506 -107 514 -114 c 0
 521 -120 526 -122 545 -122 c 2
 554 -122 l 1
 554 -153 l 1
 528 -153 l 1
 548 -152 l 1
 509 -151 l 1
 446 -151 l 1
 413 -153 l 1
 407 -153 l 1
 407 -122 l 1
 417 -122 l 2
 438 -122 443 -121 450 -113 c 0
 457 -106 458 -94 458 -75 c 2
 458 189 l 1
 439 173 429 167 400 166 c 1
69 666 m 1
 69 697 l 1
 203 700 231 771 253 771 c 0
 268 771 267 755 267 740 c 2
 267 424 l 1
 268 404 270 393 283 386 c 0
 295 380 317 378 355 378 c 2
 374 378 l 1
 374 347 l 1
 323 347 l 1
 362 348 l 1
 284 349 l 1
 160 349 l 1
 95 347 l 1
 83 347 l 1
 83 378 l 1
 102 378 l 2
 143 378 166 379 178 387 c 0
 189 394 192 406 192 425 c 2
 192 696 l 1
 160 680 126 667 69 666 c 1
EndSplineSet
EndChar
StartChar: uF2661
Encoding: 992865 992865 100
Width: 1000
Flags: MW
LayerCount: 2
Fore
SplineSet
320 -118 m 0
 320 -82 346 -61 376 -61 c 0
 406 -61 432 -84 432 -117 c 0
 432 -149 410 -163 393 -170 c 1
 402 -173 431 -185 488 -185 c 0
 559 -185 577 -139 577 -96 c 0
 577 -20 530 -2 488 -2 c 2
 467 -2 l 2
 456 -2 446 1 446 10 c 0
 446 15 450 18 457 20 c 0
 471 24 495 23 509 29 c 0
 540 42 560 82 560 128 c 0
 560 183 524 197 493 197 c 0
 466 197 414 185 384 123 c 1
 392 124 394 125 398 125 c 0
 426 125 449 104 449 74 c 0
 449 44 427 23 399 23 c 0
 381 23 348 34 348 77 c 0
 348 91 350 106 355 120 c 0
 373 174 423 222 498 222 c 0
 578 222 652 183 652 125 c 0
 652 80 622 40 550 13 c 1
 602 4 680 -30 680 -94 c 0
 680 -149 615 -214 494 -214 c 0
 349 -214 320 -156 320 -118 c 0
331 557 m 0
 331 598 330 677 376 728 c 0
 401 756 440 776 500 776 c 0
 553 776 590 760 615 737 c 0
 670 687 669 600 669 557 c 0
 669 513 668 433 618 384 c 0
 593 359 556 343 500 343 c 0
 444 343 407 359 382 384 c 0
 332 433 331 514 331 557 c 0
420 565 m 0
 420 529 420 462 426 428 c 0
 435 381 475 366 500 366 c 0
 521 366 565 376 575 436 c 0
 580 470 580 529 580 565 c 0
 580 618 580 687 568 711 c 0
 555 740 526 752 500 752 c 0
 483 752 434 746 426 688 c 0
 420 654 420 612 420 565 c 0
58 278 m 0
 58 296 75.0281489844 298 90 298 c 2
 925 298 l 2
 934 298 943 297 950 294 c 0
 956 291 960 287 960 278 c 0
 960 270 957 258 931 258 c 2
 87 258 l 2
 63.0429230124 258 58 270 58 278 c 0
EndSplineSet
EndChar
StartChar: uF2662
Encoding: 992866 992866 101
Width: 1000
Flags: MW
LayerCount: 2
Fore
SplineSet
328 -203 m 1
 328 -157 l 2
 328 -137 335 -135 352 -124 c 0
 505 -25 580 10 580 86 c 0
 580 148 533 191 469 191 c 0
 434 191 409 181 388 167 c 1
 411 163 433 146 433 115 c 0
 433 85 409 63 381 63 c 0
 353 63 328 83 328 117 c 0
 328 134 333 150 342 163 c 0
 354 181 372 195 396 205 c 0
 422 216 453 222 488 222 c 0
 594 222 672 168 672 87 c 0
 672 -8 562 -36 491 -72 c 1
 396 -125 l 1
 523 -125 l 2
 555 -125 587 -124 603 -123 c 0
 618 -122 625 -120 631 -104 c 0
 636 -91 640 -68 647 -28 c 1
 672 -28 l 1
 644 -203 l 1
 328 -203 l 1
348 666 m 1
 348 697 l 1
 482 700 510 771 532 771 c 0
 547 771 546 755 546 740 c 2
 546 424 l 1
 547 404 549 393 562 386 c 4
 574 380 596 378 634 378 c 2
 652 378 l 1
 652 347 l 1
 602 347 l 1
 640 348 l 1
 562 349 l 1
 438 349 l 1
 374 347 l 1
 362 347 l 1
 362 378 l 1
 380 378 l 2
 421 378 444 379 456 387 c 0
 467 394 470 406 470 425 c 2
 470 696 l 1
 438 680 405 667 348 666 c 1
58 278 m 0
 58 296 75.0281489844 298 90 298 c 2
 925 298 l 2
 934 298 943 297 950 294 c 0
 956 291 960 287 960 278 c 0
 960 270 957 258 931 258 c 2
 87 258 l 2
 63.0429230124 258 58 270 58 278 c 0
EndSplineSet
EndChar
StartChar: uF2663
Encoding: 992867 992867 102
Width: 1000
Flags: MW
LayerCount: 2
Fore
SplineSet
320 -118 m 0
 320 -82 346 -61 376 -61 c 0
 406 -61 432 -84 432 -117 c 0
 432 -149 410 -163 393 -170 c 1
 402 -173 431 -185 488 -185 c 0
 559 -185 577 -139 577 -96 c 0
 577 -20 530 -2 488 -2 c 2
 467 -2 l 2
 456 -2 446 1 446 10 c 0
 446 15 450 18 457 20 c 0
 471 24 495 23 509 29 c 0
 540 42 560 82 560 128 c 0
 560 183 524 197 493 197 c 0
 466 197 414 185 384 123 c 1
 392 124 394 125 398 125 c 0
 426 125 449 104 449 74 c 0
 449 44 427 23 399 23 c 0
 381 23 348 34 348 77 c 0
 348 91 350 106 355 120 c 0
 373 174 423 222 498 222 c 0
 578 222 652 183 652 125 c 0
 652 80 622 40 550 13 c 1
 602 4 680 -30 680 -94 c 0
 680 -149 615 -214 494 -214 c 0
 349 -214 320 -156 320 -118 c 0
348 666 m 1
 348 697 l 1
 482 700 510 771 532 771 c 0
 547 771 546 755 546 740 c 2
 546 424 l 1
 547 404 549 393 562 386 c 4
 574 380 596 378 634 378 c 2
 652 378 l 1
 652 347 l 1
 602 347 l 1
 640 348 l 1
 562 349 l 1
 438 349 l 1
 374 347 l 1
 362 347 l 1
 362 378 l 1
 380 378 l 2
 421 378 444 379 456 387 c 0
 467 394 470 406 470 425 c 2
 470 696 l 1
 438 680 405 667 348 666 c 1
58 278 m 0
 58 296 75.0281489844 298 90 298 c 2
 925 298 l 2
 934 298 943 297 950 294 c 0
 956 291 960 287 960 278 c 0
 960 270 957 258 931 258 c 2
 87 258 l 2
 63.0429230124 258 58 270 58 278 c 0
EndSplineSet
EndChar
StartChar: uF2664
Encoding: 992868 992868 103
Width: 1000
Flags: MW
LayerCount: 2
Fore
SplineSet
320 -118 m 0
 320 -82 346 -61 376 -61 c 0
 406 -61 432 -84 432 -117 c 0
 432 -149 410 -163 393 -170 c 1
 402 -173 431 -185 488 -185 c 0
 559 -185 577 -139 577 -96 c 0
 577 -20 530 -2 488 -2 c 2
 467 -2 l 2
 456 -2 446 1 446 10 c 0
 446 15 450 18 457 20 c 0
 471 24 495 23 509 29 c 0
 540 42 560 82 560 128 c 0
 560 183 524 197 493 197 c 0
 466 197 414 185 384 123 c 1
 392 124 394 125 398 125 c 0
 426 125 449 104 449 74 c 0
 449 44 427 23 399 23 c 0
 381 23 348 34 348 77 c 0
 348 91 350 106 355 120 c 0
 373 174 423 222 498 222 c 0
 578 222 652 183 652 125 c 0
 652 80 622 40 550 13 c 1
 602 4 680 -30 680 -94 c 0
 680 -149 615 -214 494 -214 c 0
 349 -214 320 -156 320 -118 c 0
328 347 m 1
 328 393 l 2
 328 413 335 415 352 426 c 0
 505 525 580 560 580 636 c 0
 580 698 533 741 469 741 c 0
 434 741 409 731 388 717 c 1
 411 713 433 696 433 665 c 0
 433 635 409 613 381 613 c 0
 353 613 328 633 328 667 c 0
 328 684 333 700 342 713 c 0
 354 731 372 745 396 755 c 4
 422 766 453 772 488 772 c 0
 594 772 672 718 672 637 c 0
 672 542 562 514 491 478 c 1
 396 425 l 1
 523 425 l 2
 555 425 587 426 603 427 c 0
 618 428 625 430 631 446 c 0
 636 459 640 482 647 522 c 1
 672 522 l 1
 644 347 l 1
 328 347 l 1
58 278 m 0
 58 296 75.0281489844 298 90 298 c 2
 925 298 l 2
 934 298 943 297 950 294 c 0
 956 291 960 287 960 278 c 0
 960 270 957 258 931 258 c 2
 87 258 l 2
 63.0429230124 258 58 270 58 278 c 0
EndSplineSet
EndChar
StartChar: uF2665
Encoding: 992869 992869 104
Width: 1000
Flags: MW
LayerCount: 2
Fore
SplineSet
322 -99 m 1
 322 -68 l 1
 566 216 l 2
 574 226 575 226 590 226 c 0
 610 226 612 224 612 206 c 2
 612 -68 l 1
 678 -68 l 1
 678 -99 l 1
 612 -99 l 1
 612 -169 l 1
 678 -169 l 5
 678 -169 l 1
 678 -200 l 1
 654 -198 594 -198 566 -198 c 0
 536 -198 473 -198 446 -200 c 1
 446 -169 l 1
 446 -169 l 1
 524 -169 l 1
 524 -99 l 1
 322 -99 l 1
358 -68 m 1
 532 -68 l 1
 532 133 l 1
 358 -68 l 1
348 666 m 1
 348 697 l 1
 482 700 510 771 532 771 c 0
 547 771 546 755 546 740 c 2
 546 424 l 1
 547 404 549 393 562 386 c 4
 574 380 596 378 634 378 c 2
 652 378 l 1
 652 347 l 1
 602 347 l 1
 640 348 l 1
 562 349 l 1
 438 349 l 1
 374 347 l 1
 362 347 l 1
 362 378 l 1
 380 378 l 2
 421 378 444 379 456 387 c 0
 467 394 470 406 470 425 c 2
 470 696 l 1
 438 680 405 667 348 666 c 1
58 278 m 0
 58 296 75.0281489844 298 90 298 c 2
 925 298 l 2
 934 298 943 297 950 294 c 0
 956 291 960 287 960 278 c 0
 960 270 957 258 931 258 c 2
 87 258 l 2
 63.0429230124 258 58 270 58 278 c 0
EndSplineSet
EndChar
StartChar: uF2666
Encoding: 992870 992870 105
Width: 1000
Flags: MW
LayerCount: 2
Fore
SplineSet
322 -99 m 1
 322 -68 l 1
 566 216 l 2
 574 226 575 226 590 226 c 0
 610 226 612 224 612 206 c 2
 612 -68 l 1
 678 -68 l 1
 678 -99 l 1
 612 -99 l 1
 612 -169 l 1
 678 -169 l 5
 678 -169 l 1
 678 -200 l 1
 654 -198 594 -198 566 -198 c 0
 536 -198 473 -198 446 -200 c 1
 446 -169 l 1
 446 -169 l 1
 524 -169 l 1
 524 -99 l 1
 322 -99 l 1
358 -68 m 1
 532 -68 l 1
 532 133 l 1
 358 -68 l 1
320 432 m 0
 320 468 346 489 376 489 c 0
 406 489 432 466 432 433 c 0
 432 401 410 387 393 380 c 1
 402 377 431 365 488 365 c 0
 559 365 577 411 577 454 c 0
 577 530 530 548 488 548 c 2
 467 548 l 2
 456 548 446 551 446 560 c 0
 446 565 450 568 457 570 c 0
 471 574 495 573 509 579 c 0
 540 592 560 632 560 678 c 0
 560 733 524 747 493 747 c 0
 466 747 414 735 384 673 c 1
 392 674 394 675 398 675 c 0
 426 675 449 654 449 624 c 0
 449 594 427 573 399 573 c 0
 381 573 348 584 348 627 c 0
 348 641 350 656 355 670 c 4
 373 724 423 772 498 772 c 0
 578 772 652 733 652 675 c 0
 652 630 622 590 550 563 c 1
 602 554 680 520 680 456 c 0
 680 401 615 336 494 336 c 0
 349 336 320 394 320 432 c 0
58 278 m 0
 58 296 75.0281489844 298 90 298 c 2
 925 298 l 2
 934 298 943 297 950 294 c 0
 956 291 960 287 960 278 c 0
 960 270 957 258 931 258 c 2
 87 258 l 2
 63.0429230124 258 58 270 58 278 c 0
EndSplineSet
EndChar
StartChar: uF2667
Encoding: 992871 992871 106
Width: 1000
Flags: MW
LayerCount: 2
Fore
SplineSet
339 -97 m 0
 339 -57 376 -51 386 -51 c 0
 403 -51 433 -61 433 -95 c 0
 433 -118 417 -133 397 -138 c 0
 394 -139 391 -139 387 -139 c 1
 416 -176 460 -179 477 -179 c 0
 506 -179 526 -171 539 -158 c 5
 561 -135 561 -98 561 -67 c 0
 561 -35 562 0 547 21 c 0
 538 34 523 42 499 42 c 0
 470 42 432 36 405 6 c 0
 400 1 399 -2 390 -2 c 0
 375 -2 375 6 375 18 c 2
 375 208 l 2
 375 218 374 226 384 226 c 0
 386 226 387 225 393 223 c 0
 411 217 449 205 502 205 c 0
 532 205 569 209 609 223 c 0
 617 226 618 226 620 226 c 0
 628 226 629 219 629 214 c 0
 629 198 565 124 463 124 c 0
 439 124 432 126 412 129 c 1
 412 43 l 1
 445 64 482 66 502 66 c 0
 606 66 661 6 661 -69 c 0
 661 -148 592 -207 480 -207 c 0
 393 -207 339 -152 339 -97 c 0
348 666 m 1
 348 697 l 1
 482 700 510 771 532 771 c 0
 547 771 546 755 546 740 c 2
 546 424 l 1
 547 404 549 393 562 386 c 4
 574 380 596 378 634 378 c 2
 652 378 l 1
 652 347 l 1
 602 347 l 1
 640 348 l 1
 562 349 l 1
 438 349 l 1
 374 347 l 1
 362 347 l 1
 362 378 l 1
 380 378 l 2
 421 378 444 379 456 387 c 0
 467 394 470 406 470 425 c 2
 470 696 l 1
 438 680 405 667 348 666 c 1
58 278 m 0
 58 296 75.0281489844 298 90 298 c 2
 925 298 l 2
 934 298 943 297 950 294 c 0
 956 291 960 287 960 278 c 0
 960 270 957 258 931 258 c 2
 87 258 l 2
 63.0429230124 258 58 270 58 278 c 0
EndSplineSet
EndChar
StartChar: uF2668
Encoding: 992872 992872 107
Width: 1000
Flags: MW
LayerCount: 2
Fore
SplineSet
339 -97 m 0
 339 -57 376 -51 386 -51 c 0
 403 -51 433 -61 433 -95 c 0
 433 -118 417 -133 397 -138 c 0
 394 -139 391 -139 387 -139 c 1
 416 -176 460 -179 477 -179 c 0
 506 -179 526 -171 539 -158 c 5
 561 -135 561 -98 561 -67 c 0
 561 -35 562 0 547 21 c 0
 538 34 523 42 499 42 c 0
 470 42 432 36 405 6 c 0
 400 1 399 -2 390 -2 c 0
 375 -2 375 6 375 18 c 2
 375 208 l 2
 375 218 374 226 384 226 c 0
 386 226 387 225 393 223 c 0
 411 217 449 205 502 205 c 0
 532 205 569 209 609 223 c 0
 617 226 618 226 620 226 c 0
 628 226 629 219 629 214 c 0
 629 198 565 124 463 124 c 0
 439 124 432 126 412 129 c 1
 412 43 l 1
 445 64 482 66 502 66 c 0
 606 66 661 6 661 -69 c 0
 661 -148 592 -207 480 -207 c 0
 393 -207 339 -152 339 -97 c 0
328 347 m 1
 328 393 l 2
 328 413 335 415 352 426 c 0
 505 525 580 560 580 636 c 0
 580 698 533 741 469 741 c 0
 434 741 409 731 388 717 c 1
 411 713 433 696 433 665 c 0
 433 635 409 613 381 613 c 0
 353 613 328 633 328 667 c 0
 328 684 333 700 342 713 c 0
 354 731 372 745 396 755 c 4
 422 766 453 772 488 772 c 0
 594 772 672 718 672 637 c 0
 672 542 562 514 491 478 c 1
 396 425 l 1
 523 425 l 2
 555 425 587 426 603 427 c 0
 618 428 625 430 631 446 c 0
 636 459 640 482 647 522 c 1
 672 522 l 1
 644 347 l 1
 328 347 l 1
58 278 m 0
 58 296 75.0281489844 298 90 298 c 2
 925 298 l 2
 934 298 943 297 950 294 c 0
 956 291 960 287 960 278 c 0
 960 270 957 258 931 258 c 2
 87 258 l 2
 63.0429230124 258 58 270 58 278 c 0
EndSplineSet
EndChar
StartChar: uF2669
Encoding: 992873 992873 108
Width: 1000
Flags: MW
LayerCount: 2
Fore
SplineSet
339 -97 m 0
 339 -57 376 -51 386 -51 c 0
 403 -51 433 -61 433 -95 c 0
 433 -118 417 -133 397 -138 c 0
 394 -139 391 -139 387 -139 c 1
 416 -176 460 -179 477 -179 c 0
 506 -179 526 -171 539 -158 c 5
 561 -135 561 -98 561 -67 c 0
 561 -35 562 0 547 21 c 0
 538 34 523 42 499 42 c 0
 470 42 432 36 405 6 c 0
 400 1 399 -2 390 -2 c 0
 375 -2 375 6 375 18 c 2
 375 208 l 2
 375 218 374 226 384 226 c 0
 386 226 387 225 393 223 c 0
 411 217 449 205 502 205 c 0
 532 205 569 209 609 223 c 0
 617 226 618 226 620 226 c 0
 628 226 629 219 629 214 c 0
 629 198 565 124 463 124 c 0
 439 124 432 126 412 129 c 1
 412 43 l 1
 445 64 482 66 502 66 c 0
 606 66 661 6 661 -69 c 0
 661 -148 592 -207 480 -207 c 0
 393 -207 339 -152 339 -97 c 0
320 432 m 0
 320 468 346 489 376 489 c 0
 406 489 432 466 432 433 c 0
 432 401 410 387 393 380 c 1
 402 377 431 365 488 365 c 0
 559 365 577 411 577 454 c 0
 577 530 530 548 488 548 c 2
 467 548 l 2
 456 548 446 551 446 560 c 0
 446 565 450 568 457 570 c 0
 471 574 495 573 509 579 c 0
 540 592 560 632 560 678 c 0
 560 733 524 747 493 747 c 0
 466 747 414 735 384 673 c 1
 392 674 394 675 398 675 c 0
 426 675 449 654 449 624 c 0
 449 594 427 573 399 573 c 0
 381 573 348 584 348 627 c 0
 348 641 350 656 355 670 c 4
 373 724 423 772 498 772 c 0
 578 772 652 733 652 675 c 0
 652 630 622 590 550 563 c 1
 602 554 680 520 680 456 c 0
 680 401 615 336 494 336 c 0
 349 336 320 394 320 432 c 0
58 278 m 0
 58 296 75.0281489844 298 90 298 c 2
 925 298 l 2
 934 298 943 297 950 294 c 0
 956 291 960 287 960 278 c 0
 960 270 957 258 931 258 c 2
 87 258 l 2
 63.0429230124 258 58 270 58 278 c 0
EndSplineSet
EndChar
StartChar: uF266A
Encoding: 992874 992874 109
Width: 1000
Flags: MW
LayerCount: 2
Fore
SplineSet
339 -97 m 0
 339 -57 376 -51 386 -51 c 0
 403 -51 433 -61 433 -95 c 0
 433 -118 417 -133 397 -138 c 0
 394 -139 391 -139 387 -139 c 1
 416 -176 460 -179 477 -179 c 0
 506 -179 526 -171 539 -158 c 5
 561 -135 561 -98 561 -67 c 0
 561 -35 562 0 547 21 c 0
 538 34 523 42 499 42 c 0
 470 42 432 36 405 6 c 0
 400 1 399 -2 390 -2 c 0
 375 -2 375 6 375 18 c 2
 375 208 l 2
 375 218 374 226 384 226 c 0
 386 226 387 225 393 223 c 0
 411 217 449 205 502 205 c 0
 532 205 569 209 609 223 c 0
 617 226 618 226 620 226 c 0
 628 226 629 219 629 214 c 0
 629 198 565 124 463 124 c 0
 439 124 432 126 412 129 c 1
 412 43 l 1
 445 64 482 66 502 66 c 0
 606 66 661 6 661 -69 c 0
 661 -148 592 -207 480 -207 c 0
 393 -207 339 -152 339 -97 c 0
322 451 m 1
 322 482 l 1
 566 766 l 2
 574 776 575 776 590 776 c 0
 610 776 612 774 612 756 c 2
 612 482 l 1
 678 482 l 1
 678 451 l 1
 612 451 l 1
 612 381 l 1
 678 381 l 5
 678 381 l 1
 678 350 l 1
 654 352 594 352 566 352 c 0
 536 352 473 352 446 350 c 1
 446 381 l 1
 446 381 l 1
 524 381 l 1
 524 451 l 1
 322 451 l 1
358 482 m 1
 532 482 l 1
 532 683 l 1
 358 482 l 1
58 278 m 0
 58 296 75.0281489844 298 90 298 c 2
 925 298 l 2
 934 298 943 297 950 294 c 0
 956 291 960 287 960 278 c 0
 960 270 957 258 931 258 c 2
 87 258 l 2
 63.0429230124 258 58 270 58 278 c 0
EndSplineSet
EndChar
StartChar: uF266B
Encoding: 992875 992875 110
Width: 1000
Flags: MW
LayerCount: 2
Fore
SplineSet
333 6 m 0
 333 170 448 226 543 226 c 0
 617 226 647 184 647 144 c 0
 647 119 630 103 603 103 c 0
 576 103 559 121 559 143 c 0
 559 163 572 181 597 184 c 1
 581 199 558 200 545 200 c 0
 502 200 464 177 447 146 c 0
 442 136 428 109 428 35 c 2
 428 22 l 1
 457 71 497 72 512 72 c 0
 597 72 667 24 667 -67 c 0
 667 -154 600 -207 503 -207 c 0
 454 -207 401 -191 368 -142 c 1
 339 -97 333 -45 333 6 c 0
429 -64 m 0
 429 -76 429 -122 440 -143 c 0
 446 -153 465 -179 501 -179 c 0
 537 -179 556 -166 564 -145 c 4
 572 -125 572 -97 572 -65 c 0
 572 -31 572 -2 562 18 c 0
 554 37 537 48 505 48 c 0
 467 48 429 17 429 -64 c 0
348 666 m 1
 348 697 l 1
 482 700 510 771 532 771 c 0
 547 771 546 755 546 740 c 2
 546 424 l 1
 547 404 549 393 562 386 c 4
 574 380 596 378 634 378 c 2
 652 378 l 1
 652 347 l 1
 602 347 l 1
 640 348 l 1
 562 349 l 1
 438 349 l 1
 374 347 l 1
 362 347 l 1
 362 378 l 1
 380 378 l 2
 421 378 444 379 456 387 c 0
 467 394 470 406 470 425 c 2
 470 696 l 1
 438 680 405 667 348 666 c 1
58 278 m 0
 58 296 75.0281489844 298 90 298 c 2
 925 298 l 2
 934 298 943 297 950 294 c 0
 956 291 960 287 960 278 c 0
 960 270 957 258 931 258 c 2
 87 258 l 2
 63.0429230124 258 58 270 58 278 c 0
EndSplineSet
EndChar
StartChar: uF266C
Encoding: 992876 992876 111
Width: 1000
Flags: MW
LayerCount: 2
Fore
SplineSet
333 6 m 0
 333 170 448 226 543 226 c 0
 617 226 647 184 647 144 c 0
 647 119 630 103 603 103 c 0
 576 103 559 121 559 143 c 0
 559 163 572 181 597 184 c 1
 581 199 558 200 545 200 c 0
 502 200 464 177 447 146 c 0
 442 136 428 109 428 35 c 2
 428 22 l 1
 457 71 497 72 512 72 c 0
 597 72 667 24 667 -67 c 0
 667 -154 600 -207 503 -207 c 0
 454 -207 401 -191 368 -142 c 1
 339 -97 333 -45 333 6 c 0
429 -64 m 0
 429 -76 429 -122 440 -143 c 0
 446 -153 465 -179 501 -179 c 0
 537 -179 556 -166 564 -145 c 4
 572 -125 572 -97 572 -65 c 0
 572 -31 572 -2 562 18 c 0
 554 37 537 48 505 48 c 0
 467 48 429 17 429 -64 c 0
339 453 m 0
 339 493 376 499 386 499 c 0
 403 499 433 489 433 455 c 0
 433 432 417 417 397 412 c 0
 394 411 391 411 387 411 c 1
 416 374 460 371 477 371 c 0
 506 371 526 379 539 392 c 5
 561 415 561 452 561 483 c 0
 561 515 562 550 547 571 c 0
 538 584 523 592 499 592 c 0
 470 592 432 586 405 556 c 0
 400 551 399 548 390 548 c 0
 375 548 375 556 375 568 c 2
 375 758 l 2
 375 768 374 776 384 776 c 0
 386 776 387 775 393 773 c 0
 411 767 449 755 502 755 c 0
 532 755 569 759 609 773 c 0
 617 776 618 776 620 776 c 0
 628 776 629 769 629 764 c 0
 629 748 565 674 463 674 c 0
 439 674 432 676 412 679 c 1
 412 593 l 1
 445 614 482 616 502 616 c 0
 606 616 661 556 661 481 c 0
 661 402 592 343 480 343 c 0
 393 343 339 398 339 453 c 0
58 278 m 0
 58 296 75.0281489844 298 90 298 c 2
 925 298 l 2
 934 298 943 297 950 294 c 0
 956 291 960 287 960 278 c 0
 960 270 957 258 931 258 c 2
 87 258 l 2
 63.0429230124 258 58 270 58 278 c 0
EndSplineSet
EndChar
StartChar: uF266E
Encoding: 992878 992878 113
Width: 1000
Flags: MW
LayerCount: 2
Fore
SplineSet
327 74 m 1
 351 239 l 1
 384 239 l 1
 385 233 386 227 401 224 c 1
 411 221 514 219 530 219 c 2
 673 219 l 1
 673 196 673 194 666 187 c 2
 557 70 l 2
 533 43 518 6 512 -38 c 0
 507 -69 505 -100 505 -131 c 2
 505 -161 l 2
 505 -204 471 -207 460 -207 c 0
 456 -207 417 -208 417 -162 c 0
 417 -66 468 22 535 95 c 2
 573 137 l 1
 455 137 l 2
 443 137 387 137 379 133 c 0
 376 132 367 123 360 74 c 1
 327 74 l 1
328 347 m 1
 328 393 l 2
 328 413 335 415 352 426 c 0
 505 525 580 560 580 636 c 0
 580 698 533 741 469 741 c 0
 434 741 409 731 388 717 c 1
 411 713 433 696 433 665 c 0
 433 635 409 613 381 613 c 0
 353 613 328 633 328 667 c 0
 328 684 333 700 342 713 c 0
 354 731 372 745 396 755 c 4
 422 766 453 772 488 772 c 0
 594 772 672 718 672 637 c 0
 672 542 562 514 491 478 c 1
 396 425 l 1
 523 425 l 2
 555 425 587 426 603 427 c 0
 618 428 625 430 631 446 c 0
 636 459 640 482 647 522 c 1
 672 522 l 1
 644 347 l 1
 328 347 l 1
58 278 m 0
 58 296 75.0281489844 298 90 298 c 2
 925 298 l 2
 934 298 943 297 950 294 c 0
 956 291 960 287 960 278 c 0
 960 270 957 258 931 258 c 2
 87 258 l 2
 63.0429230124 258 58 270 58 278 c 0
EndSplineSet
EndChar
StartChar: uF2670
Encoding: 992880 992880 115
Width: 1000
Flags: MW
LayerCount: 2
Fore
SplineSet
327 74 m 1
 351 239 l 1
 384 239 l 1
 385 233 386 227 401 224 c 1
 411 221 514 219 530 219 c 2
 673 219 l 1
 673 196 673 194 666 187 c 2
 557 70 l 2
 533 43 518 6 512 -38 c 0
 507 -69 505 -100 505 -131 c 2
 505 -161 l 2
 505 -204 471 -207 460 -207 c 0
 456 -207 417 -208 417 -162 c 0
 417 -66 468 22 535 95 c 2
 573 137 l 1
 455 137 l 2
 443 137 387 137 379 133 c 0
 376 132 367 123 360 74 c 1
 327 74 l 1
322 451 m 1
 322 482 l 1
 566 766 l 2
 574 776 575 776 590 776 c 0
 610 776 612 774 612 756 c 2
 612 482 l 1
 678 482 l 1
 678 451 l 1
 612 451 l 1
 612 381 l 1
 678 381 l 5
 678 381 l 1
 678 350 l 1
 654 352 594 352 566 352 c 0
 536 352 473 352 446 350 c 1
 446 381 l 1
 446 381 l 1
 524 381 l 1
 524 451 l 1
 322 451 l 1
358 482 m 1
 532 482 l 1
 532 683 l 1
 358 482 l 1
58 278 m 0
 58 296 75.0281489844 298 90 298 c 2
 925 298 l 2
 934 298 943 297 950 294 c 0
 956 291 960 287 960 278 c 0
 960 270 957 258 931 258 c 2
 87 258 l 2
 63.0429230124 258 58 270 58 278 c 0
EndSplineSet
EndChar
StartChar: uF2671
Encoding: 992881 992881 116
Width: 1000
Flags: MW
LayerCount: 2
Fore
SplineSet
327 74 m 1
 351 239 l 1
 384 239 l 1
 385 233 386 227 401 224 c 1
 411 221 514 219 530 219 c 2
 673 219 l 1
 673 196 673 194 666 187 c 2
 557 70 l 2
 533 43 518 6 512 -38 c 0
 507 -69 505 -100 505 -131 c 2
 505 -161 l 2
 505 -204 471 -207 460 -207 c 0
 456 -207 417 -208 417 -162 c 0
 417 -66 468 22 535 95 c 2
 573 137 l 1
 455 137 l 2
 443 137 387 137 379 133 c 0
 376 132 367 123 360 74 c 1
 327 74 l 1
339 453 m 0
 339 493 376 499 386 499 c 0
 403 499 433 489 433 455 c 0
 433 432 417 417 397 412 c 0
 394 411 391 411 387 411 c 1
 416 374 460 371 477 371 c 0
 506 371 526 379 539 392 c 5
 561 415 561 452 561 483 c 0
 561 515 562 550 547 571 c 0
 538 584 523 592 499 592 c 0
 470 592 432 586 405 556 c 0
 400 551 399 548 390 548 c 0
 375 548 375 556 375 568 c 2
 375 758 l 2
 375 768 374 776 384 776 c 0
 386 776 387 775 393 773 c 0
 411 767 449 755 502 755 c 0
 532 755 569 759 609 773 c 0
 617 776 618 776 620 776 c 0
 628 776 629 769 629 764 c 0
 629 748 565 674 463 674 c 0
 439 674 432 676 412 679 c 1
 412 593 l 1
 445 614 482 616 502 616 c 0
 606 616 661 556 661 481 c 0
 661 402 592 343 480 343 c 0
 393 343 339 398 339 453 c 0
58 278 m 0
 58 296 75.0281489844 298 90 298 c 2
 925 298 l 2
 934 298 943 297 950 294 c 0
 956 291 960 287 960 278 c 0
 960 270 957 258 931 258 c 2
 87 258 l 2
 63.0429230124 258 58 270 58 278 c 0
EndSplineSet
EndChar
StartChar: uF2672
Encoding: 992882 992882 117
Width: 1000
Flags: MW
LayerCount: 2
Fore
SplineSet
327 74 m 1
 351 239 l 1
 384 239 l 1
 385 233 386 227 401 224 c 1
 411 221 514 219 530 219 c 2
 673 219 l 1
 673 196 673 194 666 187 c 2
 557 70 l 2
 533 43 518 6 512 -38 c 0
 507 -69 505 -100 505 -131 c 2
 505 -161 l 2
 505 -204 471 -207 460 -207 c 0
 456 -207 417 -208 417 -162 c 0
 417 -66 468 22 535 95 c 2
 573 137 l 1
 455 137 l 2
 443 137 387 137 379 133 c 0
 376 132 367 123 360 74 c 1
 327 74 l 1
333 556 m 0
 333 720 448 776 543 776 c 0
 617 776 647 734 647 694 c 0
 647 669 630 653 603 653 c 0
 576 653 559 671 559 693 c 0
 559 713 572 731 597 734 c 1
 581 749 558 750 545 750 c 0
 502 750 464 727 447 696 c 0
 442 686 428 659 428 585 c 2
 428 572 l 1
 457 621 497 622 512 622 c 0
 597 622 667 574 667 483 c 0
 667 396 600 343 503 343 c 0
 454 343 401 359 368 408 c 1
 339 453 333 505 333 556 c 0
429 486 m 0
 429 474 429 428 440 407 c 0
 446 397 465 371 501 371 c 0
 537 371 556 384 564 405 c 4
 572 425 572 453 572 485 c 0
 572 519 572 548 562 568 c 0
 554 587 537 598 505 598 c 0
 467 598 429 567 429 486 c 0
58 278 m 0
 58 296 75.0281489844 298 90 298 c 2
 925 298 l 2
 934 298 943 297 950 294 c 0
 956 291 960 287 960 278 c 0
 960 270 957 258 931 258 c 2
 87 258 l 2
 63.0429230124 258 58 270 58 278 c 0
EndSplineSet
EndChar
StartChar: uF2673
Encoding: 992883 992883 118
Width: 1000
Flags: MW
LayerCount: 2
Fore
SplineSet
333 -95 m 0
 333 -47 363 -10 422 14 c 1
 404 23 392 33 382 44 c 4
 361 67 355 92 355 112 c 0
 355 174 404 226 501 226 c 0
 581 226 645 196 645 130 c 0
 645 92 623 63 574 40 c 1
 590 32 612 21 630 4 c 0
 651 -15 667 -40 667 -78 c 0
 667 -150 611 -207 499 -207 c 0
 409 -207 333 -174 333 -95 c 0
393 -95 m 0
 393 -146 432 -179 501 -179 c 0
 541 -179 607 -169 607 -114 c 0
 607 -83 581 -69 550 -53 c 0
 512 -33 478 -16 454 -4 c 1
 430 -17 393 -44 393 -95 c 0
407 150 m 0
 407 128 427 117 438 111 c 2
 543 57 l 1
 574 76 592 98 592 130 c 0
 592 174 558 200 499 200 c 0
 471 200 407 196 407 150 c 0
348 666 m 1
 348 697 l 1
 482 700 510 771 532 771 c 0
 547 771 546 755 546 740 c 2
 546 424 l 1
 547 404 549 393 562 386 c 4
 574 380 596 378 634 378 c 2
 652 378 l 1
 652 347 l 1
 602 347 l 1
 640 348 l 1
 562 349 l 1
 438 349 l 1
 374 347 l 1
 362 347 l 1
 362 378 l 1
 380 378 l 2
 421 378 444 379 456 387 c 0
 467 394 470 406 470 425 c 2
 470 696 l 1
 438 680 405 667 348 666 c 1
58 278 m 0
 58 296 75.0281489844 298 90 298 c 2
 925 298 l 2
 934 298 943 297 950 294 c 0
 956 291 960 287 960 278 c 0
 960 270 957 258 931 258 c 2
 87 258 l 2
 63.0429230124 258 58 270 58 278 c 0
EndSplineSet
EndChar
StartChar: uF2674
Encoding: 992884 992884 119
Width: 1000
Flags: MW
LayerCount: 2
Fore
SplineSet
333 -95 m 0
 333 -47 363 -10 422 14 c 1
 404 23 392 33 382 44 c 4
 361 67 355 92 355 112 c 0
 355 174 404 226 501 226 c 0
 581 226 645 196 645 130 c 0
 645 92 623 63 574 40 c 1
 590 32 612 21 630 4 c 0
 651 -15 667 -40 667 -78 c 0
 667 -150 611 -207 499 -207 c 0
 409 -207 333 -174 333 -95 c 0
393 -95 m 0
 393 -146 432 -179 501 -179 c 0
 541 -179 607 -169 607 -114 c 0
 607 -83 581 -69 550 -53 c 0
 512 -33 478 -16 454 -4 c 1
 430 -17 393 -44 393 -95 c 0
407 150 m 0
 407 128 427 117 438 111 c 2
 543 57 l 1
 574 76 592 98 592 130 c 0
 592 174 558 200 499 200 c 0
 471 200 407 196 407 150 c 0
320 432 m 0
 320 468 346 489 376 489 c 0
 406 489 432 466 432 433 c 0
 432 401 410 387 393 380 c 1
 402 377 431 365 488 365 c 0
 559 365 577 411 577 454 c 0
 577 530 530 548 488 548 c 2
 467 548 l 2
 456 548 446 551 446 560 c 0
 446 565 450 568 457 570 c 0
 471 574 495 573 509 579 c 0
 540 592 560 632 560 678 c 0
 560 733 524 747 493 747 c 0
 466 747 414 735 384 673 c 1
 392 674 394 675 398 675 c 0
 426 675 449 654 449 624 c 0
 449 594 427 573 399 573 c 0
 381 573 348 584 348 627 c 0
 348 641 350 656 355 670 c 4
 373 724 423 772 498 772 c 0
 578 772 652 733 652 675 c 0
 652 630 622 590 550 563 c 1
 602 554 680 520 680 456 c 0
 680 401 615 336 494 336 c 0
 349 336 320 394 320 432 c 0
58 278 m 0
 58 296 75.0281489844 298 90 298 c 2
 925 298 l 2
 934 298 943 297 950 294 c 0
 956 291 960 287 960 278 c 0
 960 270 957 258 931 258 c 2
 87 258 l 2
 63.0429230124 258 58 270 58 278 c 0
EndSplineSet
EndChar
StartChar: uF2675
Encoding: 992885 992885 120
Width: 1000
Flags: MW
LayerCount: 2
Fore
SplineSet
333 -95 m 0
 333 -47 363 -10 422 14 c 1
 404 23 392 33 382 44 c 4
 361 67 355 92 355 112 c 0
 355 174 404 226 501 226 c 0
 581 226 645 196 645 130 c 0
 645 92 623 63 574 40 c 1
 590 32 612 21 630 4 c 0
 651 -15 667 -40 667 -78 c 0
 667 -150 611 -207 499 -207 c 0
 409 -207 333 -174 333 -95 c 0
393 -95 m 0
 393 -146 432 -179 501 -179 c 0
 541 -179 607 -169 607 -114 c 0
 607 -83 581 -69 550 -53 c 0
 512 -33 478 -16 454 -4 c 1
 430 -17 393 -44 393 -95 c 0
407 150 m 0
 407 128 427 117 438 111 c 2
 543 57 l 1
 574 76 592 98 592 130 c 0
 592 174 558 200 499 200 c 0
 471 200 407 196 407 150 c 0
339 453 m 0
 339 493 376 499 386 499 c 0
 403 499 433 489 433 455 c 0
 433 432 417 417 397 412 c 0
 394 411 391 411 387 411 c 1
 416 374 460 371 477 371 c 0
 506 371 526 379 539 392 c 5
 561 415 561 452 561 483 c 0
 561 515 562 550 547 571 c 0
 538 584 523 592 499 592 c 0
 470 592 432 586 405 556 c 0
 400 551 399 548 390 548 c 0
 375 548 375 556 375 568 c 2
 375 758 l 2
 375 768 374 776 384 776 c 0
 386 776 387 775 393 773 c 0
 411 767 449 755 502 755 c 0
 532 755 569 759 609 773 c 0
 617 776 618 776 620 776 c 0
 628 776 629 769 629 764 c 0
 629 748 565 674 463 674 c 0
 439 674 432 676 412 679 c 1
 412 593 l 1
 445 614 482 616 502 616 c 0
 606 616 661 556 661 481 c 0
 661 402 592 343 480 343 c 0
 393 343 339 398 339 453 c 0
58 278 m 0
 58 296 75.0281489844 298 90 298 c 2
 925 298 l 2
 934 298 943 297 950 294 c 0
 956 291 960 287 960 278 c 0
 960 270 957 258 931 258 c 2
 87 258 l 2
 63.0429230124 258 58 270 58 278 c 0
EndSplineSet
EndChar
StartChar: uF2676
Encoding: 992886 992886 121
Width: 1000
Flags: MW
LayerCount: 2
Fore
SplineSet
333 -95 m 0
 333 -47 363 -10 422 14 c 1
 404 23 392 33 382 44 c 4
 361 67 355 92 355 112 c 0
 355 174 404 226 501 226 c 0
 581 226 645 196 645 130 c 0
 645 92 623 63 574 40 c 1
 590 32 612 21 630 4 c 0
 651 -15 667 -40 667 -78 c 0
 667 -150 611 -207 499 -207 c 0
 409 -207 333 -174 333 -95 c 0
393 -95 m 0
 393 -146 432 -179 501 -179 c 0
 541 -179 607 -169 607 -114 c 0
 607 -83 581 -69 550 -53 c 0
 512 -33 478 -16 454 -4 c 1
 430 -17 393 -44 393 -95 c 0
407 150 m 0
 407 128 427 117 438 111 c 2
 543 57 l 1
 574 76 592 98 592 130 c 0
 592 174 558 200 499 200 c 0
 471 200 407 196 407 150 c 0
327 624 m 1
 351 789 l 1
 384 789 l 1
 385 783 386 777 401 774 c 1
 411 771 514 769 530 769 c 2
 673 769 l 1
 673 746 673 744 666 737 c 2
 557 620 l 2
 533 593 518 556 512 512 c 0
 507 481 505 450 505 419 c 2
 505 389 l 2
 505 346 471 343 460 343 c 0
 456 343 417 342 417 388 c 0
 417 484 468 572 535 645 c 2
 573 687 l 1
 455 687 l 2
 443 687 387 687 379 683 c 0
 376 682 367 673 360 624 c 1
 327 624 l 1
58 278 m 0
 58 296 75.0281489844 298 90 298 c 2
 925 298 l 2
 934 298 943 297 950 294 c 0
 956 291 960 287 960 278 c 0
 960 270 957 258 931 258 c 2
 87 258 l 2
 63.0429230124 258 58 270 58 278 c 0
EndSplineSet
EndChar
StartChar: uF2677
Encoding: 992887 992887 122
Width: 1000
Flags: MW
LayerCount: 2
Fore
SplineSet
333 86 m 0
 333 132 352 169 384 193 c 1
 413 214 454 226 501 226 c 0
 667 226 667 58 667 14 c 0
 667 -152 557 -207 466 -207 c 0
 388 -207 353 -170 353 -126 c 0
 353 -101 370 -84 397 -84 c 0
 424 -84 440 -103 440 -125 c 0
 440 -154 414 -163 406 -165 c 1
 427 -178 452 -179 465 -179 c 0
 513 -179 543 -150 555 -125 c 0
 565 -103 572 -64 572 -17 c 2
 572 -2 l 1
 545 -48 512 -52 488 -52 c 0
 402 -52 333 -4 333 86 c 0
428 85 m 0
 428 50 428 20 438 -1 c 0
 447 -19 463 -29 494 -29 c 0
 553 -29 571 37 571 78 c 0
 571 100 571 138 563 159 c 0
 560 165 544 200 503 200 c 0
 469 200 450 190 440 172 c 0
 428 151 428 119 428 85 c 0
348 666 m 1
 348 697 l 1
 482 700 510 771 532 771 c 0
 547 771 546 755 546 740 c 2
 546 424 l 1
 547 404 549 393 562 386 c 0
 574 380 596 378 634 378 c 2
 652 378 l 1
 652 347 l 1
 602 347 l 1
 640 348 l 1
 562 349 l 1
 438 349 l 1
 374 347 l 1
 362 347 l 1
 362 378 l 1
 380 378 l 2
 421 378 444 379 456 387 c 0
 467 394 470 406 470 425 c 2
 470 696 l 1
 438 680 405 667 348 666 c 1
58 278 m 0
 58 296 75.0281489844 298 90 298 c 2
 925 298 l 2
 934 298 943 297 950 294 c 0
 956 291 960 287 960 278 c 0
 960 270 957 258 931 258 c 2
 87 258 l 2
 63.0429230124 258 58 270 58 278 c 0
EndSplineSet
EndChar
StartChar: uF2678
Encoding: 992888 992888 123
Width: 1000
Flags: MW
LayerCount: 2
Fore
SplineSet
333 86 m 0
 333 132 352 169 384 193 c 5
 413 214 454 226 501 226 c 0
 667 226 667 58 667 14 c 0
 667 -152 557 -207 466 -207 c 0
 388 -207 353 -170 353 -126 c 0
 353 -101 370 -84 397 -84 c 0
 424 -84 440 -103 440 -125 c 0
 440 -154 414 -163 406 -165 c 1
 427 -178 452 -179 465 -179 c 0
 513 -179 543 -150 555 -125 c 0
 565 -103 572 -64 572 -17 c 2
 572 -2 l 1
 545 -48 512 -52 488 -52 c 0
 402 -52 333 -4 333 86 c 0
428 85 m 0
 428 50 428 20 438 -1 c 0
 447 -19 463 -29 494 -29 c 0
 553 -29 571 37 571 78 c 0
 571 100 571 138 563 159 c 0
 560 165 544 200 503 200 c 0
 469 200 450 190 440 172 c 0
 428 151 428 119 428 85 c 0
328 347 m 1
 328 393 l 2
 328 413 335 415 352 426 c 0
 505 525 580 560 580 636 c 0
 580 698 533 741 469 741 c 0
 434 741 409 731 388 717 c 1
 411 713 433 696 433 665 c 0
 433 635 409 613 381 613 c 0
 353 613 328 633 328 667 c 0
 328 684 333 700 342 713 c 0
 354 731 372 745 396 755 c 4
 422 766 453 772 488 772 c 0
 594 772 672 718 672 637 c 0
 672 542 562 514 491 478 c 1
 396 425 l 1
 523 425 l 2
 555 425 587 426 603 427 c 0
 618 428 625 430 631 446 c 0
 636 459 640 482 647 522 c 1
 672 522 l 1
 644 347 l 1
 328 347 l 1
58 278 m 0
 58 296 75.0281489844 298 90 298 c 2
 925 298 l 2
 934 298 943 297 950 294 c 0
 956 291 960 287 960 278 c 0
 960 270 957 258 931 258 c 2
 87 258 l 2
 63.0429230124 258 58 270 58 278 c 0
EndSplineSet
EndChar
StartChar: uF2679
Encoding: 992889 992889 124
Width: 1000
Flags: MW
LayerCount: 2
Fore
SplineSet
333 86 m 0
 333 132 352 169 384 193 c 5
 413 214 454 226 501 226 c 0
 667 226 667 58 667 14 c 0
 667 -152 557 -207 466 -207 c 0
 388 -207 353 -170 353 -126 c 0
 353 -101 370 -84 397 -84 c 0
 424 -84 440 -103 440 -125 c 0
 440 -154 414 -163 406 -165 c 1
 427 -178 452 -179 465 -179 c 0
 513 -179 543 -150 555 -125 c 0
 565 -103 572 -64 572 -17 c 2
 572 -2 l 1
 545 -48 512 -52 488 -52 c 0
 402 -52 333 -4 333 86 c 0
428 85 m 0
 428 50 428 20 438 -1 c 0
 447 -19 463 -29 494 -29 c 0
 553 -29 571 37 571 78 c 0
 571 100 571 138 563 159 c 0
 560 165 544 200 503 200 c 0
 469 200 450 190 440 172 c 0
 428 151 428 119 428 85 c 0
322 451 m 1
 322 482 l 1
 566 766 l 2
 574 776 575 776 590 776 c 0
 610 776 612 774 612 756 c 2
 612 482 l 1
 678 482 l 1
 678 451 l 1
 612 451 l 1
 612 381 l 1
 678 381 l 5
 678 381 l 1
 678 350 l 1
 654 352 594 352 566 352 c 0
 536 352 473 352 446 350 c 1
 446 381 l 1
 446 381 l 1
 524 381 l 1
 524 451 l 1
 322 451 l 1
358 482 m 1
 532 482 l 1
 532 683 l 1
 358 482 l 1
58 278 m 0
 58 296 75.0281489844 298 90 298 c 2
 925 298 l 2
 934 298 943 297 950 294 c 0
 956 291 960 287 960 278 c 0
 960 270 957 258 931 258 c 2
 87 258 l 2
 63.0429230124 258 58 270 58 278 c 0
EndSplineSet
EndChar
StartChar: uF267A
Encoding: 992890 992890 125
Width: 1000
Flags: MW
LayerCount: 2
Fore
SplineSet
333 86 m 0
 333 132 352 169 384 193 c 5
 413 214 454 226 501 226 c 0
 667 226 667 58 667 14 c 0
 667 -152 557 -207 466 -207 c 0
 388 -207 353 -170 353 -126 c 0
 353 -101 370 -84 397 -84 c 0
 424 -84 440 -103 440 -125 c 0
 440 -154 414 -163 406 -165 c 1
 427 -178 452 -179 465 -179 c 0
 513 -179 543 -150 555 -125 c 0
 565 -103 572 -64 572 -17 c 2
 572 -2 l 1
 545 -48 512 -52 488 -52 c 0
 402 -52 333 -4 333 86 c 0
428 85 m 0
 428 50 428 20 438 -1 c 0
 447 -19 463 -29 494 -29 c 0
 553 -29 571 37 571 78 c 0
 571 100 571 138 563 159 c 0
 560 165 544 200 503 200 c 0
 469 200 450 190 440 172 c 0
 428 151 428 119 428 85 c 0
339 453 m 0
 339 493 376 499 386 499 c 0
 403 499 433 489 433 455 c 0
 433 432 417 417 397 412 c 0
 394 411 391 411 387 411 c 1
 416 374 460 371 477 371 c 0
 506 371 526 379 539 392 c 5
 561 415 561 452 561 483 c 0
 561 515 562 550 547 571 c 0
 538 584 523 592 499 592 c 0
 470 592 432 586 405 556 c 0
 400 551 399 548 390 548 c 0
 375 548 375 556 375 568 c 2
 375 758 l 2
 375 768 374 776 384 776 c 0
 386 776 387 775 393 773 c 0
 411 767 449 755 502 755 c 0
 532 755 569 759 609 773 c 0
 617 776 618 776 620 776 c 0
 628 776 629 769 629 764 c 0
 629 748 565 674 463 674 c 0
 439 674 432 676 412 679 c 1
 412 593 l 1
 445 614 482 616 502 616 c 0
 606 616 661 556 661 481 c 0
 661 402 592 343 480 343 c 0
 393 343 339 398 339 453 c 0
58 278 m 0
 58 296 75.0281489844 298 90 298 c 2
 925 298 l 2
 934 298 943 297 950 294 c 0
 956 291 960 287 960 278 c 0
 960 270 957 258 931 258 c 2
 87 258 l 2
 63.0429230124 258 58 270 58 278 c 0
EndSplineSet
EndChar
StartChar: uF267B
Encoding: 992891 992891 126
Width: 1000
Flags: MW
LayerCount: 2
Fore
SplineSet
333 86 m 0
 333 132 352 169 384 193 c 5
 413 214 454 226 501 226 c 0
 667 226 667 58 667 14 c 0
 667 -152 557 -207 466 -207 c 0
 388 -207 353 -170 353 -126 c 0
 353 -101 370 -84 397 -84 c 0
 424 -84 440 -103 440 -125 c 0
 440 -154 414 -163 406 -165 c 1
 427 -178 452 -179 465 -179 c 0
 513 -179 543 -150 555 -125 c 0
 565 -103 572 -64 572 -17 c 2
 572 -2 l 1
 545 -48 512 -52 488 -52 c 0
 402 -52 333 -4 333 86 c 0
428 85 m 0
 428 50 428 20 438 -1 c 0
 447 -19 463 -29 494 -29 c 0
 553 -29 571 37 571 78 c 0
 571 100 571 138 563 159 c 0
 560 165 544 200 503 200 c 0
 469 200 450 190 440 172 c 0
 428 151 428 119 428 85 c 0
327 624 m 1
 351 789 l 1
 384 789 l 1
 385 783 386 777 401 774 c 1
 411 771 514 769 530 769 c 2
 673 769 l 1
 673 746 673 744 666 737 c 2
 557 620 l 2
 533 593 518 556 512 512 c 0
 507 481 505 450 505 419 c 2
 505 389 l 2
 505 346 471 343 460 343 c 0
 456 343 417 342 417 388 c 0
 417 484 468 572 535 645 c 2
 573 687 l 1
 455 687 l 2
 443 687 387 687 379 683 c 0
 376 682 367 673 360 624 c 1
 327 624 l 1
58 278 m 0
 58 296 75.0281489844 298 90 298 c 2
 925 298 l 2
 934 298 943 297 950 294 c 0
 956 291 960 287 960 278 c 0
 960 270 957 258 931 258 c 2
 87 258 l 2
 63.0429230124 258 58 270 58 278 c 0
EndSplineSet
EndChar
StartChar: uF267C
Encoding: 992892 992892 127
Width: 1000
Flags: MW
LayerCount: 2
Fore
SplineSet
333 86 m 0
 333 132 352 169 384 193 c 5
 413 214 454 226 501 226 c 0
 667 226 667 58 667 14 c 0
 667 -152 557 -207 466 -207 c 0
 388 -207 353 -170 353 -126 c 0
 353 -101 370 -84 397 -84 c 0
 424 -84 440 -103 440 -125 c 0
 440 -154 414 -163 406 -165 c 1
 427 -178 452 -179 465 -179 c 0
 513 -179 543 -150 555 -125 c 0
 565 -103 572 -64 572 -17 c 2
 572 -2 l 1
 545 -48 512 -52 488 -52 c 0
 402 -52 333 -4 333 86 c 0
428 85 m 0
 428 50 428 20 438 -1 c 0
 447 -19 463 -29 494 -29 c 0
 553 -29 571 37 571 78 c 0
 571 100 571 138 563 159 c 0
 560 165 544 200 503 200 c 0
 469 200 450 190 440 172 c 0
 428 151 428 119 428 85 c 0
333 455 m 0
 333 503 363 540 422 564 c 1
 404 573 392 583 382 594 c 4
 361 617 355 642 355 662 c 0
 355 724 404 776 501 776 c 0
 581 776 645 746 645 680 c 0
 645 642 623 613 574 590 c 1
 590 582 612 571 630 554 c 0
 651 535 667 510 667 472 c 0
 667 400 611 343 499 343 c 0
 409 343 333 376 333 455 c 0
393 455 m 0
 393 404 432 371 501 371 c 0
 541 371 607 381 607 436 c 0
 607 467 581 481 550 497 c 0
 512 517 478 534 454 546 c 1
 430 533 393 506 393 455 c 0
407 700 m 0
 407 678 427 667 438 661 c 2
 543 607 l 1
 574 626 592 648 592 680 c 0
 592 724 558 750 499 750 c 0
 471 750 407 746 407 700 c 0
58 278 m 0
 58 296 75.0281489844 298 90 298 c 2
 925 298 l 2
 934 298 943 297 950 294 c 0
 956 291 960 287 960 278 c 0
 960 270 957 258 931 258 c 2
 87 258 l 2
 63.0429230124 258 58 270 58 278 c 0
EndSplineSet
EndChar
StartChar: uF267D
Encoding: 992893 992893 128
Width: 1000
Flags: MW
LayerCount: 2
Fore
SplineSet
162 116 m 1
 162 147 l 1
 296 150 324 221 346 221 c 0
 361 221 360 205 360 190 c 2
 360 -126 l 1
 361 -146 363 -157 376 -164 c 0
 388 -170 410 -172 448 -172 c 2
 467 -172 l 1
 467 -203 l 1
 416 -203 l 1
 455 -202 l 1
 377 -201 l 1
 253 -201 l 1
 188 -203 l 1
 176 -203 l 1
 176 -172 l 1
 195 -172 l 2
 236 -172 259 -171 271 -163 c 0
 282 -156 285 -144 285 -125 c 2
 285 146 l 1
 253 130 219 117 162 116 c 1
499 7 m 0
 499 48 498 127 544 178 c 0
 569 206 608 226 668 226 c 0
 721 226 758 210 783 187 c 0
 838 137 837 50 837 7 c 0
 837 -37 836 -117 786 -166 c 0
 761 -191 724 -207 668 -207 c 0
 612 -207 575 -191 550 -166 c 0
 500 -117 499 -36 499 7 c 0
588 15 m 0
 588 -21 588 -88 594 -122 c 0
 603 -169 643 -184 668 -184 c 0
 689 -184 733 -174 743 -114 c 0
 748 -80 748 -21 748 15 c 0
 748 68 748 137 736 161 c 0
 723 190 694 202 668 202 c 0
 651 202 602 196 594 138 c 0
 588 104 588 62 588 15 c 0
348 666 m 1
 348 697 l 1
 482 700 510 771 532 771 c 0
 547 771 546 755 546 740 c 2
 546 424 l 1
 547 404 549 393 562 386 c 4
 574 380 596 378 634 378 c 2
 652 378 l 1
 652 347 l 1
 602 347 l 1
 640 348 l 1
 562 349 l 1
 438 349 l 1
 374 347 l 1
 362 347 l 1
 362 378 l 1
 380 378 l 2
 421 378 444 379 456 387 c 0
 467 394 470 406 470 425 c 2
 470 696 l 1
 438 680 405 667 348 666 c 1
58 278 m 0
 58 296 75.0281489844 298 90 298 c 2
 925 298 l 2
 934 298 943 297 950 294 c 0
 956 291 960 287 960 278 c 0
 960 270 957 258 931 258 c 2
 87 258 l 2
 63.0429230124 258 58 270 58 278 c 0
EndSplineSet
EndChar
StartChar: uF267E
Encoding: 992894 992894 129
Width: 1000
Flags: MW
LayerCount: 2
Fore
SplineSet
162 116 m 1
 162 147 l 1
 296 150 324 221 346 221 c 0
 361 221 360 205 360 190 c 2
 360 -126 l 1
 361 -146 363 -157 376 -164 c 0
 388 -170 410 -172 448 -172 c 2
 467 -172 l 1
 467 -203 l 1
 416 -203 l 1
 455 -202 l 1
 377 -201 l 1
 253 -201 l 1
 188 -203 l 1
 176 -203 l 1
 176 -172 l 1
 195 -172 l 2
 236 -172 259 -171 271 -163 c 0
 282 -156 285 -144 285 -125 c 2
 285 146 l 1
 253 130 219 117 162 116 c 1
499 7 m 0
 499 48 498 127 544 178 c 0
 569 206 608 226 668 226 c 0
 721 226 758 210 783 187 c 0
 838 137 837 50 837 7 c 0
 837 -37 836 -117 786 -166 c 0
 761 -191 724 -207 668 -207 c 0
 612 -207 575 -191 550 -166 c 0
 500 -117 499 -36 499 7 c 0
588 15 m 0
 588 -21 588 -88 594 -122 c 0
 603 -169 643 -184 668 -184 c 0
 689 -184 733 -174 743 -114 c 0
 748 -80 748 -21 748 15 c 0
 748 68 748 137 736 161 c 0
 723 190 694 202 668 202 c 0
 651 202 602 196 594 138 c 0
 588 104 588 62 588 15 c 0
320 432 m 0
 320 468 346 489 376 489 c 0
 406 489 432 466 432 433 c 0
 432 401 410 387 393 380 c 1
 402 377 431 365 488 365 c 0
 559 365 577 411 577 454 c 0
 577 530 530 548 488 548 c 2
 467 548 l 2
 456 548 446 551 446 560 c 0
 446 565 450 568 457 570 c 0
 471 574 495 573 509 579 c 0
 540 592 560 632 560 678 c 0
 560 733 524 747 493 747 c 0
 466 747 414 735 384 673 c 1
 392 674 394 675 398 675 c 0
 426 675 449 654 449 624 c 0
 449 594 427 573 399 573 c 0
 381 573 348 584 348 627 c 0
 348 641 350 656 355 670 c 4
 373 724 423 772 498 772 c 0
 578 772 652 733 652 675 c 0
 652 630 622 590 550 563 c 1
 602 554 680 520 680 456 c 0
 680 401 615 336 494 336 c 0
 349 336 320 394 320 432 c 0
58 278 m 0
 58 296 75.0281489844 298 90 298 c 2
 925 298 l 2
 934 298 943 297 950 294 c 0
 956 291 960 287 960 278 c 0
 960 270 957 258 931 258 c 2
 87 258 l 2
 63.0429230124 258 58 270 58 278 c 0
EndSplineSet
EndChar
StartChar: uF267F
Encoding: 992895 992895 130
Width: 1000
Flags: MW
LayerCount: 2
Fore
SplineSet
162 116 m 1
 162 147 l 1
 296 150 324 221 346 221 c 0
 361 221 360 205 360 190 c 2
 360 -126 l 1
 361 -146 363 -157 376 -164 c 0
 388 -170 410 -172 448 -172 c 2
 467 -172 l 1
 467 -203 l 1
 416 -203 l 1
 455 -202 l 1
 377 -201 l 1
 253 -201 l 1
 188 -203 l 1
 176 -203 l 1
 176 -172 l 1
 195 -172 l 2
 236 -172 259 -171 271 -163 c 0
 282 -156 285 -144 285 -125 c 2
 285 146 l 1
 253 130 219 117 162 116 c 1
499 7 m 0
 499 48 498 127 544 178 c 0
 569 206 608 226 668 226 c 0
 721 226 758 210 783 187 c 0
 838 137 837 50 837 7 c 0
 837 -37 836 -117 786 -166 c 0
 761 -191 724 -207 668 -207 c 0
 612 -207 575 -191 550 -166 c 0
 500 -117 499 -36 499 7 c 0
588 15 m 0
 588 -21 588 -88 594 -122 c 0
 603 -169 643 -184 668 -184 c 0
 689 -184 733 -174 743 -114 c 0
 748 -80 748 -21 748 15 c 0
 748 68 748 137 736 161 c 0
 723 190 694 202 668 202 c 0
 651 202 602 196 594 138 c 0
 588 104 588 62 588 15 c 0
327 624 m 1
 351 789 l 1
 384 789 l 1
 385 783 386 777 401 774 c 1
 411 771 514 769 530 769 c 2
 673 769 l 1
 673 746 673 744 666 737 c 2
 557 620 l 2
 533 593 518 556 512 512 c 0
 507 481 505 450 505 419 c 2
 505 389 l 2
 505 346 471 343 460 343 c 0
 456 343 417 342 417 388 c 0
 417 484 468 572 535 645 c 2
 573 687 l 1
 455 687 l 2
 443 687 387 687 379 683 c 0
 376 682 367 673 360 624 c 1
 327 624 l 1
58 278 m 0
 58 296 75.0281489844 298 90 298 c 2
 925 298 l 2
 934 298 943 297 950 294 c 0
 956 291 960 287 960 278 c 0
 960 270 957 258 931 258 c 2
 87 258 l 2
 63.0429230124 258 58 270 58 278 c 0
EndSplineSet
EndChar
StartChar: uF2680
Encoding: 992896 992896 131
Width: 1000
Flags: MW
LayerCount: 2
Fore
SplineSet
162 116 m 1
 162 147 l 1
 296 150 324 221 346 221 c 0
 361 221 360 205 360 190 c 2
 360 -126 l 1
 361 -146 363 -157 376 -164 c 0
 388 -170 410 -172 448 -172 c 2
 467 -172 l 1
 467 -203 l 1
 416 -203 l 1
 455 -202 l 1
 377 -201 l 1
 253 -201 l 1
 188 -203 l 1
 176 -203 l 1
 176 -172 l 1
 195 -172 l 2
 236 -172 259 -171 271 -163 c 0
 282 -156 285 -144 285 -125 c 2
 285 146 l 1
 253 130 219 117 162 116 c 1
499 7 m 0
 499 48 498 127 544 178 c 0
 569 206 608 226 668 226 c 0
 721 226 758 210 783 187 c 0
 838 137 837 50 837 7 c 0
 837 -37 836 -117 786 -166 c 0
 761 -191 724 -207 668 -207 c 0
 612 -207 575 -191 550 -166 c 0
 500 -117 499 -36 499 7 c 0
588 15 m 0
 588 -21 588 -88 594 -122 c 0
 603 -169 643 -184 668 -184 c 0
 689 -184 733 -174 743 -114 c 0
 748 -80 748 -21 748 15 c 0
 748 68 748 137 736 161 c 0
 723 190 694 202 668 202 c 0
 651 202 602 196 594 138 c 0
 588 104 588 62 588 15 c 0
333 636 m 0
 333 682 352 719 384 743 c 5
 413 764 454 776 501 776 c 0
 667 776 667 608 667 564 c 0
 667 398 557 343 466 343 c 0
 388 343 353 380 353 424 c 0
 353 449 370 466 397 466 c 0
 424 466 440 447 440 425 c 0
 440 396 414 387 406 385 c 1
 427 372 452 371 465 371 c 0
 513 371 543 400 555 425 c 0
 565 447 572 486 572 533 c 2
 572 548 l 1
 545 502 512 498 488 498 c 0
 402 498 333 546 333 636 c 0
428 635 m 0
 428 600 428 570 438 549 c 0
 447 531 463 521 494 521 c 0
 553 521 571 587 571 628 c 0
 571 650 571 688 563 709 c 0
 560 715 544 750 503 750 c 0
 469 750 450 740 440 722 c 0
 428 701 428 669 428 635 c 0
58 278 m 0
 58 296 75.0281489844 298 90 298 c 2
 925 298 l 2
 934 298 943 297 950 294 c 0
 956 291 960 287 960 278 c 0
 960 270 957 258 931 258 c 2
 87 258 l 2
 63.0429230124 258 58 270 58 278 c 0
EndSplineSet
EndChar
StartChar: uF2681
Encoding: 992897 992897 132
Width: 1000
Flags: MW
LayerCount: 2
Fore
SplineSet
522 116 m 1
 522 147 l 1
 656 150 684 221 706 221 c 0
 721 221 720 205 720 190 c 2
 720 -126 l 1
 721 -146 723 -157 736 -164 c 0
 748 -170 770 -172 808 -172 c 2
 828 -172 l 1
 828 -203 l 1
 776 -203 l 1
 816 -202 l 1
 738 -201 l 1
 614 -201 l 1
 548 -203 l 1
 536 -203 l 1
 536 -172 l 1
 556 -172 l 2
 597 -172 620 -171 632 -163 c 0
 643 -156 646 -144 646 -125 c 2
 646 146 l 1
 614 130 579 117 522 116 c 1
172 116 m 1
 172 147 l 1
 306 150 334 221 356 221 c 0
 371 221 370 205 370 190 c 2
 370 -126 l 1
 371 -146 373 -157 386 -164 c 0
 398 -170 420 -172 458 -172 c 2
 478 -172 l 1
 478 -203 l 1
 426 -203 l 1
 466 -202 l 1
 388 -201 l 1
 264 -201 l 1
 198 -203 l 1
 186 -203 l 1
 186 -172 l 1
 206 -172 l 2
 247 -172 270 -171 282 -163 c 0
 293 -156 296 -144 296 -125 c 2
 296 146 l 1
 264 130 229 117 172 116 c 1
348 666 m 1
 348 697 l 1
 482 700 510 771 532 771 c 0
 547 771 546 755 546 740 c 2
 546 424 l 1
 547 404 549 393 562 386 c 4
 574 380 596 378 634 378 c 2
 652 378 l 1
 652 347 l 1
 602 347 l 1
 640 348 l 1
 562 349 l 1
 438 349 l 1
 374 347 l 1
 362 347 l 1
 362 378 l 1
 380 378 l 2
 421 378 444 379 456 387 c 0
 467 394 470 406 470 425 c 2
 470 696 l 1
 438 680 405 667 348 666 c 1
58 278 m 0
 58 296 75.0281489844 298 90 298 c 2
 925 298 l 2
 934 298 943 297 950 294 c 0
 956 291 960 287 960 278 c 0
 960 270 957 258 931 258 c 2
 87 258 l 2
 63.0429230124 258 58 270 58 278 c 0
EndSplineSet
EndChar
StartChar: uF2682
Encoding: 992898 992898 133
Width: 1000
Flags: MW
LayerCount: 2
Fore
SplineSet
522 116 m 1
 522 147 l 1
 656 150 684 221 706 221 c 0
 721 221 720 205 720 190 c 2
 720 -126 l 1
 721 -146 723 -157 736 -164 c 0
 748 -170 770 -172 808 -172 c 2
 828 -172 l 1
 828 -203 l 1
 776 -203 l 1
 816 -202 l 1
 738 -201 l 1
 614 -201 l 1
 548 -203 l 1
 536 -203 l 1
 536 -172 l 1
 556 -172 l 2
 597 -172 620 -171 632 -163 c 0
 643 -156 646 -144 646 -125 c 2
 646 146 l 1
 614 130 579 117 522 116 c 1
172 116 m 1
 172 147 l 1
 306 150 334 221 356 221 c 0
 371 221 370 205 370 190 c 2
 370 -126 l 1
 371 -146 373 -157 386 -164 c 0
 398 -170 420 -172 458 -172 c 2
 478 -172 l 1
 478 -203 l 1
 426 -203 l 1
 466 -202 l 1
 388 -201 l 1
 264 -201 l 1
 198 -203 l 1
 186 -203 l 1
 186 -172 l 1
 206 -172 l 2
 247 -172 270 -171 282 -163 c 0
 293 -156 296 -144 296 -125 c 2
 296 146 l 1
 264 130 229 117 172 116 c 1
328 347 m 1
 328 393 l 2
 328 413 335 415 352 426 c 0
 505 525 580 560 580 636 c 0
 580 698 533 741 469 741 c 0
 434 741 409 731 388 717 c 1
 411 713 433 696 433 665 c 0
 433 635 409 613 381 613 c 0
 353 613 328 633 328 667 c 0
 328 684 333 700 342 713 c 0
 354 731 372 745 396 755 c 4
 422 766 453 772 488 772 c 0
 594 772 672 718 672 637 c 0
 672 542 562 514 491 478 c 1
 396 425 l 1
 523 425 l 2
 555 425 587 426 603 427 c 0
 618 428 625 430 631 446 c 0
 636 459 640 482 647 522 c 1
 672 522 l 1
 644 347 l 1
 328 347 l 1
58 278 m 0
 58 296 75.0281489844 298 90 298 c 2
 925 298 l 2
 934 298 943 297 950 294 c 0
 956 291 960 287 960 278 c 0
 960 270 957 258 931 258 c 2
 87 258 l 2
 63.0429230124 258 58 270 58 278 c 0
EndSplineSet
EndChar
StartChar: uF2683
Encoding: 992899 992899 134
Width: 1000
Flags: MW
LayerCount: 2
Fore
SplineSet
522 116 m 1
 522 147 l 1
 656 150 684 221 706 221 c 0
 721 221 720 205 720 190 c 2
 720 -126 l 1
 721 -146 723 -157 736 -164 c 0
 748 -170 770 -172 808 -172 c 2
 828 -172 l 1
 828 -203 l 1
 776 -203 l 1
 816 -202 l 1
 738 -201 l 1
 614 -201 l 1
 548 -203 l 1
 536 -203 l 1
 536 -172 l 1
 556 -172 l 2
 597 -172 620 -171 632 -163 c 0
 643 -156 646 -144 646 -125 c 2
 646 146 l 1
 614 130 579 117 522 116 c 1
172 116 m 1
 172 147 l 1
 306 150 334 221 356 221 c 0
 371 221 370 205 370 190 c 2
 370 -126 l 1
 371 -146 373 -157 386 -164 c 0
 398 -170 420 -172 458 -172 c 2
 478 -172 l 1
 478 -203 l 1
 426 -203 l 1
 466 -202 l 1
 388 -201 l 1
 264 -201 l 1
 198 -203 l 1
 186 -203 l 1
 186 -172 l 1
 206 -172 l 2
 247 -172 270 -171 282 -163 c 0
 293 -156 296 -144 296 -125 c 2
 296 146 l 1
 264 130 229 117 172 116 c 1
320 432 m 0
 320 468 346 489 376 489 c 0
 406 489 432 466 432 433 c 0
 432 401 410 387 393 380 c 1
 402 377 431 365 488 365 c 0
 559 365 577 411 577 454 c 0
 577 530 530 548 488 548 c 2
 467 548 l 2
 456 548 446 551 446 560 c 0
 446 565 450 568 457 570 c 0
 471 574 495 573 509 579 c 0
 540 592 560 632 560 678 c 0
 560 733 524 747 493 747 c 0
 466 747 414 735 384 673 c 1
 392 674 394 675 398 675 c 0
 426 675 449 654 449 624 c 0
 449 594 427 573 399 573 c 0
 381 573 348 584 348 627 c 0
 348 641 350 656 355 670 c 4
 373 724 423 772 498 772 c 0
 578 772 652 733 652 675 c 0
 652 630 622 590 550 563 c 1
 602 554 680 520 680 456 c 0
 680 401 615 336 494 336 c 0
 349 336 320 394 320 432 c 0
58 278 m 0
 58 296 75.0281489844 298 90 298 c 2
 925 298 l 2
 934 298 943 297 950 294 c 0
 956 291 960 287 960 278 c 0
 960 270 957 258 931 258 c 2
 87 258 l 2
 63.0429230124 258 58 270 58 278 c 0
EndSplineSet
EndChar
StartChar: uF2685
Encoding: 992901 992901 136
Width: 1000
Flags: MW
LayerCount: 2
Fore
SplineSet
522 116 m 1
 522 147 l 1
 656 150 684 221 706 221 c 0
 721 221 720 205 720 190 c 2
 720 -126 l 1
 721 -146 723 -157 736 -164 c 0
 748 -170 770 -172 808 -172 c 2
 828 -172 l 1
 828 -203 l 1
 776 -203 l 1
 816 -202 l 1
 738 -201 l 1
 614 -201 l 1
 548 -203 l 1
 536 -203 l 1
 536 -172 l 1
 556 -172 l 2
 597 -172 620 -171 632 -163 c 0
 643 -156 646 -144 646 -125 c 2
 646 146 l 1
 614 130 579 117 522 116 c 1
172 116 m 1
 172 147 l 1
 306 150 334 221 356 221 c 0
 371 221 370 205 370 190 c 2
 370 -126 l 1
 371 -146 373 -157 386 -164 c 0
 398 -170 420 -172 458 -172 c 2
 478 -172 l 1
 478 -203 l 1
 426 -203 l 1
 466 -202 l 1
 388 -201 l 1
 264 -201 l 1
 198 -203 l 1
 186 -203 l 1
 186 -172 l 1
 206 -172 l 2
 247 -172 270 -171 282 -163 c 0
 293 -156 296 -144 296 -125 c 2
 296 146 l 1
 264 130 229 117 172 116 c 1
339 453 m 0
 339 493 376 499 386 499 c 0
 403 499 433 489 433 455 c 0
 433 432 417 417 397 412 c 0
 394 411 391 411 387 411 c 1
 416 374 460 371 477 371 c 0
 506 371 526 379 539 392 c 5
 561 415 561 452 561 483 c 0
 561 515 562 550 547 571 c 0
 538 584 523 592 499 592 c 0
 470 592 432 586 405 556 c 0
 400 551 399 548 390 548 c 0
 375 548 375 556 375 568 c 2
 375 758 l 2
 375 768 374 776 384 776 c 0
 386 776 387 775 393 773 c 0
 411 767 449 755 502 755 c 0
 532 755 569 759 609 773 c 0
 617 776 618 776 620 776 c 0
 628 776 629 769 629 764 c 0
 629 748 565 674 463 674 c 0
 439 674 432 676 412 679 c 1
 412 593 l 1
 445 614 482 616 502 616 c 0
 606 616 661 556 661 481 c 0
 661 402 592 343 480 343 c 0
 393 343 339 398 339 453 c 0
58 278 m 0
 58 296 75.0281489844 298 90 298 c 2
 925 298 l 2
 934 298 943 297 950 294 c 0
 956 291 960 287 960 278 c 0
 960 270 957 258 931 258 c 2
 87 258 l 2
 63.0429230124 258 58 270 58 278 c 0
EndSplineSet
EndChar
StartChar: uF2686
Encoding: 992902 992902 137
Width: 1000
Flags: MW
LayerCount: 2
Fore
SplineSet
522 116 m 1
 522 147 l 1
 656 150 684 221 706 221 c 0
 721 221 720 205 720 190 c 2
 720 -126 l 1
 721 -146 723 -157 736 -164 c 0
 748 -170 770 -172 808 -172 c 2
 828 -172 l 1
 828 -203 l 1
 776 -203 l 1
 816 -202 l 1
 738 -201 l 1
 614 -201 l 1
 548 -203 l 1
 536 -203 l 1
 536 -172 l 1
 556 -172 l 2
 597 -172 620 -171 632 -163 c 0
 643 -156 646 -144 646 -125 c 2
 646 146 l 1
 614 130 579 117 522 116 c 1
172 116 m 1
 172 147 l 1
 306 150 334 221 356 221 c 0
 371 221 370 205 370 190 c 2
 370 -126 l 1
 371 -146 373 -157 386 -164 c 0
 398 -170 420 -172 458 -172 c 2
 478 -172 l 1
 478 -203 l 1
 426 -203 l 1
 466 -202 l 1
 388 -201 l 1
 264 -201 l 1
 198 -203 l 1
 186 -203 l 1
 186 -172 l 1
 206 -172 l 2
 247 -172 270 -171 282 -163 c 0
 293 -156 296 -144 296 -125 c 2
 296 146 l 1
 264 130 229 117 172 116 c 1
333 556 m 0
 333 720 448 776 543 776 c 0
 617 776 647 734 647 694 c 0
 647 669 630 653 603 653 c 0
 576 653 559 671 559 693 c 0
 559 713 572 731 597 734 c 1
 581 749 558 750 545 750 c 0
 502 750 464 727 447 696 c 0
 442 686 428 659 428 585 c 2
 428 572 l 1
 457 621 497 622 512 622 c 0
 597 622 667 574 667 483 c 0
 667 396 600 343 503 343 c 0
 454 343 401 359 368 408 c 1
 339 453 333 505 333 556 c 0
429 486 m 0
 429 474 429 428 440 407 c 0
 446 397 465 371 501 371 c 0
 537 371 556 384 564 405 c 4
 572 425 572 453 572 485 c 0
 572 519 572 548 562 568 c 0
 554 587 537 598 505 598 c 0
 467 598 429 567 429 486 c 0
58 278 m 0
 58 296 75.0281489844 298 90 298 c 2
 925 298 l 2
 934 298 943 297 950 294 c 0
 956 291 960 287 960 278 c 0
 960 270 957 258 931 258 c 2
 87 258 l 2
 63.0429230124 258 58 270 58 278 c 0
EndSplineSet
EndChar
StartChar: uF2687
Encoding: 992903 992903 138
Width: 1000
Flags: MW
LayerCount: 2
Fore
SplineSet
522 116 m 1
 522 147 l 1
 656 150 684 221 706 221 c 0
 721 221 720 205 720 190 c 2
 720 -126 l 1
 721 -146 723 -157 736 -164 c 0
 748 -170 770 -172 808 -172 c 2
 828 -172 l 1
 828 -203 l 1
 776 -203 l 1
 816 -202 l 1
 738 -201 l 1
 614 -201 l 1
 548 -203 l 1
 536 -203 l 1
 536 -172 l 1
 556 -172 l 2
 597 -172 620 -171 632 -163 c 0
 643 -156 646 -144 646 -125 c 2
 646 146 l 1
 614 130 579 117 522 116 c 1
172 116 m 1
 172 147 l 1
 306 150 334 221 356 221 c 0
 371 221 370 205 370 190 c 2
 370 -126 l 1
 371 -146 373 -157 386 -164 c 0
 398 -170 420 -172 458 -172 c 2
 478 -172 l 1
 478 -203 l 1
 426 -203 l 1
 466 -202 l 1
 388 -201 l 1
 264 -201 l 1
 198 -203 l 1
 186 -203 l 1
 186 -172 l 1
 206 -172 l 2
 247 -172 270 -171 282 -163 c 0
 293 -156 296 -144 296 -125 c 2
 296 146 l 1
 264 130 229 117 172 116 c 1
327 624 m 1
 351 789 l 1
 384 789 l 1
 385 783 386 777 401 774 c 1
 411 771 514 769 530 769 c 2
 673 769 l 1
 673 746 673 744 666 737 c 2
 557 620 l 2
 533 593 518 556 512 512 c 0
 507 481 505 450 505 419 c 2
 505 389 l 2
 505 346 471 343 460 343 c 0
 456 343 417 342 417 388 c 0
 417 484 468 572 535 645 c 2
 573 687 l 1
 455 687 l 2
 443 687 387 687 379 683 c 0
 376 682 367 673 360 624 c 1
 327 624 l 1
58 278 m 0
 58 296 75.0281489844 298 90 298 c 2
 925 298 l 2
 934 298 943 297 950 294 c 0
 956 291 960 287 960 278 c 0
 960 270 957 258 931 258 c 2
 87 258 l 2
 63.0429230124 258 58 270 58 278 c 0
EndSplineSet
EndChar
StartChar: uF2688
Encoding: 992904 992904 139
Width: 1000
Flags: MW
LayerCount: 2
Fore
SplineSet
522 116 m 1
 522 147 l 1
 656 150 684 221 706 221 c 0
 721 221 720 205 720 190 c 2
 720 -126 l 1
 721 -146 723 -157 736 -164 c 0
 748 -170 770 -172 808 -172 c 2
 828 -172 l 1
 828 -203 l 1
 776 -203 l 1
 816 -202 l 1
 738 -201 l 1
 614 -201 l 1
 548 -203 l 1
 536 -203 l 1
 536 -172 l 1
 556 -172 l 2
 597 -172 620 -171 632 -163 c 0
 643 -156 646 -144 646 -125 c 2
 646 146 l 1
 614 130 579 117 522 116 c 1
172 116 m 1
 172 147 l 1
 306 150 334 221 356 221 c 0
 371 221 370 205 370 190 c 2
 370 -126 l 1
 371 -146 373 -157 386 -164 c 0
 398 -170 420 -172 458 -172 c 2
 478 -172 l 1
 478 -203 l 1
 426 -203 l 1
 466 -202 l 1
 388 -201 l 1
 264 -201 l 1
 198 -203 l 1
 186 -203 l 1
 186 -172 l 1
 206 -172 l 2
 247 -172 270 -171 282 -163 c 0
 293 -156 296 -144 296 -125 c 2
 296 146 l 1
 264 130 229 117 172 116 c 1
333 455 m 0
 333 503 363 540 422 564 c 1
 404 573 392 583 382 594 c 4
 361 617 355 642 355 662 c 0
 355 724 404 776 501 776 c 0
 581 776 645 746 645 680 c 0
 645 642 623 613 574 590 c 1
 590 582 612 571 630 554 c 0
 651 535 667 510 667 472 c 0
 667 400 611 343 499 343 c 0
 409 343 333 376 333 455 c 0
393 455 m 0
 393 404 432 371 501 371 c 0
 541 371 607 381 607 436 c 0
 607 467 581 481 550 497 c 0
 512 517 478 534 454 546 c 1
 430 533 393 506 393 455 c 0
407 700 m 0
 407 678 427 667 438 661 c 2
 543 607 l 1
 574 626 592 648 592 680 c 0
 592 724 558 750 499 750 c 0
 471 750 407 746 407 700 c 0
58 278 m 0
 58 296 75.0281489844 298 90 298 c 2
 925 298 l 2
 934 298 943 297 950 294 c 0
 956 291 960 287 960 278 c 0
 960 270 957 258 931 258 c 2
 87 258 l 2
 63.0429230124 258 58 270 58 278 c 0
EndSplineSet
EndChar
StartChar: uF2689
Encoding: 992905 992905 140
Width: 1000
Flags: MW
LayerCount: 2
Fore
SplineSet
522 116 m 1
 522 147 l 1
 656 150 684 221 706 221 c 0
 721 221 720 205 720 190 c 2
 720 -126 l 1
 721 -146 723 -157 736 -164 c 0
 748 -170 770 -172 808 -172 c 2
 828 -172 l 1
 828 -203 l 1
 776 -203 l 1
 816 -202 l 1
 738 -201 l 1
 614 -201 l 1
 548 -203 l 1
 536 -203 l 1
 536 -172 l 1
 556 -172 l 2
 597 -172 620 -171 632 -163 c 0
 643 -156 646 -144 646 -125 c 2
 646 146 l 1
 614 130 579 117 522 116 c 1
172 116 m 1
 172 147 l 1
 306 150 334 221 356 221 c 0
 371 221 370 205 370 190 c 2
 370 -126 l 1
 371 -146 373 -157 386 -164 c 0
 398 -170 420 -172 458 -172 c 2
 478 -172 l 1
 478 -203 l 1
 426 -203 l 1
 466 -202 l 1
 388 -201 l 1
 264 -201 l 1
 198 -203 l 1
 186 -203 l 1
 186 -172 l 1
 206 -172 l 2
 247 -172 270 -171 282 -163 c 0
 293 -156 296 -144 296 -125 c 2
 296 146 l 1
 264 130 229 117 172 116 c 1
333 636 m 0
 333 682 352 719 384 743 c 5
 413 764 454 776 501 776 c 0
 667 776 667 608 667 564 c 0
 667 398 557 343 466 343 c 0
 388 343 353 380 353 424 c 0
 353 449 370 466 397 466 c 0
 424 466 440 447 440 425 c 0
 440 396 414 387 406 385 c 1
 427 372 452 371 465 371 c 0
 513 371 543 400 555 425 c 0
 565 447 572 486 572 533 c 2
 572 548 l 1
 545 502 512 498 488 498 c 0
 402 498 333 546 333 636 c 0
428 635 m 0
 428 600 428 570 438 549 c 0
 447 531 463 521 494 521 c 0
 553 521 571 587 571 628 c 0
 571 650 571 688 563 709 c 0
 560 715 544 750 503 750 c 0
 469 750 450 740 440 722 c 0
 428 701 428 669 428 635 c 0
58 278 m 0
 58 296 75.0281489844 298 90 298 c 2
 925 298 l 2
 934 298 943 297 950 294 c 0
 956 291 960 287 960 278 c 0
 960 270 957 258 931 258 c 2
 87 258 l 2
 63.0429230124 258 58 270 58 278 c 0
EndSplineSet
EndChar
StartChar: uF268A
Encoding: 992906 992906 141
Width: 1000
Flags: MW
LayerCount: 2
Fore
SplineSet
522 116 m 1
 522 147 l 1
 656 150 684 221 706 221 c 0
 721 221 720 205 720 190 c 2
 720 -126 l 1
 721 -146 723 -157 736 -164 c 0
 748 -170 770 -172 808 -172 c 2
 828 -172 l 1
 828 -203 l 1
 776 -203 l 1
 816 -202 l 1
 738 -201 l 1
 614 -201 l 1
 548 -203 l 1
 536 -203 l 1
 536 -172 l 1
 556 -172 l 2
 597 -172 620 -171 632 -163 c 0
 643 -156 646 -144 646 -125 c 2
 646 146 l 1
 614 130 579 117 522 116 c 1
172 116 m 1
 172 147 l 1
 306 150 334 221 356 221 c 0
 371 221 370 205 370 190 c 2
 370 -126 l 1
 371 -146 373 -157 386 -164 c 0
 398 -170 420 -172 458 -172 c 2
 478 -172 l 1
 478 -203 l 1
 426 -203 l 1
 466 -202 l 1
 388 -201 l 1
 264 -201 l 1
 198 -203 l 1
 186 -203 l 1
 186 -172 l 1
 206 -172 l 2
 247 -172 270 -171 282 -163 c 0
 293 -156 296 -144 296 -125 c 2
 296 146 l 1
 264 130 229 117 172 116 c 1
162 666 m 1
 162 697 l 1
 296 700 324 771 346 771 c 0
 361 771 360 755 360 740 c 2
 360 424 l 1
 361 404 363 393 376 386 c 0
 388 380 410 378 448 378 c 2
 467 378 l 1
 467 347 l 1
 416 347 l 1
 455 348 l 1
 377 349 l 1
 253 349 l 1
 188 347 l 1
 176 347 l 1
 176 378 l 1
 195 378 l 2
 236 378 259 379 271 387 c 0
 282 394 285 406 285 425 c 2
 285 696 l 1
 253 680 219 667 162 666 c 1
499 557 m 0
 499 598 498 677 544 728 c 0
 569 756 608 776 668 776 c 0
 721 776 758 760 783 737 c 0
 838 687 837 600 837 557 c 0
 837 513 836 433 786 384 c 0
 761 359 724 343 668 343 c 0
 612 343 575 359 550 384 c 0
 500 433 499 514 499 557 c 0
588 565 m 0
 588 529 588 462 594 428 c 0
 603 381 643 366 668 366 c 0
 689 366 733 376 743 436 c 0
 748 470 748 529 748 565 c 0
 748 618 748 687 736 711 c 0
 723 740 694 752 668 752 c 0
 651 752 602 746 594 688 c 0
 588 654 588 612 588 565 c 0
58 278 m 0
 58 296 75.0281489844 298 90 298 c 2
 925 298 l 2
 934 298 943 297 950 294 c 0
 956 291 960 287 960 278 c 0
 960 270 957 258 931 258 c 2
 87 258 l 2
 63.0429230124 258 58 270 58 278 c 0
EndSplineSet
EndChar
StartChar: uF268B
Encoding: 992907 992907 142
Width: 1000
Flags: MW
LayerCount: 2
Fore
SplineSet
494 -203 m 1
 494 -157 l 2
 494 -137 501 -135 518 -124 c 0
 671 -25 746 10 746 86 c 0
 746 148 698 191 634 191 c 0
 599 191 575 181 554 167 c 1
 577 163 598 146 598 115 c 0
 598 85 574 63 546 63 c 0
 518 63 494 83 494 117 c 0
 494 134 499 150 508 163 c 0
 520 181 538 195 562 205 c 0
 588 216 619 222 654 222 c 0
 760 222 838 168 838 87 c 0
 838 -8 727 -36 656 -72 c 1
 562 -125 l 1
 688 -125 l 2
 720 -125 752 -124 768 -123 c 0
 783 -122 790 -120 796 -104 c 0
 801 -91 805 -68 812 -28 c 1
 838 -28 l 1
 810 -203 l 1
 494 -203 l 1
162 116 m 1
 162 147 l 1
 296 150 324 221 346 221 c 0
 361 221 360 205 360 190 c 2
 360 -126 l 1
 361 -146 363 -157 376 -164 c 0
 388 -170 410 -172 448 -172 c 2
 468 -172 l 1
 468 -203 l 1
 416 -203 l 1
 456 -202 l 1
 378 -201 l 1
 254 -201 l 1
 188 -203 l 1
 176 -203 l 1
 176 -172 l 1
 196 -172 l 2
 237 -172 260 -171 272 -163 c 0
 283 -156 286 -144 286 -125 c 2
 286 146 l 1
 254 130 219 117 162 116 c 1
348 666 m 1
 348 697 l 1
 482 700 510 771 532 771 c 0
 547 771 546 755 546 740 c 2
 546 424 l 1
 547 404 549 393 562 386 c 4
 574 380 596 378 634 378 c 2
 652 378 l 1
 652 347 l 1
 602 347 l 1
 640 348 l 1
 562 349 l 1
 438 349 l 1
 374 347 l 1
 362 347 l 1
 362 378 l 1
 380 378 l 2
 421 378 444 379 456 387 c 0
 467 394 470 406 470 425 c 2
 470 696 l 1
 438 680 405 667 348 666 c 1
58 278 m 0
 58 296 75.0281489844 298 90 298 c 2
 925 298 l 2
 934 298 943 297 950 294 c 0
 956 291 960 287 960 278 c 0
 960 270 957 258 931 258 c 2
 87 258 l 2
 63.0429230124 258 58 270 58 278 c 0
EndSplineSet
EndChar
StartChar: uF268C
Encoding: 992908 992908 143
Width: 1000
Flags: MW
LayerCount: 2
Fore
SplineSet
494 -203 m 1
 494 -157 l 2
 494 -137 501 -135 518 -124 c 0
 671 -25 746 10 746 86 c 0
 746 148 698 191 634 191 c 0
 599 191 575 181 554 167 c 1
 577 163 598 146 598 115 c 0
 598 85 574 63 546 63 c 0
 518 63 494 83 494 117 c 0
 494 134 499 150 508 163 c 0
 520 181 538 195 562 205 c 0
 588 216 619 222 654 222 c 0
 760 222 838 168 838 87 c 0
 838 -8 727 -36 656 -72 c 1
 562 -125 l 1
 688 -125 l 2
 720 -125 752 -124 768 -123 c 0
 783 -122 790 -120 796 -104 c 0
 801 -91 805 -68 812 -28 c 1
 838 -28 l 1
 810 -203 l 1
 494 -203 l 1
162 116 m 1
 162 147 l 1
 296 150 324 221 346 221 c 0
 361 221 360 205 360 190 c 2
 360 -126 l 1
 361 -146 363 -157 376 -164 c 0
 388 -170 410 -172 448 -172 c 2
 468 -172 l 1
 468 -203 l 1
 416 -203 l 1
 456 -202 l 1
 378 -201 l 1
 254 -201 l 1
 188 -203 l 1
 176 -203 l 1
 176 -172 l 1
 196 -172 l 2
 237 -172 260 -171 272 -163 c 0
 283 -156 286 -144 286 -125 c 2
 286 146 l 1
 254 130 219 117 162 116 c 1
339 453 m 0
 339 493 376 499 386 499 c 0
 403 499 433 489 433 455 c 0
 433 432 417 417 397 412 c 0
 394 411 391 411 387 411 c 1
 416 374 460 371 477 371 c 0
 506 371 526 379 539 392 c 5
 561 415 561 452 561 483 c 0
 561 515 562 550 547 571 c 0
 538 584 523 592 499 592 c 0
 470 592 432 586 405 556 c 0
 400 551 399 548 390 548 c 0
 375 548 375 556 375 568 c 2
 375 758 l 2
 375 768 374 776 384 776 c 0
 386 776 387 775 393 773 c 0
 411 767 449 755 502 755 c 0
 532 755 569 759 609 773 c 0
 617 776 618 776 620 776 c 0
 628 776 629 769 629 764 c 0
 629 748 565 674 463 674 c 0
 439 674 432 676 412 679 c 1
 412 593 l 1
 445 614 482 616 502 616 c 0
 606 616 661 556 661 481 c 0
 661 402 592 343 480 343 c 0
 393 343 339 398 339 453 c 0
58 278 m 0
 58 296 75.0281489844 298 90 298 c 2
 925 298 l 2
 934 298 943 297 950 294 c 0
 956 291 960 287 960 278 c 0
 960 270 957 258 931 258 c 2
 87 258 l 2
 63.0429230124 258 58 270 58 278 c 0
EndSplineSet
EndChar
StartChar: uF268D
Encoding: 992909 992909 144
Width: 1000
Flags: MW
LayerCount: 2
Fore
SplineSet
494 -203 m 1
 494 -157 l 2
 494 -137 501 -135 518 -124 c 0
 671 -25 746 10 746 86 c 0
 746 148 698 191 634 191 c 0
 599 191 575 181 554 167 c 1
 577 163 598 146 598 115 c 0
 598 85 574 63 546 63 c 0
 518 63 494 83 494 117 c 0
 494 134 499 150 508 163 c 0
 520 181 538 195 562 205 c 0
 588 216 619 222 654 222 c 0
 760 222 838 168 838 87 c 0
 838 -8 727 -36 656 -72 c 1
 562 -125 l 1
 688 -125 l 2
 720 -125 752 -124 768 -123 c 0
 783 -122 790 -120 796 -104 c 0
 801 -91 805 -68 812 -28 c 1
 838 -28 l 1
 810 -203 l 1
 494 -203 l 1
162 116 m 1
 162 147 l 1
 296 150 324 221 346 221 c 0
 361 221 360 205 360 190 c 2
 360 -126 l 1
 361 -146 363 -157 376 -164 c 0
 388 -170 410 -172 448 -172 c 2
 468 -172 l 1
 468 -203 l 1
 416 -203 l 1
 456 -202 l 1
 378 -201 l 1
 254 -201 l 1
 188 -203 l 1
 176 -203 l 1
 176 -172 l 1
 196 -172 l 2
 237 -172 260 -171 272 -163 c 0
 283 -156 286 -144 286 -125 c 2
 286 146 l 1
 254 130 219 117 162 116 c 1
327 624 m 1
 351 789 l 1
 384 789 l 1
 385 783 386 777 401 774 c 1
 411 771 514 769 530 769 c 2
 673 769 l 1
 673 746 673 744 666 737 c 2
 557 620 l 2
 533 593 518 556 512 512 c 0
 507 481 505 450 505 419 c 2
 505 389 l 2
 505 346 471 343 460 343 c 0
 456 343 417 342 417 388 c 0
 417 484 468 572 535 645 c 2
 573 687 l 1
 455 687 l 2
 443 687 387 687 379 683 c 0
 376 682 367 673 360 624 c 1
 327 624 l 1
58 278 m 0
 58 296 75.0281489844 298 90 298 c 2
 925 298 l 2
 934 298 943 297 950 294 c 0
 956 291 960 287 960 278 c 0
 960 270 957 258 931 258 c 2
 87 258 l 2
 63.0429230124 258 58 270 58 278 c 0
EndSplineSet
EndChar
StartChar: uF268E
Encoding: 992910 992910 145
Width: 1000
Flags: MW
LayerCount: 2
Fore
SplineSet
494 -203 m 1
 494 -157 l 2
 494 -137 501 -135 518 -124 c 0
 671 -25 746 10 746 86 c 0
 746 148 698 191 634 191 c 0
 599 191 575 181 554 167 c 1
 577 163 598 146 598 115 c 0
 598 85 574 63 546 63 c 0
 518 63 494 83 494 117 c 0
 494 134 499 150 508 163 c 0
 520 181 538 195 562 205 c 0
 588 216 619 222 654 222 c 0
 760 222 838 168 838 87 c 0
 838 -8 727 -36 656 -72 c 1
 562 -125 l 1
 688 -125 l 2
 720 -125 752 -124 768 -123 c 0
 783 -122 790 -120 796 -104 c 0
 801 -91 805 -68 812 -28 c 1
 838 -28 l 1
 810 -203 l 1
 494 -203 l 1
162 116 m 1
 162 147 l 1
 296 150 324 221 346 221 c 0
 361 221 360 205 360 190 c 2
 360 -126 l 1
 361 -146 363 -157 376 -164 c 0
 388 -170 410 -172 448 -172 c 2
 468 -172 l 1
 468 -203 l 1
 416 -203 l 1
 456 -202 l 1
 378 -201 l 1
 254 -201 l 1
 188 -203 l 1
 176 -203 l 1
 176 -172 l 1
 196 -172 l 2
 237 -172 260 -171 272 -163 c 0
 283 -156 286 -144 286 -125 c 2
 286 146 l 1
 254 130 219 117 162 116 c 1
522 666 m 1
 522 697 l 1
 656 700 684 771 706 771 c 0
 721 771 720 755 720 740 c 2
 720 424 l 1
 721 404 723 393 736 386 c 0
 748 380 770 378 808 378 c 2
 828 378 l 1
 828 347 l 1
 776 347 l 1
 816 348 l 1
 738 349 l 1
 614 349 l 1
 548 347 l 1
 536 347 l 1
 536 378 l 1
 556 378 l 2
 597 378 620 379 632 387 c 0
 643 394 646 406 646 425 c 2
 646 696 l 1
 614 680 579 667 522 666 c 1
172 666 m 1
 172 697 l 1
 306 700 334 771 356 771 c 0
 371 771 370 755 370 740 c 2
 370 424 l 1
 371 404 373 393 386 386 c 0
 398 380 420 378 458 378 c 2
 478 378 l 1
 478 347 l 1
 426 347 l 1
 466 348 l 1
 388 349 l 1
 264 349 l 1
 198 347 l 1
 186 347 l 1
 186 378 l 1
 206 378 l 2
 247 378 270 379 282 387 c 0
 293 394 296 406 296 425 c 2
 296 696 l 1
 264 680 229 667 172 666 c 1
58 278 m 0
 58 296 75.0281489844 298 90 298 c 2
 925 298 l 2
 934 298 943 297 950 294 c 0
 956 291 960 287 960 278 c 0
 960 270 957 258 931 258 c 2
 87 258 l 2
 63.0429230124 258 58 270 58 278 c 0
EndSplineSet
EndChar
StartChar: uF268F
Encoding: 992911 992911 146
Width: 1000
Flags: MW
LayerCount: 2
Fore
SplineSet
58 278 m 0
 58 296 75.0281489844 298 90 298 c 2
 925 298 l 2
 934 298 943 297 950 294 c 0
 956 291 960 287 960 278 c 0
 960 270 957 258 931 258 c 2
 87 258 l 2
 63.0429230124 258 58 270 58 278 c 0
745 15 m 0
 745 -21 745 -88 750 -122 c 0
 758 -169 792 -184 813 -184 c 0
 831 -184 869 -174 877 -114 c 0
 881 -80 881 -21 881 15 c 0
 881 68 881 137 871 161 c 0
 860 190 835 202 813 202 c 0
 799 202 757 196 750 138 c 0
 745 104 745 62 745 15 c 0
670 7 m 0
 670 48 669 127 708 178 c 0
 729 206 762 226 813 226 c 0
 858 226 890 210 911 187 c 0
 958 137 957 50 957 7 c 0
 957 -37 956 -117 914 -166 c 0
 893 -191 861 -207 813 -207 c 0
 765 -207 734 -191 713 -166 c 0
 671 -117 670 -36 670 7 c 0
405 15 m 0
 405 -21 405 -88 410 -122 c 0
 418 -169 452 -184 473 -184 c 0
 491 -184 529 -174 537 -114 c 0
 541 -80 541 -21 541 15 c 0
 541 68 541 137 531 161 c 0
 520 190 495 202 473 202 c 0
 459 202 417 196 410 138 c 0
 405 104 405 62 405 15 c 0
330 7 m 0
 330 48 329 127 368 178 c 0
 389 206 422 226 473 226 c 0
 518 226 550 210 571 187 c 0
 618 137 617 50 617 7 c 0
 617 -37 616 -117 574 -166 c 0
 553 -191 521 -207 473 -207 c 0
 425 -207 394 -191 373 -166 c 0
 331 -117 330 -36 330 7 c 0
43 116 m 1
 43 147 l 1
 157 150 181 221 200 221 c 0
 213 221 211 205 211 190 c 2
 211 -126 l 1
 212 -146 214 -157 225 -164 c 0
 235 -170 254 -172 286 -172 c 2
 302 -172 l 1
 302 -203 l 1
 259 -203 l 1
 292 -202 l 1
 226 -201 l 1
 120 -201 l 1
 65 -203 l 1
 55 -203 l 1
 55 -172 l 1
 71 -172 l 2
 106 -172 126 -171 136 -163 c 0
 145 -156 148 -144 148 -125 c 2
 148 146 l 1
 121 130 91 117 43 116 c 1
348 666 m 1
 348 697 l 1
 482 700 510 771 532 771 c 0
 547 771 546 755 546 740 c 2
 546 424 l 1
 547 404 549 393 562 386 c 0
 574 380 596 378 634 378 c 2
 652 378 l 1
 652 347 l 1
 602 347 l 1
 640 348 l 1
 562 349 l 1
 438 349 l 1
 374 347 l 1
 362 347 l 1
 362 378 l 1
 380 378 l 2
 421 378 444 379 456 387 c 0
 467 394 470 406 470 425 c 2
 470 696 l 1
 438 680 405 667 348 666 c 1
EndSplineSet
EndChar
StartChar: uF2F39
Encoding: 995129 995129 301
Width: 1000
Flags: MW
LayerCount: 2
Fore
SplineSet
196 598.5 m 24
 196 652.542909059 219.693033086 673.92210886 236.5 701 c 1
 244.5 696.5 l 1
 243.368671643 692.728905476 239 676.673712708 239 667 c 24
 239 608.441104549 263 588 293.216796875 558.412109375 c 2
 529.177734375 331.84765625 l 1
 680.155273438 532.045898438 l 1
 639.321487848 561.368593722 600.481002515 594.846035758 566 630.5 c 1
 614 684 l 1
 651.881338173 656.678022913 687 627 732.5 588.5 c 24
 752.988276385 572.564673923 762 537.726951125 762 502 c 24
 762 470.555261051 751.5 449.082371743 751.5 419.5 c 1
 742.5 419 l 1
 737.749426964 445.201374675 724.354018764 468.055630199 712.599609375 488.099609375 c 1
 541.680664062 319.616210938 l 1
 732.5 133 l 2
 763.923349964 100.319716037 788 45.5109691051 788 -13.5 c 24
 788 -43.0302483645 778.237454922 -61.3894308999 777 -88 c 1
 768 -88.5 l 1
 751.888359085 -31.376909483 719 28 682 64.5 c 2
 407.985351562 335.052734375 l 1
 386.81738896 315.14910959 352.257028546 286.699031904 331.5 263.5 c 24
 313.519906074 243.122560218 292.367006838 219.198725427 292.367006838 182.412414523 c 0
 292.367006838 115.680449017 342.414213562 90.9441379807 342.414213562 19.4657287525 c 0
 342.414213562 -15.9582376287 326.007933312 -43.8179294265 304.5 -59 c 24
 279.252482618 -79.792073138 242.48530363 -85.8346074986 210.5 -92.5 c 1
 208 -84 l 1
 230.127689305 -70.9503370764 259.015410777 -48.4851292909 259.015410777 -13.3606532811 c 0
 259.015410777 54.7761177582 212 92.1700617893 212 156.5 c 8
 212 225.937817234 264.293529366 261.366498565 304.5 292 c 24
 330.9267445 312.681800043 364.259889127 332.668612061 397.379882812 345.46484375 c 1
 241.931640625 498.788085938 l 2
 219 521 196 556.96274031 196 598.5 c 24
EndSplineSet
Colour: 8080ff
EndChar
StartChar: uF2F3A
Encoding: 995130 995130 302
Width: 1000
VWidth: 1000
Flags: MW
LayerCount: 2
Fore
SplineSet
713 211 m 0
 713 150 693 98 652 55 c 0
 611 10 560 -12 499 -12 c 0
 428 -12 373 18 333 79 c 0
 302 126 287 187 287 263 c 0
 287 342 299 415 324 483 c 0
 353 564 397 622 454 659 c 0
 496 686 538 700 581 700 c 0
 606 700 628 694 646 683 c 0
 667 670 677 651 676 626 c 0
 676 571 636 529 556 500 c 0
 497 479 434 468 365 468 c 1
 348 425 339 380 338 332 c 1
 380 391 436 421 505 421 c 0
 562 421 611 401 652 360 c 0
 693 319 713 269 713 211 c 0
622 617 m 0
 622 645 604 659 569 658 c 0
 526 658 487 642 451 610 c 0
 419 582 395 546 378 503 c 1
 429 504 478 512 524 527 c 0
 589 548 622 578 622 617 c 0
634 179 m 0
 634 234 624 281 603 322 c 0
 577 373 539 399 490 398 c 0
 450 398 420 381 399 346 c 0
 382 317 374 282 374 239 c 0
 374 184 385 136 406 94 c 0
 433 41 471 15 520 15 c 0
 596 14 634 69 634 179 c 0
EndSplineSet
Colour: ff
EndChar
StartChar: uF2F3B
Encoding: 995131 995131 303
Width: 1000
VWidth: 1000
Flags: MW
LayerCount: 2
Fore
SplineSet
701 20 m 256
 701 7 695 0 683 0 c 2
 540 0 l 2
 475 0 419 21 372 63 c 0
 323 106 299 161 299 226 c 256
 299 291 323 345 372 388 c 0
 419 430 475 451 540 451 c 2
 683 451 l 2
 695 451 701 444 701 431 c 256
 701 418 695 411 683 411 c 2
 540 411 l 2
 489 411 444 395 406 364 c 0
 368 333 345 293 340 246 c 1
 683 246 l 2
 695 246 701 239 701 226 c 256
 701 213 695 206 683 206 c 2
 340 206 l 1
 345 159 368 120 406 88 c 0
 444 56 489 40 540 40 c 2
 683 40 l 2
 695 40 701 33 701 20 c 256
EndSplineSet
Colour: ff
EndChar
StartChar: uF2F3C
Encoding: 995132 995132 269
Width: 1000
Flags: MW
LayerCount: 2
Fore
SplineSet
270 15 m 0
 270 17 271 26 272 28 c 2
 390 499 l 1
 327 453 325 448 314 448 c 0
 304 448 301 457 301 462 c 0
 301 468 305 473 317 482 c 0
 329 491 350 505 384 531 c 0
 404 547 403 548 408 569 c 2
 420 618 l 2
 420 619 423 632 423 635 c 0
 423 645 421 652 373 652 c 0
 359 652 349 652 349 663 c 0
 349 682 360 683 372 684 c 2
 471 692 l 2
 474 693 484 694 487 694 c 0
 495 694 501 691 501 682 c 0
 501 680 499 672 498 669 c 2
 482 603 l 1
 551 655 569 670 580 670 c 0
 582 670 583 670 585 669 c 0
 589 666 593 661 593 656 c 0
 593 645 580 639 573 634 c 0
 564 626 482 568 474 559 c 0
 468 552 466 542 464 533 c 2
 425 377 l 1
 456 407 491 442 558 442 c 0
 607 442 662 420 662 338 c 0
 662 280 621 168 601 115 c 0
 593 91 583 65 583 40 c 0
 583 26 584 11 605 11 c 0
 663 11 690 109 698 136 c 0
 702 151 702 153 715 153 c 0
 717 153 718 153 720 153 c 0
 725 153 730 151 730 143 c 0
 730 138 696 -11 603 -11 c 0
 555 -11 527 25 527 69 c 0
 527 90 530 99 543 133 c 1
 557 173 601 292 601 354 c 0
 601 375 599 420 555 420 c 0
 485 420 442 357 422 325 c 1
 404 293 403 291 394 255 c 0
 389 233 383 212 378 190 c 0
 371 162 339 32 335 17 c 0
 332 6 319 -11 298 -11 c 0
 279 -11 270 4 270 15 c 0
EndSplineSet
EndChar
StartChar: uF2F3D
Encoding: 995133 995133 305
Width: 1000
VWidth: 1000
Flags: MW
LayerCount: 2
Fore
SplineSet
782 151 m 0
 782 142 777 124 768 98 c 0
 745 25 713 -12 672 -12 c 0
 648 -12 628 -4 612 10 c 0
 596 24 585 43 580 66 c 1
 541 14 496 -12 442 -12 c 0
 398 -12 363 -1 338 22 c 1
 292 -162 l 2
 282 -198 267 -216 248 -216 c 0
 229 -216 218 -207 218 -189 c 0
 218 -186 220 -180 222 -171 c 2
 372 431 l 2
 378 456 392 469 414 468 c 0
 433 468 442 459 442 442 c 0
 442 439 437 418 428 381 c 2
 380 189 l 2
 371 153 365 125 366 104 c 0
 366 41 393 10 446 9 c 0
 491 9 530 34 566 85 c 0
 575 98 583 111 586 125 c 2
 660 421 l 2
 666 446 679 458 700 458 c 0
 719 458 730 449 730 431 c 0
 730 429 724 404 712 355 c 0
 705 326 704 326 690 268 c 1
 679 233 670 199 660 165 c 0
 649 124 642 89 642 59 c 0
 642 26 654 10 676 9 c 0
 697 9 715 26 730 60 c 0
 737 74 746 100 756 139 c 0
 760 153 764 160 770 161 c 0
 777 161 782 158 782 151 c 0
EndSplineSet
Colour: ff
EndChar
StartChar: uF2F42
Encoding: 995138 995138 307
Width: 1000
Flags: MW
LayerCount: 2
Fore
SplineSet
286 90 m 1
 300 129 322 172 322 228 c 0
 322 331 262 384 262 504 c 0
 262 607 334 687 354 687 c 1
 340 648 320 605 320 549 c 0
 320 446 380 393 380 273 c 0
 380 170 306 90 286 90 c 1
456 90 m 1
 470 129 490 172 490 228 c 0
 490 331 430 384 430 504 c 0
 430 607 504 687 524 687 c 1
 510 648 488 605 488 549 c 0
 488 446 548 393 548 273 c 0
 548 169 476 90 456 90 c 1
624 90 m 1
 638 129 660 172 660 228 c 0
 660 331 600 384 600 504 c 0
 600 607 672 687 692 687 c 1
 678 648 658 605 658 549 c 0
 658 446 718 393 718 273 c 0
 718 166 644 90 624 90 c 1
500 -127 m 0
 276 -127 88 -18 88 124 c 0
 88 241 218 324 248 324 c 0
 254 324 254 322 254 320 c 0
 254 317 252 314 245 309 c 0
 191 268 154 224 154 171 c 0
 154 58 310 -35 500 -35 c 0
 688 -35 846 58 846 171 c 0
 846 224 809 268 755 309 c 0
 748 314 746 317 746 320 c 0
 746 322 746 324 752 324 c 0
 782 324 912 241 912 124 c 0
 912 -18 726 -127 500 -127 c 0
EndSplineSet
Colour: 8000ff
EndChar
StartChar: uF2F43
Encoding: 995139 995139 308
Width: 1000
VWidth: 1000
Flags: MW
LayerCount: 2
Fore
SplineSet
601 -27 m 2
 601 -75 579 -115 535 -147 c 0
 495 -176 450 -191 401 -191 c 0
 372 -191 349 -184 330 -171 c 0
 309 -156 299 -134 299 -105 c 0
 299 -61 320 -22 363 11 c 0
 402 42 445 58 490 59 c 0
 529 59 557 51 574 36 c 1
 574 760 l 1
 601 760 l 1
 601 -27 l 2
EndSplineSet
Colour: ff
EndChar
StartChar: uF2F44
Encoding: 995140 995140 309
Width: 1000
VWidth: 1000
Flags: MW
LayerCount: 2
Fore
SplineSet
793 83 m 2
 793 35 771 -5 727 -37 c 0
 687 -66 642 -81 593 -81 c 0
 564 -81 541 -74 522 -60 c 0
 501 -45 491 -23 491 5 c 0
 491 49 512 88 555 122 c 0
 594 153 637 169 682 169 c 0
 721 169 749 161 766 146 c 1
 766 462 l 1
 409 375 l 1
 409 -27 l 2
 409 -75 387 -115 343 -147 c 0
 303 -176 258 -191 209 -191 c 0
 180 -191 157 -184 138 -171 c 0
 117 -156 107 -134 107 -105 c 0
 107 -61 128 -22 171 11 c 0
 210 42 253 58 298 59 c 0
 337 59 365 51 382 36 c 1
 382 659 l 1
 793 760 l 1
 793 83 l 2
766 562 m 1
 766 653 l 1
 409 565 l 1
 409 475 l 1
 766 562 l 1
EndSplineSet
Colour: ff
EndChar
StartChar: uF2F46
Encoding: 995142 995142 149
Width: 1000
Flags: MW
LayerCount: 2
Fore
SplineSet
138 70 m 0
 138 143 206 200 282 200 c 0
 313 200 334 188 352 172 c 1
 353 172 l 1
 368 188 377 200 382 200 c 0
 386 200 388 195 388 189 c 2
 388 107 l 2
 388 98 385 96 381 96 c 0
 378 96 375 97 374 99 c 0
 374 99 371 120 359 141 c 0
 347 163 326 184 288 184 c 0
 268 184 242 179 222 160 c 0
 204 143 190 114 190 70 c 0
 190 34 199 10 211 -8 c 0
 233 -39 268 -46 288 -46 c 0
 332 -46 371 -16 375 28 c 0
 376 36 379 40 382 40 c 0
 385 40 388 36 388 30 c 0
 388 -4 355 -61 282 -61 c 0
 216 -61 138 -12 138 70 c 0
28 75 m 0
 28 217 137 336 278 336 c 0
 412 336 527 223 527 75 c 0
 527 -66 418 -186 277 -186 c 0
 143 -186 28 -73 28 75 c 0
48 74 m 0
 48 -58 150 -166 276 -166 c 0
 402 -166 507 -60 507 75 c 0
 507 207 405 316 278 316 c 0
 154 316 48 212 48 74 c 0
EndSplineSet
EndChar
